<svg width="24" height="24" viewBox="0 0 24 24" fill="none" xmlns="http://www.w3.org/2000/svg">
<path d="M13.207 19.793C13.1081 19.8919 12.9821 19.9593 12.845 19.9866C12.7078 20.0139 12.5656 19.9999 12.4364 19.9464C12.3072 19.8928 12.1968 19.8022 12.1191 19.6859C12.0414 19.5696 12 19.4329 12 19.293V16C12 15.7348 11.8946 15.4805 11.7071 15.2929C11.5196 15.1054 11.2652 15 11 15H5C4.73478 15 4.48043 14.8947 4.29289 14.7071C4.10536 14.5196 4 14.2652 4 14V10C4 9.73481 4.10536 9.48046 4.29289 9.29292C4.48043 9.10539 4.73478 9.00003 5 9.00003H11C11.2652 9.00003 11.5196 8.89467 11.7071 8.70714C11.8946 8.5196 12 8.26525 12 8.00003V4.70703C12 4.56718 12.0414 4.43046 12.1191 4.31416C12.1968 4.19787 12.3072 4.10723 12.4364 4.0537C12.5656 4.00018 12.7078 3.98618 12.845 4.01347C12.9821 4.04076 13.1081 4.10812 13.207 4.20703L20.147 11.147C20.2591 11.2591 20.348 11.3922 20.4087 11.5386C20.4693 11.6851 20.5005 11.842 20.5005 12.0005C20.5005 12.159 20.4693 12.316 20.4087 12.4624C20.348 12.6089 20.2591 12.7419 20.147 12.854L13.207 19.793Z" stroke="black" stroke-width="2" stroke-linecap="round" stroke-linejoin="round"/>
</svg>
