<svg width="24" height="24" viewBox="0 0 24 24" fill="none" xmlns="http://www.w3.org/2000/svg">
<path d="M4 9V15M11 8.99991C11.2652 8.99991 11.5196 8.89455 11.7071 8.70701C11.8946 8.51948 12 8.26512 12 7.99991V4.70691C12 4.56705 12.0414 4.43033 12.1191 4.31404C12.1968 4.19775 12.3072 4.10711 12.4364 4.05358C12.5656 4.00006 12.7078 3.98606 12.845 4.01335C12.9821 4.04064 13.1081 4.108 13.207 4.20691L20.147 11.1469C20.2591 11.259 20.348 11.392 20.4087 11.5385C20.4693 11.6849 20.5005 11.8419 20.5005 12.0004C20.5005 12.1589 20.4693 12.3159 20.4087 12.4623C20.348 12.6088 20.2591 12.7418 20.147 12.8539L13.207 19.7939C13.1081 19.8928 12.9821 19.9602 12.845 19.9875C12.7078 20.0148 12.5656 20.0008 12.4364 19.9472C12.3072 19.8937 12.1968 19.8031 12.1191 19.6868C12.0414 19.5705 12 19.4338 12 19.2939V15.9999C12 15.7347 11.8946 15.4803 11.7071 15.2928C11.5196 15.1053 11.2652 14.9999 11 14.9999H9C8.73478 14.9999 8.48043 14.8946 8.29289 14.707C8.10536 14.5195 8 14.2651 8 13.9999V9.99991C8 9.73469 8.10536 9.48034 8.29289 9.2928C8.48043 9.10526 8.73478 8.99991 9 8.99991H11Z" stroke="black" stroke-width="2" stroke-linecap="round" stroke-linejoin="round"/>
</svg>
