<svg width="24" height="24" viewBox="0 0 24 24" fill="none" xmlns="http://www.w3.org/2000/svg">
<path d="M9.00003 19C9.00003 19.2652 9.10539 19.5195 9.29292 19.7071C9.48046 19.8946 9.73481 20 10 20H14C14.2652 20 14.5196 19.8946 14.7071 19.7071C14.8947 19.5195 15 19.2652 15 19V13C15 12.7348 15.1054 12.4804 15.2929 12.2929C15.4805 12.1053 15.7348 12 16 12H19.293C19.4329 12 19.5696 11.9586 19.6859 11.8809C19.8022 11.8032 19.8928 11.6928 19.9464 11.5635C19.9999 11.4343 20.0139 11.2922 19.9866 11.155C19.9593 11.0178 19.8919 10.8918 19.793 10.793L12.707 3.70697C12.5195 3.5195 12.2652 3.41418 12 3.41418C11.7349 3.41418 11.4806 3.5195 11.293 3.70697L4.20703 10.793C4.10812 10.8918 4.04076 11.0178 4.01347 11.155C3.98618 11.2922 4.00018 11.4343 4.0537 11.5635C4.10723 11.6928 4.19787 11.8032 4.31416 11.8809C4.43046 11.9586 4.56718 12 4.70703 12H8.00003C8.26525 12 8.5196 12.1053 8.70714 12.2929C8.89467 12.4804 9.00003 12.7348 9.00003 13V19Z" stroke="black" stroke-width="2" stroke-linecap="round" stroke-linejoin="round"/>
</svg>
