<svg width="24" height="24" viewBox="0 0 24 24" fill="none" xmlns="http://www.w3.org/2000/svg">
<path d="M10.7931 19.793C10.8919 19.8919 11.0179 19.9593 11.1551 19.9866C11.2923 20.0139 11.4344 19.9999 11.5636 19.9464C11.6928 19.8928 11.8033 19.8022 11.881 19.6859C11.9586 19.5696 12.0001 19.4329 12.0001 19.293V16C12.0001 15.7348 12.1054 15.4805 12.2929 15.2929C12.4805 15.1054 12.7348 15 13.0001 15H19.0001C19.2653 15 19.5196 14.8947 19.7072 14.7071C19.8947 14.5196 20.0001 14.2652 20.0001 14V10C20.0001 9.73481 19.8947 9.48046 19.7072 9.29292C19.5196 9.10539 19.2653 9.00003 19.0001 9.00003H13.0001C12.7348 9.00003 12.4805 8.89467 12.2929 8.70714C12.1054 8.5196 12.0001 8.26525 12.0001 8.00003V4.70703C12.0001 4.56718 11.9586 4.43046 11.881 4.31416C11.8033 4.19787 11.6928 4.10723 11.5636 4.0537C11.4344 4.00018 11.2923 3.98618 11.1551 4.01347C11.0179 4.04076 10.8919 4.10812 10.7931 4.20703L3.85306 11.147C3.74097 11.2591 3.65206 11.3922 3.5914 11.5386C3.53073 11.6851 3.49951 11.842 3.49951 12.0005C3.49951 12.159 3.53073 12.316 3.5914 12.4624C3.65206 12.6089 3.74097 12.7419 3.85306 12.854L10.7931 19.793Z" stroke="black" stroke-width="2" stroke-linecap="round" stroke-linejoin="round"/>
</svg>
