<svg width="24" height="24" viewBox="0 0 24 24" fill="none" xmlns="http://www.w3.org/2000/svg">
<path d="M9 20H15M14 16C14.2652 16 14.5196 15.8947 14.7071 15.7072C14.8947 15.5196 15 15.2653 15 15V13C15 12.7348 15.1054 12.4805 15.2929 12.2929C15.4805 12.1054 15.7348 12 16 12H19.293C19.4329 12.0001 19.5696 11.9586 19.6859 11.8809C19.8022 11.8033 19.8928 11.6928 19.9464 11.5636C19.9999 11.4344 20.0139 11.2922 19.9866 11.1551C19.9593 11.0179 19.8919 10.8919 19.793 10.793L12.854 3.85404C12.7419 3.74181 12.6088 3.65277 12.4623 3.59202C12.3157 3.53127 12.1587 3.5 12 3.5C11.8414 3.5 11.6843 3.53127 11.5378 3.59202C11.3913 3.65277 11.2581 3.74181 11.146 3.85404L4.20603 10.794C4.10747 10.893 4.04041 11.0189 4.01331 11.1559C3.98622 11.2929 4.0003 11.4348 4.05378 11.5638C4.10727 11.6928 4.19775 11.8031 4.31383 11.8807C4.42991 11.9584 4.56638 11.9999 4.70603 12H8.00003C8.26525 12 8.5196 12.1054 8.70714 12.2929C8.89467 12.4805 9.00003 12.7348 9.00003 13V15C9.00003 15.2653 9.10539 15.5196 9.29292 15.7072C9.48046 15.8947 9.73481 16 10 16H14Z" stroke="black" stroke-width="2" stroke-linecap="round" stroke-linejoin="round"/>
</svg>
