<svg width="24" height="24" viewBox="0 0 24 24" fill="none" xmlns="http://www.w3.org/2000/svg">
<path d="M9 4H15M14 8C14.2652 8 14.5196 8.10536 14.7071 8.29289C14.8947 8.48043 15 8.73478 15 9V11C15 11.2652 15.1054 11.5196 15.2929 11.7071C15.4805 11.8946 15.7348 12 16 12H19.293C19.4329 12 19.5696 12.0414 19.6859 12.1191C19.8022 12.1968 19.8928 12.3072 19.9464 12.4364C19.9999 12.5656 20.0139 12.7078 19.9866 12.845C19.9593 12.9821 19.8919 13.1081 19.793 13.207L12.854 20.146C12.7419 20.2582 12.6088 20.3473 12.4623 20.408C12.3157 20.4688 12.1587 20.5 12 20.5C11.8414 20.5 11.6843 20.4688 11.5378 20.408C11.3913 20.3473 11.2581 20.2582 11.146 20.146L4.20603 13.206C4.10747 13.1071 4.04041 12.9812 4.01331 12.8442C3.98622 12.7072 4.0003 12.5652 4.05378 12.4362C4.10727 12.3072 4.19775 12.197 4.31383 12.1193C4.42991 12.0417 4.56638 12.0002 4.70603 12H8.00003C8.26525 12 8.5196 11.8946 8.70714 11.7071C8.89467 11.5196 9.00003 11.2652 9.00003 11V9C9.00003 8.73478 9.10539 8.48043 9.29292 8.29289C9.48046 8.10536 9.73481 8 10 8H14Z" stroke="black" stroke-width="2" stroke-linecap="round" stroke-linejoin="round"/>
</svg>
