<svg width="24" height="24" viewBox="0 0 24 24" fill="none" xmlns="http://www.w3.org/2000/svg">
<path d="M20 9V15M13.0001 8.99991C12.7348 8.99991 12.4805 8.89455 12.2929 8.70701C12.1054 8.51948 12.0001 8.26512 12.0001 7.99991V4.70691C12.0001 4.56705 11.9586 4.43033 11.881 4.31404C11.8033 4.19775 11.6928 4.10711 11.5636 4.05358C11.4344 4.00006 11.2923 3.98606 11.1551 4.01335C11.0179 4.04064 10.8919 4.108 10.7931 4.20691L3.85306 11.1469C3.74097 11.259 3.65206 11.392 3.5914 11.5385C3.53073 11.6849 3.49951 11.8419 3.49951 12.0004C3.49951 12.1589 3.53073 12.3159 3.5914 12.4623C3.65206 12.6088 3.74097 12.7418 3.85306 12.8539L10.7931 19.7939C10.8919 19.8928 11.0179 19.9602 11.1551 19.9875C11.2923 20.0148 11.4344 20.0008 11.5636 19.9472C11.6928 19.8937 11.8033 19.8031 11.881 19.6868C11.9586 19.5705 12.0001 19.4338 12.0001 19.2939V15.9999C12.0001 15.7347 12.1054 15.4803 12.2929 15.2928C12.4805 15.1053 12.7348 14.9999 13.0001 14.9999H15.0001C15.2653 14.9999 15.5196 14.8946 15.7072 14.707C15.8947 14.5195 16.0001 14.2651 16.0001 13.9999V9.99991C16.0001 9.73469 15.8947 9.48034 15.7072 9.2928C15.5196 9.10526 15.2653 8.99991 15.0001 8.99991H13.0001Z" stroke="black" stroke-width="2" stroke-linecap="round" stroke-linejoin="round"/>
</svg>
