<svg width="24" height="24" viewBox="0 0 24 24" fill="none" xmlns="http://www.w3.org/2000/svg">
<path d="M14 12L5.619 20.38C5.42202 20.577 5.18815 20.7334 4.93076 20.84C4.67336 20.9467 4.39748 21.0016 4.11885 21.0017C3.55615 21.0018 3.01646 20.7783 2.6185 20.3805C2.22054 19.9827 1.99692 19.4431 1.99683 18.8804C1.99673 18.3177 2.22018 17.778 2.618 17.38L11 9M15 15.4999C15 15.6325 15.0527 15.7597 15.1465 15.8534C15.2402 15.9472 15.3674 15.9999 15.5 15.9999C16.3536 15.9999 17.1988 15.8318 17.9875 15.5051C18.7761 15.1785 19.4926 14.6997 20.0962 14.0961C20.6998 13.4925 21.1786 12.776 21.5052 11.9873C21.8319 11.1987 22 10.3535 22 9.4999C22 9.36729 21.9473 9.24011 21.8536 9.14634C21.7598 9.05257 21.6326 8.9999 21.5 8.9999H19.828C19.2976 8.99978 18.789 8.78899 18.414 8.4139L13.352 3.3519C13.126 3.12595 12.8196 2.99902 12.5 2.99902C12.1805 2.99902 11.874 3.12595 11.648 3.3519L9.35202 5.6479C9.12608 5.87387 8.99915 6.18034 8.99915 6.4999C8.99915 6.81945 9.12608 7.12592 9.35202 7.3519L14.414 12.4139C14.7891 12.7889 14.9999 13.2975 15 13.8279V15.4999Z" stroke="black" stroke-width="2" stroke-linecap="round" stroke-linejoin="round"/>
</svg>
