<svg width="24" height="24" viewBox="0 0 24 24" fill="none" xmlns="http://www.w3.org/2000/svg">
<path d="M10 3C8.66667 8.92593 8.66667 15.0741 10 21M14 3C15.3333 8.92593 15.3333 15.0741 14 21M3.84009 17H20.1601M3.84009 7H20.1601M16.9999 3C17.3345 3.00056 17.6637 3.08507 17.9572 3.2458C18.2507 3.40654 18.4992 3.63835 18.6799 3.92C20.1937 6.34315 20.9964 9.14284 20.9964 12C20.9964 14.8572 20.1937 17.6568 18.6799 20.08C18.4992 20.3617 18.2507 20.5935 17.9572 20.7542C17.6637 20.9149 17.3345 20.9994 16.9999 21H6.99989C6.66525 20.9994 6.3361 20.9149 6.04259 20.7542C5.74908 20.5935 5.5006 20.3617 5.31989 20.08C3.80607 17.6568 3.00342 14.8572 3.00342 12C3.00342 9.14284 3.80607 6.34315 5.31989 3.92C5.5006 3.63835 5.74908 3.40654 6.04259 3.2458C6.3361 3.08507 6.66525 3.00056 6.99989 3H16.9999Z" stroke="black" stroke-width="2" stroke-linecap="round" stroke-linejoin="round"/>
</svg>
