<svg width="24" height="24" viewBox="0 0 24 24" fill="none" xmlns="http://www.w3.org/2000/svg">
<path d="M11.771 6.10898C12.2045 5.97692 12.6658 5.96519 13.1055 6.07506C13.5452 6.18492 13.9468 6.41225 14.2673 6.73272C14.5877 7.05319 14.8151 7.45475 14.9249 7.89445C15.0348 8.33415 15.0231 8.79544 14.891 9.22898M17.852 12.1849C18.7113 10.9339 19.1057 9.42148 18.9668 7.91007C18.8279 6.39866 18.1645 4.9835 17.0916 3.90997C16.0186 2.83644 14.6038 2.17223 13.0925 2.0325C11.5812 1.89277 10.0686 2.28633 8.81702 3.14495M18.013 18.013C15.029 20.349 10.831 22 7.00002 22C6.44327 21.9992 5.89772 21.8436 5.42441 21.5504C4.9511 21.2572 4.56871 20.8381 4.32002 20.34L2.40002 16.5M18.5 6L20.69 10.5C21.1569 11.9358 21.1077 13.4896 20.551 14.893M2 2L22 22M6.35502 6.37012C6.32869 6.44635 6.30369 6.52302 6.28002 6.60012C5.18002 9.73012 5.50002 10.5001 3.10002 12.6801C2.62178 13.0722 2.27639 13.6025 2.11113 14.1984C1.94586 14.7943 1.96879 15.4267 2.17679 16.0091C2.38478 16.5915 2.76767 17.0954 3.27305 17.4518C3.77843 17.8082 4.38161 17.9997 5.00002 18.0001C8.35602 18.0001 11.993 16.7331 14.85 14.8491" stroke="black" stroke-width="2" stroke-linecap="round" stroke-linejoin="round"/>
</svg>
