<svg width="24" height="24" viewBox="0 0 24 24" fill="none" xmlns="http://www.w3.org/2000/svg">
<path d="M18.5 6L20.69 10.5C21.1092 11.7889 21.1137 13.1767 20.7029 14.4683C20.2921 15.7598 19.4867 16.8901 18.4 17.7C15.4 20.2 11 22 6.99996 22C6.44321 21.9992 5.89766 21.8436 5.42435 21.5504C4.95104 21.2572 4.56865 20.8381 4.31996 20.34L2.39996 16.5M16.4 13.7001C17.2201 13.0837 17.8828 12.282 18.3336 11.3604C18.7845 10.4388 19.0108 9.42352 18.994 8.39768C18.9773 7.37184 18.7179 6.36454 18.2372 5.45817C17.7564 4.5518 17.0679 3.7721 16.2281 3.18286C15.3882 2.59361 14.4207 2.21154 13.4048 2.06791C12.389 1.92429 11.3535 2.02317 10.3832 2.35649C9.41289 2.6898 8.53525 3.24808 7.82207 3.98565C7.1089 4.72322 6.58045 5.61913 6.27996 6.60011C5.17996 9.73011 5.49996 10.5001 3.09996 12.6801C2.62172 13.0722 2.27633 13.6025 2.11106 14.1984C1.9458 14.7943 1.96873 15.4267 2.17673 16.0091C2.38472 16.5915 2.76761 17.0954 3.27299 17.4518C3.77837 17.8082 4.38154 17.9997 4.99996 18.0001C8.99996 18.0001 13.4 16.2001 16.4 13.7001ZM14.9999 8.5C14.9999 9.88071 13.8807 11 12.4999 11C11.1192 11 9.99994 9.88071 9.99994 8.5C9.99994 7.11929 11.1192 6 12.4999 6C13.8807 6 14.9999 7.11929 14.9999 8.5Z" stroke="black" stroke-width="2" stroke-linecap="round" stroke-linejoin="round"/>
</svg>
