<svg width="24" height="24" viewBox="0 0 24 24" fill="none" xmlns="http://www.w3.org/2000/svg">
<path d="M10.2679 21C10.4435 21.304 10.696 21.5565 11 21.732C11.304 21.9075 11.6489 21.9999 11.9999 21.9999C12.351 21.9999 12.6959 21.9075 12.9999 21.732C13.3039 21.5565 13.5564 21.304 13.7319 21M15 8H21M18 5V11M20.002 14.4641C20.2296 14.767 20.4761 15.0552 20.74 15.3271C20.8704 15.4704 20.9564 15.6485 20.9874 15.8398C21.0185 16.0311 20.9933 16.2273 20.9149 16.4046C20.8365 16.5818 20.7083 16.7324 20.5459 16.8382C20.3834 16.9439 20.1938 17.0001 20 17.0001H3.99999C3.80619 17.0001 3.61655 16.9439 3.45413 16.8382C3.2917 16.7324 3.1635 16.5818 3.0851 16.4046C3.00671 16.2273 2.9815 16.0311 3.01255 15.8398C3.0436 15.6485 3.12957 15.4704 3.25999 15.3271C4.58999 13.9561 5.99999 12.4991 5.99999 8.00005C6.00011 6.97103 6.26487 5.95933 6.76885 5.06217C7.27282 4.16502 7.99906 3.41255 8.87778 2.87708C9.75651 2.34161 10.7582 2.04114 11.7865 2.00453C12.8149 1.96792 13.8354 2.19642 14.75 2.66805" stroke="black" stroke-width="2" stroke-linecap="round" stroke-linejoin="round"/>
</svg>
