<svg width="24" height="24" viewBox="0 0 24 24" fill="none" xmlns="http://www.w3.org/2000/svg">
<path d="M10.2679 21C10.4435 21.304 10.696 21.5565 11 21.732C11.304 21.9075 11.6489 21.9999 11.9999 21.9999C12.351 21.9999 12.6959 21.9075 12.9999 21.732C13.3039 21.5565 13.5564 21.304 13.7319 21M15 8H21M16.243 3.75699C15.4039 2.91773 14.3347 2.34617 13.1707 2.1146C12.0068 1.88303 10.8002 2.00185 9.7038 2.45603C8.60736 2.91022 7.67023 3.67936 7.01096 4.66619C6.35168 5.65302 5.99986 6.8132 6 7.99999C6 12.499 4.589 13.956 3.262 15.326C3.13137 15.4692 3.04516 15.6472 3.01386 15.8385C2.98256 16.0298 3.00752 16.226 3.08571 16.4034C3.1639 16.5807 3.29194 16.7315 3.45426 16.8375C3.61658 16.9434 3.80618 16.9998 4 17H20C20.1938 17.0001 20.3834 16.9438 20.5459 16.8381C20.7083 16.7324 20.8365 16.5817 20.9149 16.4045C20.9933 16.2273 21.0185 16.0311 20.9874 15.8398C20.9564 15.6485 20.8704 15.4703 20.74 15.327C19.8229 14.376 19.1165 13.2423 18.667 12" stroke="black" stroke-width="2" stroke-linecap="round" stroke-linejoin="round"/>
</svg>
