<svg width="24" height="24" viewBox="0 0 24 24" fill="none" xmlns="http://www.w3.org/2000/svg">
<path d="M12 18V22M17 18L18.956 6.53198M3 7.99995L10.82 2.38495C11.1625 2.13465 11.5758 1.99976 12 1.99976C12.4242 1.99976 12.8375 2.13465 13.18 2.38495L21 7.99995M4 18H20M6.99995 18L5.04395 6.53198M14 10C14 11.1046 13.1046 12 12 12C10.8954 12 10 11.1046 10 10C10 8.89543 10.8954 8 12 8C13.1046 8 14 8.89543 14 10Z" stroke="black" stroke-width="2" stroke-linecap="round" stroke-linejoin="round"/>
</svg>
