<svg width="24" height="24" viewBox="0 0 24 24" fill="none" xmlns="http://www.w3.org/2000/svg">
<path d="M15 21V21.5C15 21.6326 14.9473 21.7598 14.8536 21.8536C14.7598 21.9473 14.6326 22 14.5 22H5C4.46957 22 3.96086 21.7893 3.58579 21.4142C3.21071 21.0391 3 20.5304 3 20V9C3 8.46957 3.21071 7.96086 3.58579 7.58579C3.96086 7.21071 4.46957 7 5 7M3 20C3 19.4696 3.21071 18.9609 3.58579 18.5858C3.96086 18.2107 4.46957 18 5 18H5.803M9 15V4C9 3.46957 9.21071 2.96086 9.58579 2.58579C9.96086 2.21071 10.4696 2 11 2H20.5C20.6326 2 20.7598 2.05268 20.8536 2.14645C20.9473 2.24021 21 2.36739 21 2.5V16.5C21 16.6326 20.9473 16.7598 20.8536 16.8536C20.7598 16.9473 20.6326 17 20.5 17H11C10.4696 17 9.96086 16.7893 9.58579 16.4142C9.21071 16.0391 9 15.5304 9 15ZM9 15C9 14.4696 9.21071 13.9609 9.58579 13.5858C9.96086 13.2107 10.4696 13 11 13H21" stroke="black" stroke-width="2" stroke-linecap="round" stroke-linejoin="round"/>
</svg>
