<svg width="24" height="24" viewBox="0 0 24 24" fill="none" xmlns="http://www.w3.org/2000/svg">
<path d="M20 15.2V21C20 21.2652 19.8946 21.5195 19.7071 21.7071C19.5196 21.8946 19.2652 22 19 22H6.5C5.83696 22 5.20107 21.7366 4.73223 21.2677C4.26339 20.7989 4 20.163 4 19.5V4.5C4 3.83696 4.26339 3.20107 4.73223 2.73223C5.20107 2.26339 5.83696 2 6.5 2H13M4 19.5C4 18.837 4.26339 18.201 4.73223 17.7322C5.20107 17.2633 5.83696 17 6.5 17H20M17 2V8M17 8C15.8954 8 15 8.89543 15 10C15 11.1046 15.8954 12 17 12C18.1046 12 19 11.1046 19 10C19 8.89543 18.1046 8 17 8ZM17 4H19" stroke="black" stroke-width="2" stroke-linecap="round" stroke-linejoin="round"/>
</svg>
