<svg width="24" height="24" viewBox="0 0 24 24" fill="none" xmlns="http://www.w3.org/2000/svg">
<path d="M4 19.5V4.5C4 3.83696 4.26339 3.20107 4.73223 2.73223C5.20107 2.26339 5.83696 2 6.5 2H19C19.2652 2 19.5196 2.10536 19.7071 2.29289C19.8946 2.48043 20 2.73478 20 3V21C20 21.2652 19.8946 21.5196 19.7071 21.7071C19.5196 21.8946 19.2652 22 19 22H6.5C5.83696 22 5.20107 21.7366 4.73223 21.2678C4.26339 20.7989 4 20.163 4 19.5ZM4 19.5C4 18.837 4.26339 18.2011 4.73223 17.7322C5.20107 17.2634 5.83696 17 6.5 17H20M8.62008 9.7999C8.4097 9.58056 8.24594 9.32087 8.13868 9.0365C8.03142 8.75213 7.98288 8.44898 7.99599 8.14534C8.00911 7.8417 8.0836 7.54386 8.21499 7.2698C8.34637 6.99574 8.53191 6.75113 8.76042 6.55075C8.98893 6.35036 9.25567 6.19835 9.54454 6.10388C9.83341 6.00941 10.1384 5.97445 10.4412 6.0011C10.7439 6.02775 11.0382 6.11546 11.3061 6.25893C11.574 6.40241 11.8101 6.59868 12.0001 6.8359C12.191 6.60116 12.4273 6.40733 12.6948 6.26601C12.9624 6.12469 13.2557 6.03879 13.5572 6.01343C13.8587 5.98808 14.1622 6.0238 14.4496 6.11846C14.737 6.21311 15.0023 6.36476 15.2297 6.56433C15.4572 6.7639 15.642 7.00729 15.7732 7.27994C15.9044 7.55259 15.9792 7.84891 15.9933 8.15115C16.0073 8.4534 15.9602 8.75537 15.8549 9.03901C15.7495 9.32265 15.588 9.58212 15.3801 9.8019L12.7541 12.6579C12.6604 12.7658 12.5446 12.8523 12.4147 12.9115C12.2847 12.9708 12.1435 13.0015 12.0006 13.0015C11.8577 13.0015 11.7165 12.9708 11.5865 12.9115C11.4565 12.8523 11.3408 12.7658 11.2471 12.6579L8.62008 9.7999Z" stroke="black" stroke-width="2" stroke-linecap="round" stroke-linejoin="round"/>
</svg>
