<svg width="24" height="24" viewBox="0 0 24 24" fill="none" xmlns="http://www.w3.org/2000/svg">
<path d="M21 7V3H17M21 3L9.70712 14.2929M18.575 11.082C19.9989 13.867 20.371 17.0719 19.623 20.109C19.5752 20.3051 19.4774 20.4854 19.3393 20.6325C19.2012 20.7796 19.0274 20.8885 18.8347 20.9485C18.6421 21.0086 18.4372 21.0179 18.24 20.9754C18.0427 20.9329 17.8598 20.8401 17.709 20.706L14 17M6.99994 10L3.28994 6.29C3.15686 6.13897 3.06501 5.95615 3.02325 5.75922C2.98149 5.5623 2.99125 5.35793 3.05158 5.16589C3.11191 4.97384 3.22077 4.8006 3.36764 4.66293C3.5145 4.52526 3.6944 4.42781 3.88994 4.38C6.92822 3.63186 10.1344 4.00467 12.9199 5.43M9.70712 14.2929C9.89466 14.4804 10 14.7348 10 15V17C10.0004 17.2242 9.9564 17.4463 9.87059 17.6535C9.78478 17.8606 9.65884 18.0487 9.50002 18.207L6.85402 20.854C6.78409 20.9241 6.69492 20.9719 6.59781 20.9912C6.5007 21.0106 6.40003 21.0007 6.30855 20.9628C6.21708 20.9249 6.13892 20.8606 6.084 20.7783C6.02907 20.6959 5.99984 20.599 6.00002 20.5V19C6.00002 18.7348 5.89466 18.4804 5.70712 18.2929C5.51959 18.1054 5.26523 18 5.00002 18H3.50002C3.40108 18 3.30438 17.9706 3.22214 17.9156C3.1399 17.8606 3.07583 17.7824 3.03804 17.691C3.00025 17.5996 2.99043 17.499 3.00983 17.402C3.02923 17.305 3.07697 17.2159 3.14702 17.146L5.79302 14.5C5.95129 14.3412 6.13942 14.2152 6.34657 14.1294C6.55372 14.0436 6.7758 13.9996 7.00002 14H9.00002C9.26523 14 9.51959 14.1054 9.70712 14.2929Z" stroke="black" stroke-width="2" stroke-linecap="round" stroke-linejoin="round"/>
</svg>
