<svg width="24" height="24" viewBox="0 0 24 24" fill="none" xmlns="http://www.w3.org/2000/svg">
<path d="M12 9V10.258M16 3V8.46M21 9.118V5C21 4.46957 20.7893 3.96086 20.4142 3.58579C20.0391 3.21071 19.5304 3 19 3H5C4.46957 3 3.96086 3.21071 3.58579 3.58579C3.21071 3.96086 3 4.46957 3 5V19C3 19.5304 3.21071 20.0391 3.58579 20.4142C3.96086 20.7893 4.46957 21 5 21H10.75M3 15H10M3 9H15.142M8 15V21M8 3V9M22 17.5001C22 19.9991 20.25 21.2491 18.17 21.9741C18.0611 22.011 17.9428 22.0092 17.835 21.9691C15.75 21.2491 14 19.9991 14 17.4991V14.0001C14.0003 13.8676 14.0531 13.7407 14.1468 13.6471C14.2405 13.5536 14.3676 13.5011 14.5 13.5011C15.5 13.5011 16.75 12.9011 17.62 12.1411C17.7271 12.0532 17.8613 12.0051 17.9998 12.0049C18.1384 12.0047 18.2727 12.0525 18.38 12.1401C19.255 12.9051 20.5 13.5001 21.5 13.5001C21.6326 13.5001 21.7598 13.5527 21.8536 13.6465C21.9473 13.7403 22 13.8674 22 14.0001V17.5001Z" stroke="black" stroke-width="2" stroke-linecap="round" stroke-linejoin="round"/>
</svg>
