<svg width="24" height="24" viewBox="0 0 24 24" fill="none" xmlns="http://www.w3.org/2000/svg">
<path d="M7.00098 15.0849C7.22723 15.0051 7.46933 14.9808 7.70695 15.0139C7.94457 15.047 8.17079 15.1366 8.36661 15.2752C8.56244 15.4138 8.72215 15.5974 8.83236 15.8105C8.94257 16.0236 9.00005 16.26 8.99998 16.4999M22 8.5C22 10.433 20.433 12 18.5 12C16.567 12 15 10.433 15 8.5C15 6.567 16.567 5 18.5 5C20.433 5 22 6.567 22 8.5ZM13 16.5C13 19.5376 10.5376 22 7.5 22C4.46243 22 2 19.5376 2 16.5C2 13.4624 4.46243 11 7.5 11C10.5376 11 13 13.4624 13 16.5ZM10 4.5C10 5.88071 8.88071 7 7.5 7C6.11929 7 5 5.88071 5 4.5C5 3.11929 6.11929 2 7.5 2C8.88071 2 10 3.11929 10 4.5Z" stroke="black" stroke-width="2" stroke-linecap="round" stroke-linejoin="round"/>
</svg>
