<svg width="24" height="24" viewBox="0 0 24 24" fill="none" xmlns="http://www.w3.org/2000/svg">
<path d="M12 20V12M12.656 7H14C15.0609 7 16.0783 7.42143 16.8284 8.17157C17.5786 8.92172 18 9.93913 18 11V12.344M14.1201 3.88L16.0001 2M17.123 17.1229C16.4419 18.2401 15.4142 19.1041 14.1965 19.5831C12.9788 20.0621 11.6379 20.13 10.3781 19.7762C9.1183 19.4225 8.00867 18.6667 7.21827 17.6238C6.42788 16.581 6.00006 15.3084 6 13.9999V10.9999C5.99993 10.3538 6.15636 9.71736 6.45589 9.14493C6.75543 8.5725 7.18917 8.08115 7.72 7.71289M2 2L22 22M21 5C20.9988 5.98215 20.6364 6.92956 19.9817 7.66169C19.327 8.39383 18.4259 8.85951 17.45 8.97M22 13H18.656M3 21C2.99884 19.9712 3.39409 18.9816 4.10362 18.2367C4.81315 17.4918 5.78241 17.0489 6.81 17M3 5C3.00113 5.98215 3.36357 6.92956 4.01825 7.66169C4.67293 8.39383 5.57408 8.85951 6.55 8.97M6 13H2M8 2L9.88 3.88M9.71191 4.06011C10.1092 3.59162 10.6408 3.25638 11.2348 3.09971C11.8287 2.94303 12.4565 2.97247 13.0332 3.18404C13.6099 3.39562 14.1077 3.77913 14.4595 4.28275C14.8112 4.78637 14.9998 5.38583 14.9999 6.00011V7.13011" stroke="black" stroke-width="2" stroke-linecap="round" stroke-linejoin="round"/>
</svg>
