<svg width="24" height="24" viewBox="0 0 24 24" fill="none" xmlns="http://www.w3.org/2000/svg">
<path d="M10 19.655C8.83049 19.2415 7.81789 18.4757 7.10156 17.463C6.38522 16.4503 6.00038 15.2405 6 14V11C6 9.93913 6.42143 8.92172 7.17157 8.17157C7.92172 7.42143 8.93913 7 10 7H14C15.0557 6.99997 16.0686 7.41728 16.8179 8.16095C17.5672 8.90462 17.9921 9.91434 18 10.97M14.1201 3.88L16.0001 2M21 5C20.9988 5.98215 20.6364 6.92956 19.9817 7.66169C19.327 8.39383 18.4259 8.85951 17.45 8.97M3 21C2.99884 19.9712 3.39409 18.9816 4.10362 18.2367C4.81315 17.4918 5.78241 17.0489 6.81 17M3 5C3.00113 5.98215 3.36357 6.92956 4.01825 7.66169C4.67293 8.39383 5.57408 8.85951 6.55 8.97M6 13H2M8 2L9.88 3.88M9 7.13V6C9 5.20435 9.31607 4.44129 9.87868 3.87868C10.4413 3.31607 11.2044 3 12 3C12.7956 3 13.5587 3.31607 14.1213 3.87868C14.6839 4.44129 15 5.20435 15 6V7.13M14 15.003C13.9995 14.8256 14.0462 14.6511 14.1353 14.4977C14.2245 14.3442 14.3528 14.2173 14.5073 14.1298C14.6617 14.0424 14.8366 13.9976 15.0141 14.0001C15.1915 14.0026 15.3651 14.0523 15.517 14.144L20.514 17.141C20.6628 17.2297 20.786 17.3555 20.8715 17.506C20.9571 17.6566 21.002 17.8268 21.002 18C21.002 18.1732 20.9571 18.3434 20.8715 18.494C20.786 18.6446 20.6628 18.7704 20.514 18.859L15.517 21.856C15.365 21.9478 15.1913 21.9975 15.0138 21.9999C14.8363 22.0024 14.6613 21.9575 14.5068 21.87C14.3524 21.7824 14.224 21.6553 14.1349 21.5017C14.0459 21.3481 13.9993 21.1736 14 20.996V15.003Z" stroke="black" stroke-width="2" stroke-linecap="round" stroke-linejoin="round"/>
</svg>
