<svg width="24" height="24" viewBox="0 0 24 24" fill="none" xmlns="http://www.w3.org/2000/svg">
<path d="M16 13H3M16 17H3M7.2 7.90011L3.812 10.4001C3.56004 10.5862 3.3553 10.8288 3.21426 11.1084C3.07322 11.3881 2.99983 11.6969 3 12.0101V20.0001C3 20.2653 3.10536 20.5197 3.29289 20.7072C3.48043 20.8948 3.73478 21.0001 4 21.0001H20C20.2652 21.0001 20.5196 20.8948 20.7071 20.7072C20.8946 20.5197 21 20.2653 21 20.0001V11.3461C21 9.34611 18.56 5.32011 14.56 3.32011C14.3932 3.22465 14.2025 3.17926 14.0106 3.18937C13.8187 3.19948 13.6338 3.26466 13.478 3.37711L10.4 5.60011M11 7C11 8.10457 10.1046 9 9 9C7.89543 9 7 8.10457 7 7C7 5.89543 7.89543 5 9 5C10.1046 5 11 5.89543 11 7Z" stroke="black" stroke-width="2" stroke-linecap="round" stroke-linejoin="round"/>
</svg>
