<svg width="24" height="24" viewBox="0 0 24 24" fill="none" xmlns="http://www.w3.org/2000/svg">
<path d="M12 2V4M15.726 21.01C15.5497 21.3113 15.2977 21.5612 14.9949 21.7349C14.6921 21.9086 14.3491 22 14 22H4C3.46957 22 2.96086 21.7893 2.58579 21.4142C2.21071 21.0391 2 20.5304 2 20V10C2 9.46957 2.21071 8.96086 2.58579 8.58579C2.96086 8.21071 3.46957 8 4 8M18 2V4M2 13H4M8 8H22M10 3H20C21.1046 3 22 3.89543 22 5V15C22 16.1046 21.1046 17 20 17H10C8.89543 17 8 16.1046 8 15V5C8 3.89543 8.89543 3 10 3Z" stroke="black" stroke-width="2" stroke-linecap="round" stroke-linejoin="round"/>
</svg>
