<svg width="24" height="24" viewBox="0 0 24 24" fill="none" xmlns="http://www.w3.org/2000/svg">
<path d="M12.127 22H5C4.46957 22 3.96086 21.7893 3.58579 21.4142C3.21071 21.0391 3 20.5304 3 20V6C3 5.46957 3.21071 4.96086 3.58579 4.58579C3.96086 4.21071 4.46957 4 5 4H19C19.5304 4 20.0391 4.21071 20.4142 4.58579C20.7893 4.96086 21 5.46957 21 6V11.125M16 2V6M3 10H21M8 2V6M14.62 18.7999C14.4096 18.5806 14.2458 18.3209 14.1386 18.0365C14.0313 17.7521 13.9828 17.449 13.9959 17.1453C14.009 16.8417 14.0835 16.5439 14.2149 16.2698C14.3462 15.9957 14.5318 15.7511 14.7603 15.5507C14.9888 15.3504 15.2555 15.1983 15.5444 15.1039C15.8333 15.0094 16.1383 14.9744 16.4411 15.0011C16.7438 15.0277 17.038 15.1155 17.306 15.2589C17.5739 15.4024 17.81 15.5987 18 15.8359C18.1909 15.6012 18.4272 15.4073 18.6947 15.266C18.9622 15.1247 19.2555 15.0388 19.557 15.0134C19.8586 14.9881 20.1621 15.0238 20.4495 15.1185C20.7369 15.2131 21.0022 15.3648 21.2296 15.5643C21.457 15.7639 21.6419 16.0073 21.7731 16.2799C21.9043 16.5526 21.9791 16.8489 21.9932 17.1512C22.0072 17.4534 21.9601 17.7554 21.8548 18.039C21.7494 18.3226 21.5879 18.5821 21.38 18.8019L18.754 21.6579C18.6603 21.7658 18.5445 21.8523 18.4145 21.9115C18.2845 21.9708 18.1433 22.0015 18.0005 22.0015C17.8576 22.0015 17.7164 21.9708 17.5864 21.9115C17.4564 21.8523 17.3406 21.7658 17.247 21.6579L14.62 18.7999Z" stroke="black" stroke-width="2" stroke-linecap="round" stroke-linejoin="round"/>
</svg>
