<svg width="24" height="24" viewBox="0 0 24 24" fill="none" xmlns="http://www.w3.org/2000/svg">
<path d="M14.564 14.558C14.3281 14.9465 14.007 15.2763 13.6249 15.5226C13.2428 15.7688 12.8098 15.925 12.3586 15.9793C11.9073 16.0337 11.4496 15.9848 11.02 15.8364C10.5904 15.6879 10.2001 15.4438 9.87869 15.1224C9.55726 14.8011 9.31304 14.4109 9.16449 13.9813C9.01595 13.5518 8.96695 13.0941 9.0212 12.6428C9.07546 12.1915 9.23155 11.7585 9.47768 11.3763C9.72381 10.9942 10.0535 10.673 10.442 10.437M2 2L22 22M20 20H4C3.46957 20 2.96086 19.7892 2.58579 19.4142C2.21071 19.0391 2 18.5304 2 18V8.99995C2 8.46952 2.21071 7.96081 2.58579 7.58574C2.96086 7.21066 3.46957 6.99995 4 6.99995H5.997C6.27929 7.00007 6.55841 6.94043 6.816 6.82495M9.69495 4.024C9.79717 4.00802 9.90048 4 10.0039 4H13.9969C14.3577 3.99999 14.7118 4.09759 15.0217 4.28244C15.3315 4.46729 15.5856 4.73251 15.7569 5.05L16.2429 5.95C16.4143 6.26749 16.6684 6.53271 16.9782 6.71756C17.2881 6.90241 17.6422 7.00001 18.0029 7H19.9999C20.5304 7 21.0391 7.21071 21.4142 7.58579C21.7892 7.96086 21.9999 8.46957 21.9999 9V16.344" stroke="black" stroke-width="2" stroke-linecap="round" stroke-linejoin="round"/>
</svg>
