<svg width="24" height="24" viewBox="0 0 24 24" fill="none" xmlns="http://www.w3.org/2000/svg">
<path d="M10 10V17.9M11.802 6.14512C12.6379 5.93867 13.5129 5.95158 14.3424 6.1826C15.1718 6.41361 15.9276 6.85491 16.5364 7.46373C17.1452 8.07256 17.5865 8.82829 17.8175 9.65774C18.0485 10.4872 18.0614 11.3622 17.855 12.1981M14 6.1001V8.3431M15.4999 15.571L14.5359 16.535C13.5982 17.4727 12.3265 17.9994 11.0004 17.9994C9.67434 17.9994 8.40259 17.4727 7.46491 16.535C6.52755 15.5974 6.00098 14.3258 6.00098 13C6.00098 11.6742 6.52755 10.4026 7.46491 9.465L8.42891 8.5M16 7.00003V3.00003C16 2.80228 16.0587 2.60898 16.1686 2.44457C16.2785 2.28016 16.4346 2.15202 16.6173 2.07635C16.8 2.00068 17.0011 1.98088 17.195 2.01945C17.389 2.05802 17.5671 2.15322 17.707 2.29303C17.9838 2.57375 18.323 2.78504 18.697 2.90964C19.071 3.03425 19.4692 3.06865 19.859 3.01003C20.0126 2.98815 20.1692 3.00233 20.3164 3.05143C20.4636 3.10053 20.5974 3.18321 20.7071 3.29294C20.8168 3.40266 20.8995 3.53641 20.9486 3.68361C20.9977 3.8308 21.0119 3.98741 20.99 4.14103C20.9314 4.53086 20.9658 4.92903 21.0904 5.30303C21.215 5.67703 21.4263 6.01626 21.707 6.29303C21.8468 6.43288 21.942 6.61105 21.9806 6.805C22.0192 6.99895 21.9993 7.19999 21.9237 7.38269C21.848 7.56539 21.7199 7.72155 21.5555 7.83143C21.391 7.94132 21.1978 7.99999 21 8.00003H17M2 2L22 22M8.00003 17V21C7.99999 21.1978 7.94132 21.391 7.83143 21.5555C7.72155 21.7199 7.56539 21.848 7.38269 21.9237C7.19999 21.9993 6.99895 22.0192 6.805 21.9806C6.61105 21.942 6.43288 21.8468 6.29303 21.707C6.01626 21.4263 5.67703 21.215 5.30303 21.0904C4.92903 20.9658 4.53086 20.9314 4.14103 20.99C3.98741 21.0119 3.8308 20.9977 3.68361 20.9486C3.53641 20.8995 3.40266 20.8168 3.29294 20.7071C3.18321 20.5974 3.10053 20.4636 3.05143 20.3164C3.00233 20.1692 2.98815 20.0126 3.01003 19.859C3.06865 19.4692 3.03425 19.071 2.90964 18.697C2.78504 18.323 2.57375 17.9838 2.29303 17.707C2.15322 17.5671 2.05802 17.389 2.01945 17.195C1.98088 17.0011 2.00068 16.8 2.07635 16.6173C2.15202 16.4346 2.28016 16.2785 2.44457 16.1686C2.60898 16.0587 2.80228 16 3.00003 16H7.00003" stroke="black" stroke-width="2" stroke-linecap="round" stroke-linejoin="round"/>
</svg>
