<svg width="24" height="24" viewBox="0 0 24 24" fill="none" xmlns="http://www.w3.org/2000/svg">
<path d="M12 22V18M6.995 6.992C5.714 6.4 4.29 6 3 6C3 8 5.5 11 7 12C5.5 12 2.5 13.5 2 15C5.5 16.5 8 16 8 16C6.5 17.5 6 19.5 6 21C8.5 21 10.5 19.5 12 18C13.5 19.5 15.5 21 18 21C18 19.5 17.5 17.5 16 16M13.9879 8.327C13.9019 6.054 13.3649 3.82 11.9999 2C11.3523 2.87467 10.8632 3.85623 10.5549 4.9M17.3749 11.725C18.8819 10.53 20.9999 7.841 20.9999 6C18.6759 6 15.9199 7.296 14.3379 8.684M2 2L22 22M21.024 15.378C21.3536 15.2634 21.6792 15.1373 22 15C21.574 13.721 19.33 12.443 17.75 12.093" stroke="black" stroke-width="2" stroke-linecap="round" stroke-linejoin="round"/>
</svg>
