<svg width="24" height="24" viewBox="0 0 24 24" fill="none" xmlns="http://www.w3.org/2000/svg">
<path d="M12 14V18M8 14H16M14.172 2C14.7024 2.00011 15.211 2.2109 15.586 2.586L19.414 6.414C19.7891 6.78899 19.9999 7.29761 20 7.828V20C20 20.5304 19.7893 21.0391 19.4142 21.4142C19.0391 21.7893 18.5304 22 18 22H6C5.46957 22 4.96086 21.7893 4.58579 21.4142C4.21071 21.0391 4 20.5304 4 20V4C4 3.46957 4.21071 2.96086 4.58579 2.58579C4.96086 2.21071 5.46957 2 6 2H14.172ZM9 10H15C15.5523 10 16 10.4477 16 11V17C16 17.5523 15.5523 18 15 18H9C8.44772 18 8 17.5523 8 17V11C8 10.4477 8.44772 10 9 10Z" stroke="black" stroke-width="2" stroke-linecap="round" stroke-linejoin="round"/>
</svg>
