<svg width="24" height="24" viewBox="0 0 24 24" fill="none" xmlns="http://www.w3.org/2000/svg">
<path d="M12.3091 6.6521L17.1061 9.0531C17.3431 9.17175 17.5233 9.37964 17.6071 9.63109C17.6909 9.88254 17.6715 10.157 17.5531 10.3941L17.0521 11.3951L17.6571 12.0001H20.3821C20.5525 12.0002 20.72 12.0438 20.8688 12.1268C21.0176 12.2099 21.1427 12.3295 21.2323 12.4745C21.3218 12.6195 21.3729 12.7849 21.3805 12.9551C21.3882 13.1253 21.3522 13.2947 21.2761 13.4471L20.5521 14.8951M15.1661 15.166L14.4471 16.605C14.3883 16.7225 14.307 16.8272 14.2078 16.9133C14.1085 16.9993 13.9933 17.065 13.8687 17.1065C13.7441 17.148 13.6125 17.1646 13.4815 17.1552C13.3504 17.1459 13.2225 17.1108 13.1051 17.052L3.61008 12.3C2.92042 11.9526 2.39644 11.3462 2.1528 10.6134C1.90917 9.88062 1.96572 9.08117 2.31008 8.38999L3.69008 5.59999C3.89507 5.19021 4.19425 4.83484 4.56308 4.56299M2 19H5.76C6.13273 19.0026 6.49877 18.901 6.81682 18.7067C7.13487 18.5123 7.39228 18.2329 7.56 17.9L9.001 14.998M2 2L22 22M2 21V17M7 9H7.01" stroke="black" stroke-width="2" stroke-linecap="round" stroke-linejoin="round"/>
</svg>
