<svg width="24" height="24" viewBox="0 0 24 24" fill="none" xmlns="http://www.w3.org/2000/svg">
<path d="M7 18C6.46957 18 5.96086 18.2107 5.58579 18.5858C5.21071 18.9609 5 19.4696 5 20V21C5 21.2652 5.10536 21.5196 5.29289 21.7071C5.48043 21.8946 5.73478 22 6 22H18C18.2652 22 18.5196 21.8946 18.7071 21.7071C18.8946 21.5196 19 21.2652 19 21V20C19 19.4696 18.7893 18.9609 18.4142 18.5858C18.0391 18.2107 17.5304 18 17 18H7ZM7 18L9.713 12.1851M16.4999 18C17.4999 16 18.9999 13 18.9999 9C18.9999 7.14348 18.2624 5.36301 16.9496 4.05025C15.6369 2.7375 13.8564 2 11.9999 2H6.63489C6.44488 2.00007 6.25882 2.05428 6.0985 2.15627C5.93818 2.25827 5.81024 2.40383 5.72965 2.57591C5.64907 2.74799 5.61918 2.93946 5.64348 3.12792C5.66779 3.31637 5.74529 3.494 5.86689 3.64L6.99989 5L4.67989 10.802C4.49428 11.2656 4.48883 11.7819 4.66463 12.2494C4.84043 12.7168 5.18476 13.1016 5.62989 13.328L8.49989 14.784M15 4.99995L16.425 3.57495M17 7.99997L18.53 6.46997" stroke="black" stroke-width="2" stroke-linecap="round" stroke-linejoin="round"/>
</svg>
