<svg width="24" height="24" viewBox="0 0 24 24" fill="none" xmlns="http://www.w3.org/2000/svg">
<path d="M12.4741 5.94312L14.0411 11.2831C14.0934 11.4597 14.1933 11.6184 14.33 11.7418C14.4667 11.8651 14.6348 11.9484 14.8158 11.9823C14.9968 12.0162 15.1836 11.9995 15.3557 11.934C15.5278 11.8685 15.6785 11.7568 15.7911 11.6111L18.4071 8.20912M20 9L17 18M20 9C21.1046 9 22 8.10457 22 7C22 5.89543 21.1046 5 20 5C18.8954 5 18 5.89543 18 7C18 8.10457 18.8954 9 20 9ZM5.59399 8.20912L8.20899 11.6121C8.3217 11.7578 8.47244 11.8695 8.6446 11.9349C8.81675 12.0003 9.00363 12.0169 9.18463 11.9829C9.36563 11.9489 9.53372 11.8655 9.67035 11.7421C9.80699 11.6186 9.90688 11.4598 9.95899 11.2831L11.526 5.94312M7 18L4 9M4 9C5.10457 9 6 8.10457 6 7C6 5.89543 5.10457 5 4 5C2.89543 5 2 5.89543 2 7C2 8.10457 2.89543 9 4 9ZM4 20C4 19.4696 4.21071 18.9609 4.58579 18.5858C4.96086 18.2107 5.46957 18 6 18H18C18.5304 18 19.0391 18.2107 19.4142 18.5858C19.7893 18.9609 20 19.4696 20 20V21C20 21.2652 19.8946 21.5196 19.7071 21.7071C19.5196 21.8946 19.2652 22 19 22H5C4.73478 22 4.48043 21.8946 4.29289 21.7071C4.10536 21.5196 4 21.2652 4 21V20ZM14 4C14 5.10457 13.1046 6 12 6C10.8954 6 10 5.10457 10 4C10 2.89543 10.8954 2 12 2C13.1046 2 14 2.89543 14 4Z" stroke="black" stroke-width="2" stroke-linecap="round" stroke-linejoin="round"/>
</svg>
