<svg width="24" height="24" viewBox="0 0 24 24" fill="none" xmlns="http://www.w3.org/2000/svg">
<path d="M12.656 7H13C13.4198 7.00004 13.835 7.08819 14.2186 7.25877C14.6022 7.42934 14.9458 7.67854 15.2271 7.99024C15.5083 8.30194 15.721 8.66921 15.8514 9.06829C15.9818 9.46736 16.027 9.88937 15.984 10.307M13 13H9M19.0709 19.0709C17.1957 20.9461 14.6524 21.9996 12.0004 21.9996C9.34847 21.9996 6.80513 20.9461 4.92992 19.0709C3.0547 17.1957 2.00122 14.6524 2.00122 12.0004C2.00122 9.34848 3.0547 6.80514 4.92992 4.92993M2 2L22 22M8.35693 2.68706C10.1674 1.97876 12.1451 1.81356 14.0481 2.21169C15.951 2.60981 17.6966 3.55399 19.0713 4.92869C20.446 6.30339 21.3902 8.049 21.7883 9.95193C22.1864 11.8548 22.0212 13.8326 21.3129 15.6431M9 17V9" stroke="black" stroke-width="2" stroke-linecap="round" stroke-linejoin="round"/>
</svg>
