<svg width="24" height="24" viewBox="0 0 24 24" fill="none" xmlns="http://www.w3.org/2000/svg">
<path d="M15.6001 2.69996C13.4612 1.86904 11.1017 1.79892 8.91737 2.50138C6.733 3.20383 4.85664 4.63611 3.60306 6.55796C2.34949 8.4798 1.79496 10.7743 2.03251 13.0565C2.27005 15.3387 3.28522 17.4698 4.90771 19.0923C6.5302 20.7148 8.6613 21.73 10.9435 21.9675C13.2257 22.2051 15.5202 21.6505 17.4421 20.397C19.3639 19.1434 20.7962 17.267 21.4986 15.0826C22.2011 12.8983 22.131 10.5388 21.3001 8.39996M13.4 10.6L19 5M14 12C14 13.1046 13.1046 14 12 14C10.8954 14 10 13.1046 10 12C10 10.8954 10.8954 10 12 10C13.1046 10 14 10.8954 14 12Z" stroke="black" stroke-width="2" stroke-linecap="round" stroke-linejoin="round"/>
</svg>
