<svg width="24" height="24" viewBox="0 0 24 24" fill="none" xmlns="http://www.w3.org/2000/svg">
<g clip-path="url(#clip0_1036_12948)">
<path d="M10.1 2.18005C11.3548 1.93543 12.6451 1.93543 13.9 2.18005M17.6 3.70996C18.6622 4.42822 19.5757 5.34503 20.29 6.40996M21.8199 10.1001C22.0646 11.355 22.0646 12.6452 21.8199 13.9001M20.29 17.6001C19.5717 18.6624 18.6549 19.5758 17.59 20.2901M13.9 21.8201C12.6451 22.0644 11.3549 22.0644 10.1 21.8201M6.39996 20.2901C5.33769 19.5718 4.42427 18.655 3.70996 17.5901M2.18005 13.9001C1.93543 12.6452 1.93543 11.355 2.18005 10.1001M3.70996 6.39996C4.42822 5.33769 5.34503 4.42427 6.40996 3.70996M13 12C13 12.5523 12.5523 13 12 13C11.4477 13 11 12.5523 11 12C11 11.4477 11.4477 11 12 11C12.5523 11 13 11.4477 13 12Z" stroke="black" stroke-width="2" stroke-linecap="round" stroke-linejoin="round"/>
</g>
<defs>
<clipPath id="clip0_1036_12948">
<rect width="24" height="24" fill="white"/>
</clipPath>
</defs>
</svg>
