<svg width="24" height="24" viewBox="0 0 24 24" fill="none" xmlns="http://www.w3.org/2000/svg">
<path d="M12 22C17.5228 22 22 17.5228 22 12C22 6.47715 17.5228 2 12 2C6.47715 2 2 6.47715 2 12C2 17.5228 6.47715 22 12 22Z" stroke="black" stroke-width="2" stroke-linecap="round" stroke-linejoin="round"/>
<path d="M11.051 7.61608C11.1171 7.41342 11.2462 7.23717 11.4194 7.11305C11.5927 6.98892 11.8012 6.92342 12.0143 6.9261C12.2275 6.92878 12.4342 6.9995 12.6043 7.12794C12.7744 7.25638 12.899 7.43582 12.96 7.64008L13.697 9.09208C13.7687 9.23323 13.8729 9.35534 14.001 9.44835C14.1292 9.54136 14.2776 9.60262 14.434 9.62708L16.068 9.88308C16.2784 9.8839 16.4832 9.95107 16.6532 10.075C16.8232 10.199 16.9498 10.3734 17.015 10.5735C17.0801 10.7736 17.0805 10.9891 17.016 11.1894C16.9516 11.3897 16.8256 11.5645 16.656 11.6891L15.484 12.8571C15.3718 12.9688 15.2877 13.1056 15.2387 13.2561C15.1896 13.4067 15.1771 13.5667 15.202 13.7231L15.461 15.3361C15.5322 15.5382 15.5366 15.758 15.4735 15.9628C15.4104 16.1677 15.2832 16.3469 15.1105 16.4739C14.9379 16.601 14.729 16.6692 14.5146 16.6685C14.3003 16.6678 14.0918 16.5982 13.92 16.4701L12.455 15.7201C12.3139 15.6478 12.1576 15.6101 11.999 15.6101C11.8404 15.6101 11.6841 15.6478 11.543 15.7201L10.078 16.4701C9.90617 16.5972 9.69815 16.6659 9.48443 16.6661C9.27072 16.6664 9.06255 16.5981 8.89044 16.4714C8.71833 16.3447 8.59135 16.1662 8.5281 15.9621C8.46485 15.7579 8.46866 15.5389 8.53898 15.3371L8.79698 13.7241C8.82206 13.5676 8.80957 13.4073 8.76054 13.2566C8.71151 13.1058 8.62734 12.9689 8.51498 12.8571L7.35898 11.7051C7.18364 11.5836 7.05174 11.4092 6.98254 11.2075C6.91335 11.0057 6.91049 10.7871 6.97438 10.5835C7.03827 10.38 7.16557 10.2023 7.33767 10.0763C7.50978 9.95023 7.71767 9.88254 7.93098 9.88308L9.56398 9.62708C9.72041 9.60262 9.86879 9.54136 9.99692 9.44835C10.1251 9.35534 10.2293 9.23323 10.301 9.09208L11.051 7.61608Z" stroke="black" stroke-width="2" stroke-linecap="round" stroke-linejoin="round"/>
</svg>
