<svg width="24" height="24" viewBox="0 0 24 24" fill="none" xmlns="http://www.w3.org/2000/svg">
<path d="M16 4H18C18.5304 4 19.0391 4.21071 19.4142 4.58579C19.7893 4.96086 20 5.46957 20 6V8M8 22H6C5.46957 22 4.96086 21.7893 4.58579 21.4142C4.21071 21.0391 4 20.5304 4 20V6C4 5.46957 4.21071 4.96086 4.58579 4.58579C4.96086 4.21071 5.46957 4 6 4H8M21.34 15.664C21.5373 15.4667 21.6937 15.2326 21.8005 14.9749C21.9072 14.7172 21.9622 14.4409 21.9622 14.162C21.9622 13.883 21.9072 13.6068 21.8005 13.3491C21.6937 13.0914 21.5373 12.8572 21.34 12.66C21.1428 12.4627 20.9086 12.3063 20.6509 12.1995C20.3932 12.0928 20.117 12.0378 19.838 12.0378C19.5591 12.0378 19.2829 12.0928 19.0251 12.1995C18.7674 12.3063 18.5333 12.4627 18.336 12.66L13.326 17.672C13.0883 17.9096 12.9142 18.2033 12.82 18.526L11.983 21.396C11.9579 21.482 11.9564 21.5733 11.9787 21.6601C12.0009 21.7469 12.0461 21.8262 12.1095 21.8895C12.1728 21.9529 12.2521 21.9981 12.3389 22.0203C12.4258 22.0426 12.517 22.0411 12.603 22.016L15.473 21.179C15.7957 21.0848 16.0894 20.9107 16.327 20.673L21.34 15.664ZM9 2H15C15.5523 2 16 2.44772 16 3V5C16 5.55228 15.5523 6 15 6H9C8.44772 6 8 5.55228 8 5V3C8 2.44772 8.44772 2 9 2Z" stroke="black" stroke-width="2" stroke-linecap="round" stroke-linejoin="round"/>
</svg>
