<svg width="24" height="24" viewBox="0 0 24 24" fill="none" xmlns="http://www.w3.org/2000/svg">
<path d="M11.9999 6V12L13.9999 13M12.3369 21.9941C10.2935 22.0629 8.27805 21.5036 6.56224 20.3917C4.84642 19.2799 3.51267 17.6687 2.74069 15.7755C1.96871 13.8822 1.79561 11.7979 2.24472 9.8032C2.69383 7.80855 3.74355 5.99949 5.25245 4.61979C6.76135 3.2401 8.6569 2.35608 10.6837 2.08684C12.7105 1.81761 14.7711 2.17611 16.5878 3.11403C18.4046 4.05196 19.8902 5.52423 20.8445 7.33246C21.7988 9.14069 22.1758 11.198 21.9249 13.2271M21.9999 18L17.9999 22L13.9999 18M17.9999 22V14" stroke="black" stroke-width="2" stroke-linecap="round" stroke-linejoin="round"/>
</svg>
