<svg width="24" height="24" viewBox="0 0 24 24" fill="none" xmlns="http://www.w3.org/2000/svg">
<path d="M11.9999 6V12L13.5599 12.78M13.2269 21.9249C11.1977 22.1758 9.14044 21.7988 7.33221 20.8445C5.52398 19.8902 4.05171 18.4046 3.11379 16.5878C2.17587 14.7711 1.81737 12.7105 2.0866 10.6837C2.35583 8.6569 3.23986 6.76135 4.61955 5.25245C5.99925 3.74355 7.8083 2.69383 9.80296 2.24472C11.7976 1.79561 13.882 1.96871 15.7752 2.74069C17.6685 3.51267 19.2796 4.84642 20.3915 6.56224C21.5034 8.27805 22.0626 10.2935 21.9939 12.3369M21.9999 18L17.9999 14L13.9999 18M17.9999 14V22" stroke="black" stroke-width="2" stroke-linecap="round" stroke-linejoin="round"/>
</svg>
