<svg width="24" height="24" viewBox="0 0 24 24" fill="none" xmlns="http://www.w3.org/2000/svg">
<path d="M9.99993 9.17C9.54757 9.01087 9.06364 8.96249 8.58873 9.02894C8.11381 9.09538 7.66174 9.2747 7.27041 9.55188C6.87909 9.82905 6.55991 10.196 6.33963 10.6219C6.11935 11.0479 6.00439 11.5205 6.00439 12C6.00439 12.4795 6.11935 12.9521 6.33963 13.3781C6.55991 13.804 6.87909 14.171 7.27041 14.4481C7.66174 14.7253 8.11381 14.9046 8.58873 14.9711C9.06364 15.0375 9.54757 14.9891 9.99993 14.83M16.9999 9.17C16.5476 9.01087 16.0636 8.96249 15.5887 9.02894C15.1138 9.09538 14.6617 9.2747 14.2704 9.55188C13.8791 9.82905 13.5599 10.196 13.3396 10.6219C13.1194 11.0479 13.0044 11.5205 13.0044 12C13.0044 12.4795 13.1194 12.9521 13.3396 13.3781C13.5599 13.804 13.8791 14.171 14.2704 14.4481C14.6617 14.7253 15.1138 14.9046 15.5887 14.9711C16.0636 15.0375 16.5476 14.9891 16.9999 14.83M4 5H20C21.1046 5 22 5.89543 22 7V17C22 18.1046 21.1046 19 20 19H4C2.89543 19 2 18.1046 2 17V7C2 5.89543 2.89543 5 4 5Z" stroke="black" stroke-width="2" stroke-linecap="round" stroke-linejoin="round"/>
</svg>
