<svg width="24" height="24" viewBox="0 0 24 24" fill="none" xmlns="http://www.w3.org/2000/svg">
<path d="M21 15.2509C21.5111 14.5894 21.8279 13.7985 21.9147 12.967C22.0016 12.1355 21.8551 11.2963 21.4917 10.5434C21.1283 9.79048 20.5623 9.1537 19.8572 8.70445C19.1522 8.2552 18.3359 8.01125 17.5 7.99994H15.71C15.4251 7.04911 14.9413 6.16973 14.2906 5.42016C13.64 4.67058 12.8374 4.06795 11.936 3.65225C11.0347 3.23656 10.0552 3.0173 9.0627 3.00903C8.07016 3.00076 7.0872 3.20367 6.17906 3.6043C5.27092 4.00492 4.45837 4.5941 3.79532 5.33273C3.13227 6.07136 2.63388 6.94256 2.33323 7.88851C2.03258 8.83447 1.93655 9.83354 2.05149 10.8194C2.16644 11.8053 2.48975 12.7555 2.99995 13.6069M11 15H7V11M7 15L9.09 12.91C9.53793 12.4625 10.0696 12.1077 10.6547 11.8658C11.2398 11.6238 11.8669 11.4995 12.5 11.5C13.6935 11.5 14.8381 11.9741 15.682 12.818C16.5259 13.6619 17 14.8065 17 16C17 17.0494 16.6698 18.0722 16.0562 18.9236C15.4426 19.7749 14.5767 20.4116 13.5811 20.7434C12.5856 21.0753 11.5108 21.0855 10.5092 20.7726C9.50748 20.4597 8.62965 19.8395 8 19" stroke="black" stroke-width="2" stroke-linecap="round" stroke-linejoin="round"/>
</svg>
