<svg width="24" height="24" viewBox="0 0 24 24" fill="none" xmlns="http://www.w3.org/2000/svg">
<path d="M18.376 14.5121C19.2346 14.1415 19.9947 13.5753 20.5956 12.8588C21.1966 12.1422 21.6217 11.2951 21.837 10.3851C21.985 9.76009 21.178 9.41509 20.589 9.67109C19.8531 9.98941 19.0385 10.0792 18.251 9.9289C17.4634 9.77856 16.7392 9.39501 16.1723 8.828C15.6054 8.26099 15.222 7.5367 15.0718 6.74909C14.9216 5.96149 15.0116 5.14693 15.33 4.41109C15.585 3.82209 15.24 3.01609 14.614 3.16309C13.38 3.45628 12.2707 4.13296 11.4453 5.09598C10.6199 6.05899 10.121 7.25879 10.02 8.52309M13 16C13.7956 16 14.5587 16.3161 15.1213 16.8787C15.6839 17.4413 16 18.2044 16 19C16 19.7957 15.6839 20.5587 15.1213 21.1213C14.5587 21.6839 13.7956 22 13 22H6.99996C6.05393 21.9998 5.12737 21.7312 4.32788 21.2255C3.5284 20.7197 2.8888 19.9975 2.48339 19.1427C2.07797 18.288 1.92336 17.3358 2.03752 16.3966C2.15168 15.4575 2.52992 14.5701 3.12832 13.8373C3.72672 13.1046 4.52071 12.5567 5.41808 12.2572C6.31545 11.9577 7.27938 11.9189 8.1979 12.1454C9.11642 12.3718 9.95185 12.8542 10.6072 13.5366C11.2625 14.2189 11.7108 15.0731 11.9 16H13Z" stroke="black" stroke-width="2" stroke-linecap="round" stroke-linejoin="round"/>
</svg>
