<svg width="24" height="24" viewBox="0 0 24 24" fill="none" xmlns="http://www.w3.org/2000/svg">
<path d="M10.9399 5.27393C12.0674 5.59878 13.0951 6.20184 13.9286 7.02765C14.7621 7.85346 15.3746 8.87553 15.7099 9.99993H17.4999C18.225 9.99993 18.9393 10.1751 19.582 10.5106C20.2248 10.8461 20.7769 11.3319 21.1915 11.9267C21.6061 12.5215 21.8709 13.2076 21.9632 13.9268C22.0556 14.6459 21.9728 15.3767 21.7219 16.0569M18.7961 18.81C18.3756 18.9362 17.939 19.0002 17.5001 19H9.00006C7.43103 18.9998 5.90758 18.4724 4.67422 17.5025C3.44086 16.5326 2.56911 15.1765 2.19888 13.6517C1.82866 12.127 1.98143 10.5221 2.63267 9.09461C3.28391 7.66711 4.39586 6.4998 5.79006 5.78003M2 2L22 22" stroke="black" stroke-width="2" stroke-linecap="round" stroke-linejoin="round"/>
</svg>
