<svg width="24" height="24" viewBox="0 0 24 24" fill="none" xmlns="http://www.w3.org/2000/svg">
<path d="M10.852 19.772L10.469 20.696M10.852 19.772C11.5871 20.0765 12.4128 20.0764 13.148 19.7719M10.852 19.772C10.1169 19.4674 9.53254 18.8832 9.22807 18.148M13.1479 14.2279L13.5309 13.3049M13.1479 14.2279C13.512 14.3787 13.8431 14.5999 14.1217 14.8785C14.4003 15.1571 14.6212 15.4879 14.772 15.8519M9.22821 15.8517C9.53277 15.1165 10.1168 14.5324 10.852 14.2279C11.216 14.0772 11.6062 13.9996 12.0002 13.9996C12.3942 13.9996 12.7839 14.0771 13.1479 14.2279M13.148 19.7719C13.512 19.6212 13.8428 19.4002 14.1214 19.1216C14.4 18.843 14.6211 18.5123 14.7719 18.1483M13.148 19.7719L13.5301 20.696M14.7719 18.1483C14.9227 17.7843 15.0003 17.3941 15.0003 17.0001C15.0003 16.6061 14.9228 16.216 14.772 15.8519M14.7719 18.1483L15.695 18.5309M14.772 15.8519L15.695 15.469M10.852 14.2279L10.469 13.3049M9.22807 18.148C8.9236 17.4128 8.92365 16.5868 9.22821 15.8517M9.22807 18.148L8.30493 18.5309M9.22821 15.8517L8.30493 15.469M4.20002 15.1001C3.51694 14.4561 2.97035 13.6814 2.5928 12.8219C2.21524 11.9624 2.01442 11.0357 2.00229 10.097C1.99016 9.15836 2.16697 8.22682 2.52219 7.35786C2.87741 6.48889 3.40379 5.70026 4.07 5.03887C4.73622 4.37748 5.52867 3.85685 6.40019 3.50797C7.27172 3.15908 8.20452 2.98906 9.14309 3.00802C10.0817 3.02698 11.0068 3.23454 11.8636 3.61834C12.7203 4.00214 13.4911 4.55434 14.13 5.2421C14.8612 6.02812 15.4018 6.97177 15.71 8.0001H17.5C18.4539 8.01296 19.379 8.32862 20.1418 8.90151C20.9046 9.4744 21.4656 10.2749 21.7438 11.1874C22.022 12.0999 22.003 13.0772 21.6896 13.9782C21.3761 14.8792 20.7845 15.6573 20 16.2001" stroke="black" stroke-width="2" stroke-linecap="round" stroke-linejoin="round"/>
</svg>
