<svg width="24" height="24" viewBox="0 0 24 24" fill="none" xmlns="http://www.w3.org/2000/svg">
<path d="M17.0001 18L15.4651 19.605C14.891 20.1567 14.1936 20.5633 13.4307 20.7911C12.6678 21.0188 11.8615 21.0611 11.079 20.9144C10.2964 20.7676 9.56023 20.4362 8.93165 19.9475C8.30308 19.4589 7.80027 18.8272 7.46509 18.105M13 18H17.0001L17 22M20.9961 15.2511C21.5073 14.5895 21.8241 13.7985 21.9109 12.9669C21.9977 12.1354 21.8511 11.296 21.4876 10.5431C21.124 9.79016 20.5579 9.15339 19.8527 8.70422C19.1475 8.25504 18.3311 8.01122 17.4951 8.0001H15.7051C15.4206 7.04883 14.937 6.16896 14.2865 5.41891C13.6359 4.66887 12.8332 4.0658 11.9317 3.64977C11.0301 3.23373 10.0504 3.01424 9.05756 3.00586C8.0647 2.99749 7.08143 3.20043 6.17302 3.60121C5.26461 4.00198 4.45185 4.59142 3.78871 5.33039C3.12557 6.06936 2.62722 6.94095 2.32675 7.88729C2.02629 8.83362 1.93058 9.83305 2.04598 10.8192C2.16138 11.8054 2.48525 12.7557 2.99609 13.6071M11 14H7V10M7 14L8.535 12.395C9.10904 11.8433 9.80653 11.4367 10.5694 11.2089C11.3323 10.9812 12.1386 10.9389 12.9211 11.0856C13.7037 11.2324 14.4399 11.5638 15.0684 12.0525C15.697 12.5411 16.1998 13.1728 16.535 13.895" stroke="black" stroke-width="2" stroke-linecap="round" stroke-linejoin="round"/>
</svg>
