<svg width="24" height="24" viewBox="0 0 24 24" fill="none" xmlns="http://www.w3.org/2000/svg">
<path d="M11 20V22M18.376 14.5121C19.2346 14.1415 19.9947 13.5753 20.5956 12.8588C21.1966 12.1422 21.6217 11.2951 21.837 10.3851C21.985 9.76009 21.178 9.41509 20.589 9.67109C19.8531 9.98941 19.0385 10.0792 18.251 9.9289C17.4634 9.77856 16.7392 9.39501 16.1723 8.828C15.6054 8.26099 15.222 7.5367 15.0718 6.74909C14.9216 5.96149 15.0116 5.14693 15.33 4.41109C15.585 3.82209 15.24 3.01609 14.614 3.16309C13.38 3.45628 12.2707 4.13296 11.4453 5.09598C10.6199 6.05899 10.121 7.25879 10.02 8.52309M3.00006 20.0001C2.5506 19.4002 2.24176 18.707 2.09639 17.9716C1.95103 17.2363 1.97285 16.4777 2.16025 15.7519C2.34764 15.0261 2.69582 14.3518 3.17902 13.7788C3.66222 13.2057 4.26808 12.7487 4.95177 12.4414C5.63546 12.1341 6.3795 11.9845 7.12882 12.0036C7.87815 12.0227 8.61359 12.21 9.28075 12.5517C9.94791 12.8934 10.5297 13.3807 10.9831 13.9776C11.4365 14.5745 11.7499 15.2657 11.9001 16.0001H13.0001C13.6085 15.9992 14.2029 16.1833 14.7042 16.5281C15.2056 16.8728 15.5903 17.3619 15.8073 17.9303C16.0242 18.4988 16.0632 19.1198 15.919 19.7109C15.7749 20.302 15.4544 20.8353 15.0001 21.2401M7 19V21" stroke="black" stroke-width="2" stroke-linecap="round" stroke-linejoin="round"/>
</svg>
