<svg width="24" height="24" viewBox="0 0 24 24" fill="none" xmlns="http://www.w3.org/2000/svg">
<path d="M21.8319 9.00001C21.6249 8.41453 21.2414 7.90772 20.7341 7.54949C20.2268 7.19126 19.6209 6.99927 18.9999 7.00001H16.7929C16.4522 5.79619 15.7113 4.7445 14.6923 4.01851C13.6734 3.29252 12.4374 2.93561 11.1883 3.00669C9.93926 3.07777 8.75174 3.57258 7.82175 4.40947C6.89176 5.24636 6.27489 6.37531 6.07294 7.61001M17.5 12C18.0909 12 18.6761 12.1164 19.222 12.3425C19.768 12.5687 20.2641 12.9002 20.6819 13.318C21.0998 13.7359 21.4313 14.232 21.6574 14.7779C21.8836 15.3239 22 15.9091 22 16.5C22 17.0909 21.8836 17.6761 21.6574 18.2221C21.4313 18.768 21.0998 19.2641 20.6819 19.682C20.2641 20.0998 19.768 20.4313 19.222 20.6575C18.6761 20.8836 18.0909 21 17.5 21H9.00596C7.70749 21.0012 6.43428 20.6411 5.3287 19.9601C4.22311 19.2792 3.32872 18.3041 2.74553 17.144C2.16233 15.9838 1.91331 14.6844 2.02632 13.3908C2.13932 12.0973 2.60989 10.8606 3.38542 9.81919C4.16095 8.77775 5.21086 7.97254 6.41777 7.49359C7.62469 7.01464 8.94104 6.88083 10.2196 7.10712C11.4982 7.3334 12.6887 7.91086 13.6579 8.77494C14.6272 9.63902 15.337 10.7557 15.708 12H17.5Z" stroke="black" stroke-width="2" stroke-linecap="round" stroke-linejoin="round"/>
</svg>
