<svg width="24" height="24" viewBox="0 0 24 24" fill="none" xmlns="http://www.w3.org/2000/svg">
<path d="M12 17.66C11.4754 18.4052 10.7739 19.0083 9.95852 19.4153C9.14314 19.8222 8.23942 20.0201 7.32859 19.9913C6.41776 19.9625 5.52836 19.7078 4.74034 19.2501C3.95231 18.7924 3.29036 18.1461 2.81396 17.3693C2.33757 16.5924 2.06167 15.7094 2.01105 14.7995C1.96044 13.8896 2.1367 12.9814 2.524 12.1565C2.9113 11.3317 3.49749 10.6159 4.22989 10.0737C4.9623 9.53144 5.81796 9.17968 6.71997 9.05001C6.4809 8.23032 6.43595 7.36622 6.58869 6.52614C6.74143 5.68606 7.08766 4.89309 7.59997 4.21001C8.11228 3.52693 8.77659 2.97251 9.5403 2.59066C10.304 2.20881 11.1461 2.01001 12 2.01001C12.8538 2.01001 13.6959 2.20881 14.4596 2.59066C15.2234 2.97251 15.8877 3.52693 16.4 4.21001C16.9123 4.89309 17.2585 5.68606 17.4113 6.52614C17.564 7.36622 17.5191 8.23032 17.28 9.05001V9.06001C18.1831 9.18851 19.04 9.53961 19.7737 10.0817C20.5073 10.6238 21.0946 11.3398 21.4827 12.1654C21.8707 12.9909 22.0474 13.9 21.9967 14.8108C21.946 15.7216 21.6696 16.6055 21.1923 17.3828C20.715 18.1602 20.0519 18.8067 19.2626 19.264C18.4734 19.7213 17.5827 19.9752 16.671 20.0027C15.7592 20.0302 14.8549 19.8304 14.0395 19.4215C13.2241 19.0125 12.5232 18.4072 12 17.66ZM12 17.66L12 21.9999" stroke="black" stroke-width="2" stroke-linecap="round" stroke-linejoin="round"/>
</svg>
