<svg width="24" height="24" viewBox="0 0 24 24" fill="none" xmlns="http://www.w3.org/2000/svg">
<path d="M13.744 17.7361C13.4438 18.7287 12.8914 19.6266 12.1408 20.3421C11.3902 21.0576 10.467 21.5664 9.46117 21.8188C8.45535 22.0712 7.40129 22.0586 6.40179 21.7822C5.40229 21.5058 4.49149 20.9751 3.75821 20.2418C3.02494 19.5086 2.49424 18.5978 2.21786 17.5983C1.94149 16.5988 1.92889 15.5447 2.18128 14.5389C2.43367 13.5331 2.94244 12.6098 3.65797 11.8592C4.3735 11.1086 5.27135 10.5563 6.26395 10.2561M15 6H16V10M6.13403 14.7681L7.00003 14.2681L9.00003 17.7321M22 8C22 11.3137 19.3137 14 16 14C12.6863 14 10 11.3137 10 8C10 4.68629 12.6863 2 16 2C19.3137 2 22 4.68629 22 8Z" stroke="black" stroke-width="2" stroke-linecap="round" stroke-linejoin="round"/>
</svg>
