<svg width="24" height="24" viewBox="0 0 24 24" fill="none" xmlns="http://www.w3.org/2000/svg">
<path d="M10.2 18H4.77403C4.4781 17.9898 4.19179 17.8922 3.9512 17.7196C3.71061 17.547 3.52648 17.307 3.42203 17.03C2.8128 14.9035 2.8588 12.6428 3.55403 10.543M17.9999 10.1999V4.77388C17.9898 4.47794 17.8922 4.19164 17.7196 3.95105C17.547 3.71045 17.307 3.52633 17.0299 3.42188C14.9038 2.81285 12.6435 2.85885 10.5439 3.55388M18.0001 5C19.0609 5 20.0784 5.31607 20.8285 5.87868C21.5787 6.44129 22.0001 7.20435 22.0001 8C22.0001 8.53043 21.7894 9.03914 21.4143 9.41421C21.0392 9.78929 20.5305 10 20.0001 10C18.1901 9.99955 16.414 10.4903 14.8611 11.42M5 18.0001C5 19.061 5.31607 20.0784 5.87868 20.8285C6.44129 21.5787 7.20435 22.0001 8 22.0001C8.53043 22.0001 9.03914 21.7894 9.41421 21.4143C9.78929 21.0392 10 20.5305 10 20.0001C9.99937 18.1898 10.4902 16.4133 11.42 14.8601M8.70907 2.55407C7.28559 3.04979 5.99258 3.8609 4.92674 4.92674C3.8609 5.99258 3.04979 7.28559 2.55407 8.70907C2.48095 9.01676 2.50695 9.33968 2.62836 9.63171C2.74977 9.92373 2.96037 10.1699 3.23007 10.3351L13.0371 15.7551C13.4168 15.965 13.8545 16.0458 14.2842 15.9851C14.7139 15.9245 15.1122 15.7258 15.419 15.419C15.7258 15.1122 15.9245 14.7139 15.9851 14.2842C16.0458 13.8545 15.965 13.4168 15.7551 13.0371L10.3351 3.23007C10.1699 2.96037 9.92373 2.74977 9.63171 2.62836C9.33968 2.50695 9.01676 2.48095 8.70907 2.55407Z" stroke="black" stroke-width="2" stroke-linecap="round" stroke-linejoin="round"/>
</svg>
