<svg width="24" height="24" viewBox="0 0 24 24" fill="none" xmlns="http://www.w3.org/2000/svg">
<path d="M10 22V14M10 14L2.336 8.88995M10 14L21.715 6.97095M22 14.0001C22 14.3454 21.9106 14.6849 21.7404 14.9855C21.5702 15.286 21.3252 15.5374 21.029 15.7151L11.029 21.7151C10.7044 21.9099 10.3312 22.0087 9.95276 21.9998C9.57429 21.991 9.2061 21.8749 8.891 21.6651L2.891 17.6651C2.61684 17.4824 2.39206 17.2348 2.23662 16.9443C2.08118 16.6539 1.9999 16.3295 2 16.0001V10.0001C2 9.65469 2.08943 9.31521 2.25959 9.01466C2.42976 8.71412 2.67485 8.46276 2.971 8.28507L12.971 2.28507C13.2956 2.0902 13.6688 1.99145 14.0472 2.0003C14.4257 2.00915 14.7939 2.12524 15.109 2.33507L21.109 6.33507C21.3832 6.51774 21.6079 6.76532 21.7634 7.05578C21.9188 7.34625 22.0001 7.67062 22 8.00007V14.0001Z" stroke="black" stroke-width="2" stroke-linecap="round" stroke-linejoin="round"/>
</svg>
