<svg width="24" height="24" viewBox="0 0 24 24" fill="none" xmlns="http://www.w3.org/2000/svg">
<path d="M21 11.693V5M21 5C21 6.65685 16.9706 8 12 8C7.02944 8 3 6.65685 3 5M21 5C21 3.34315 16.9706 2 12 2C7.02944 2 3 3.34315 3 5M22 22L20.125 20.125M3 12C3.00023 12.7781 3.90743 13.5257 5.53011 14.0851C7.15279 14.6445 9.36399 14.9718 11.697 14.998M3 5V19C2.99982 19.4019 3.24185 19.7996 3.71173 20.1697C4.18161 20.5398 4.86976 20.8746 5.73533 21.1544C6.6009 21.4341 7.62624 21.653 8.7505 21.7981C9.87475 21.9432 11.075 22.0115 12.28 21.999M21 18C21 19.6569 19.6569 21 18 21C16.3431 21 15 19.6569 15 18C15 16.3431 16.3431 15 18 15C19.6569 15 21 16.3431 21 18Z" stroke="black" stroke-width="2" stroke-linecap="round" stroke-linejoin="round"/>
</svg>
