<svg width="24" height="24" viewBox="0 0 24 24" fill="none" xmlns="http://www.w3.org/2000/svg">
<path d="M10.162 3.16699C7.86788 3.59596 5.79606 4.81383 4.30542 6.60965C2.81478 8.40547 1.99922 10.6661 2 13C2 13.5304 2.21071 14.0391 2.58579 14.4142C2.96086 14.7893 3.46957 15 4 15C4.53043 15 5.03914 14.7893 5.41421 14.4142C5.78929 14.0391 6 13.5304 6 13V12C6 11.4696 6.21071 10.9609 6.58579 10.5858C6.96086 10.2107 7.46957 9.99999 8 9.99999C8.53043 9.99999 9.03914 10.2107 9.41421 10.5858C9.78929 10.9609 10 11.4696 10 12V16C10 16.5304 10.2107 17.0391 10.5858 17.4142C10.9609 17.7893 11.4696 18 12 18C12.5304 18 13.0391 17.7893 13.4142 17.4142C13.7893 17.0391 14 16.5304 14 16V12C14 11.4696 14.2107 10.9609 14.5858 10.5858C14.9609 10.2107 15.4696 9.99999 16 9.99999C16.5304 9.99999 17.0391 10.2107 17.4142 10.5858C17.7893 10.9609 18 11.4696 18 12V13C18.0008 13.5304 18.2123 14.0388 18.5879 14.4133C18.9635 14.7878 19.4726 14.9978 20.003 14.997C20.5334 14.9962 21.0418 14.7847 21.4163 14.4091C21.7908 14.0334 22.0008 13.5244 22 12.994C21.9992 10.6615 21.183 8.40259 19.6927 6.60824C18.2024 4.81388 16.1318 3.59694 13.839 3.16799M20.804 14.8689C20.3759 16.8865 19.2678 18.6959 17.6652 19.9941C16.0625 21.2924 14.0626 22.0009 12 22.0009C9.93751 22.0009 7.93756 21.2924 6.33491 19.9941C4.73225 18.6959 3.62414 16.8865 3.19604 14.8689M14 4C14 5.10457 13.1046 6 12 6C10.8954 6 10 5.10457 10 4C10 2.89543 10.8954 2 12 2C13.1046 2 14 2.89543 14 4Z" stroke="black" stroke-width="2" stroke-linecap="round" stroke-linejoin="round"/>
</svg>
