<svg width="24" height="24" viewBox="0 0 24 24" fill="none" xmlns="http://www.w3.org/2000/svg">
<path d="M10 10L7 7M10 14L7 17M14 10L17 7M14 14L17 17M14.2051 4.1391C14.587 3.76598 15.0399 3.47312 15.5368 3.27777C16.0338 3.08243 16.5648 2.98856 17.0986 3.0017C17.6324 3.01484 18.1582 3.13472 18.6449 3.35428C19.1316 3.57384 19.5695 3.88863 19.9326 4.28008C20.2958 4.67154 20.5769 5.13175 20.7593 5.63357C20.9418 6.13539 21.022 6.66866 20.9951 7.20195C20.9682 7.73523 20.8348 8.25774 20.6028 8.73865C20.3707 9.21957 20.0448 9.64916 19.6441 10.0021M19.6371 14C20.0411 14.3516 20.3703 14.7808 20.6053 15.2621C20.8403 15.7434 20.9763 16.267 21.0051 16.8018C21.034 17.3366 20.9551 17.8718 20.7732 18.3755C20.5913 18.8793 20.3101 19.3414 19.9463 19.7344C19.5825 20.1275 19.1434 20.4435 18.6551 20.6636C18.1669 20.8838 17.6394 21.0036 17.1039 21.0161C16.5685 21.0285 16.036 20.9333 15.538 20.7361C15.0401 20.5389 14.5868 20.2437 14.2051 19.868M4.36697 9.99995C3.96257 9.64812 3.633 9.2186 3.39786 8.7369C3.16271 8.2552 3.02679 7.73116 2.99815 7.1959C2.96951 6.66064 3.04874 6.12508 3.23114 5.62104C3.41354 5.117 3.69539 4.65477 4.05994 4.26179C4.42449 3.86882 4.8643 3.55313 5.35326 3.33347C5.84221 3.1138 6.37032 2.99466 6.90622 2.98311C7.44213 2.97155 7.97488 3.06783 8.47285 3.26622C8.97081 3.4646 9.42382 3.76105 9.80497 4.13795M9.79497 19.862C9.41198 20.2327 8.95876 20.5232 8.46193 20.7163C7.96511 20.9094 7.4347 21.0012 6.90188 20.9864C6.36906 20.9716 5.84457 20.8505 5.35923 20.6301C4.87389 20.4097 4.43748 20.0946 4.07566 19.7032C3.71384 19.3117 3.4339 18.852 3.25228 18.3508C3.07067 17.8497 2.99105 17.3173 3.01809 16.785C3.04514 16.2526 3.17831 15.7311 3.40978 15.2509C3.64124 14.7708 3.96634 14.3417 4.36597 13.989M11 8H13C13.5523 8 14 8.44772 14 9V15C14 15.5523 13.5523 16 13 16H11C10.4477 16 10 15.5523 10 15V9C10 8.44772 10.4477 8 11 8Z" stroke="black" stroke-width="2" stroke-linecap="round" stroke-linejoin="round"/>
</svg>
