<svg width="24" height="24" viewBox="0 0 24 24" fill="none" xmlns="http://www.w3.org/2000/svg">
<path d="M14 2.00001V7.00001C14 7.26522 14.1054 7.51958 14.2929 7.70711C14.4804 7.89465 14.7348 8.00001 15 8.00001H20M14 2.00001C14.3169 1.99923 14.6308 2.06122 14.9236 2.1824C15.2164 2.30357 15.4823 2.48153 15.706 2.70601L19.294 6.29401C19.5185 6.51769 19.6964 6.7836 19.8176 7.07641C19.9388 7.36922 20.0008 7.68312 20 8.00001M14 2.00001L6 2.00001C5.46957 2.00001 4.96086 2.21073 4.58579 2.5858C4.21071 2.96087 4 3.46958 4 4.00001V8.00001M20 8.00001V20C20 20.5304 19.7893 21.0392 19.4142 21.4142C19.0391 21.7893 18.5304 22 18 22H9.65M4 12V18M4 18C2.89543 18 2 18.8954 2 20C2 21.1046 2.89543 22 4 22C5.10457 22 6 21.1046 6 20C6 18.8954 5.10457 18 4 18ZM4 14H6" stroke="black" stroke-width="2" stroke-linecap="round" stroke-linejoin="round"/>
</svg>
