<svg width="24" height="24" viewBox="0 0 24 24" fill="none" xmlns="http://www.w3.org/2000/svg">
<path d="M14 2V7C14 7.26522 14.1054 7.51957 14.2929 7.70711C14.4804 7.89465 14.7348 8 15 8H20M14 2C14.3166 1.99949 14.6301 2.06161 14.9225 2.18277C15.215 2.30394 15.4806 2.48176 15.704 2.706L19.292 6.294C19.5168 6.51751 19.6952 6.78335 19.8167 7.07616C19.9382 7.36898 20.0005 7.68297 20 8M14 2L6 2C5.46957 2 4.96086 2.21071 4.58579 2.58579C4.21071 2.96086 4 3.46957 4 4V10.592M20 8L20.0001 20C20.0001 20.5304 19.7894 21.0391 19.4143 21.4142C19.0393 21.7893 18.5305 22 18.0001 22H13.8181M3.30493 19.5299L4.22793 19.1479M4.22796 16.852L3.30396 16.469M5.85199 15.2279L5.46899 14.3049M5.85199 20.772L5.46899 21.696M8.14795 15.2279L8.53095 14.3049M8.52995 21.696L8.14795 20.772M9.77295 16.852L10.6949 16.469M9.77295 19.1479L10.6949 19.5309M10 18C10 19.6569 8.65685 21 7 21C5.34315 21 4 19.6569 4 18C4 16.3431 5.34315 15 7 15C8.65685 15 10 16.3431 10 18Z" stroke="black" stroke-width="2" stroke-linecap="round" stroke-linejoin="round"/>
</svg>
