<svg width="24" height="24" viewBox="0 0 24 24" fill="none" xmlns="http://www.w3.org/2000/svg">
<path d="M14.5 22H18C18.5304 22 19.0391 21.7893 19.4142 21.4142C19.7893 21.0391 20 20.5304 20 20V8.00001M20 8.00001C20.0008 7.68312 19.9388 7.36921 19.8176 7.0764C19.6964 6.78359 19.5185 6.51768 19.294 6.29401L15.706 2.70601C15.4823 2.48153 15.2164 2.30357 14.9236 2.18239C14.6308 2.06122 14.3169 1.99923 14 2.00001M20 8.00001L15 8C14.7348 8 14.4804 7.89464 14.2929 7.70711C14.1054 7.51957 14 7.26522 14 7V2.00001M14 2.00001H6C5.46957 2.00001 4.96086 2.21072 4.58579 2.58579C4.21071 2.96087 4 3.46957 4 4.00001V7.80001M11.7 14.2L7.00005 17M7.00005 17L2.30005 14.2M7.00005 17L7 22M3.00008 13.1C2.69208 13.278 2.43714 13.535 2.26154 13.8444C2.08593 14.1537 1.99602 14.5043 2.00108 14.86V18.1C1.98939 18.4561 2.07306 18.8089 2.24342 19.1219C2.41378 19.4348 2.66465 19.6965 2.97008 19.88L6.00008 21.7C6.30676 21.8827 6.65675 21.98 7.01371 21.9817C7.37068 21.9835 7.72161 21.8897 8.03008 21.71L11.0001 19.9C11.3083 19.7222 11.5634 19.4653 11.7392 19.1559C11.915 18.8465 12.005 18.4958 12.0001 18.14V14.9C12.0117 14.5438 11.9278 14.191 11.7573 13.878C11.5868 13.5651 11.3357 13.3034 11.0301 13.12L8.00008 11.3C7.69339 11.1174 7.3434 11.0201 6.98644 11.0183C6.62947 11.0166 6.27855 11.1104 5.97008 11.29L3.00008 13.1Z" stroke="black" stroke-width="2" stroke-linecap="round" stroke-linejoin="round"/>
</svg>
