<svg width="24" height="24" viewBox="0 0 24 24" fill="none" xmlns="http://www.w3.org/2000/svg">
<path d="M12 17H12.01M9.09998 8.99992C9.33995 8.33855 9.80475 7.78257 10.4131 7.42915C11.0215 7.07574 11.7347 6.94738 12.4281 7.06653C13.1215 7.18567 13.751 7.54472 14.2065 8.08093C14.662 8.61714 14.9145 9.29638 14.92 9.99992C14.92 11.9999 11.92 12.9999 11.92 12.9999M6 22C5.46957 22 4.96086 21.7893 4.58579 21.4142C4.21071 21.0391 4 20.5304 4 20V4C4 3.46957 4.21071 2.96086 4.58579 2.58579C4.96086 2.21072 5.46957 2 6 2H14C14.3166 1.99949 14.6301 2.06161 14.9225 2.18277C15.215 2.30394 15.4806 2.48176 15.704 2.706L19.292 6.294C19.5168 6.51751 19.6952 6.78335 19.8167 7.07616C19.9382 7.36898 20.0005 7.68297 20 8V20C20 20.5304 19.7893 21.0391 19.4142 21.4142C19.0391 21.7893 18.5304 22 18 22H6Z" stroke="black" stroke-width="2" stroke-linecap="round" stroke-linejoin="round"/>
</svg>
