<svg width="24" height="24" viewBox="0 0 24 24" fill="none" xmlns="http://www.w3.org/2000/svg">
<path d="M13.0001 22H18.0001C18.5305 22 19.0392 21.7893 19.4143 21.4142C19.7893 21.0391 20.0001 20.5304 20.0001 20V8.00001M20.0001 8.00001C20.0008 7.68312 19.9389 7.36921 19.8177 7.0764C19.6965 6.78359 19.5185 6.51768 19.2941 6.29401L15.7061 2.70601C15.4824 2.48153 15.2165 2.30357 14.9237 2.18239C14.6309 2.06122 14.317 1.99923 14.0001 2.00001M20.0001 8.00001L15.0001 8C14.7348 8 14.4805 7.89464 14.293 7.70711C14.1054 7.51957 14.0001 7.26522 14.0001 7V2.00001M14.0001 2.00001H6.00006C5.46963 2.00001 4.96092 2.21072 4.58585 2.58579C4.21077 2.96087 4.00006 3.46957 4.00006 4.00001V11M3.62008 18.7999C3.4097 18.5806 3.24594 18.3209 3.13868 18.0365C3.03141 17.7521 2.98288 17.449 2.99599 17.1453C3.00911 16.8417 3.0836 16.5439 3.21499 16.2698C3.34637 15.9957 3.53191 15.7511 3.76042 15.5507C3.98893 15.3504 4.25567 15.1983 4.54454 15.1039C4.83341 15.0094 5.13842 14.9744 5.44118 15.0011C5.74393 15.0277 6.03815 15.1155 6.30608 15.2589C6.57401 15.4024 6.81009 15.5987 7.00008 15.8359C7.19098 15.6012 7.42728 15.4073 7.69482 15.266C7.96236 15.1247 8.25566 15.0388 8.55717 15.0134C8.85868 14.9881 9.1622 15.0238 9.44959 15.1185C9.73697 15.2131 10.0023 15.3648 10.2297 15.5643C10.4572 15.7639 10.642 16.0073 10.7732 16.2799C10.9044 16.5526 10.9792 16.8489 10.9933 17.1512C11.0073 17.4534 10.9602 17.7554 10.8549 18.039C10.7495 18.3226 10.588 18.5821 10.3801 18.8019L7.75408 21.6579C7.66022 21.7655 7.5444 21.8517 7.41443 21.9108C7.28446 21.9699 7.14335 22.0005 7.00058 22.0005C6.85781 22.0005 6.71669 21.9699 6.58672 21.9108C6.45675 21.8517 6.34094 21.7655 6.24708 21.6579L3.62008 18.7999Z" stroke="black" stroke-width="2" stroke-linecap="round" stroke-linejoin="round"/>
</svg>
