<svg width="24" height="24" viewBox="0 0 24 24" fill="none" xmlns="http://www.w3.org/2000/svg">
<path d="M4 11.55V4.00001C4 3.46957 4.21071 2.96087 4.58579 2.58579C4.96086 2.21072 5.46957 2.00001 6 2.00001H14M14 2.00001C14.3169 1.99923 14.6308 2.06122 14.9236 2.18239C15.2164 2.30357 15.4823 2.48153 15.706 2.70601L19.294 6.29401C19.5185 6.51768 19.6964 6.78359 19.8176 7.0764C19.9388 7.36921 20.0008 7.68312 20 8.00001M14 2.00001V7C14 7.26522 14.1054 7.51957 14.2929 7.70711C14.4804 7.89464 14.7348 8 15 8L20 8.00001M20 8.00001V20C20 20.5304 19.7893 21.0391 19.4142 21.4142C19.0391 21.7893 18.5304 22 18 22H16.05M12 15C12.6491 15.8655 13 16.9181 13 18C13 19.0819 12.6491 20.1345 12 21M8 14.5019C8.00036 14.406 7.97317 14.3121 7.92165 14.2313C7.87013 14.1504 7.79647 14.0861 7.70943 14.046C7.62239 14.0058 7.52564 13.9915 7.43072 14.0048C7.33579 14.0181 7.24668 14.0584 7.174 14.1209L5.281 15.7519C5.10002 15.9081 4.86907 15.9943 4.63 15.9949H3.5C3.43426 15.9949 3.36916 16.0079 3.30843 16.033C3.2477 16.0582 3.19254 16.0952 3.14609 16.1417C3.09965 16.1882 3.06284 16.2435 3.03777 16.3042C3.01271 16.365 2.99987 16.4301 3 16.4959V19.5019C2.99987 19.5676 3.01271 19.6328 3.03777 19.6935C3.06284 19.7543 3.09965 19.8096 3.14609 19.8561C3.19254 19.9026 3.2477 19.9395 3.30843 19.9647C3.36916 19.9899 3.43426 20.0029 3.5 20.0029H4.629C4.86842 20.0032 5.09976 20.0895 5.281 20.2459L7.174 21.8789C7.24661 21.9413 7.33563 21.9816 7.43047 21.9949C7.5253 22.0082 7.62197 21.994 7.70897 21.954C7.79598 21.914 7.86965 21.8498 7.92124 21.7691C7.97284 21.6885 8.00017 21.5947 8 21.4989V14.5019Z" stroke="black" stroke-width="2" stroke-linecap="round" stroke-linejoin="round"/>
</svg>
