<svg width="24" height="24" viewBox="0 0 24 24" fill="none" xmlns="http://www.w3.org/2000/svg">
<path d="M17.5861 11.4139L11.6561 17.3439C10.5953 18.4048 9.15641 19.0008 7.65612 19.0008C6.15583 19.0008 4.71699 18.4048 3.65612 17.3439C2.59526 16.283 1.99927 14.8442 1.99927 13.3439C1.99927 11.8436 2.59526 10.4048 3.65612 9.34391L6.79312 6.20691C6.892 6.108 7.01799 6.04064 7.15515 6.01335C7.29232 5.98606 7.43449 6.00006 7.5637 6.05358C7.69291 6.10711 7.80333 6.19775 7.88102 6.31404C7.9587 6.43033 8.00015 6.56705 8.00012 6.70691V9.99991M20.4141 8.586L22.0001 7M21 10C21 11.1046 20.1046 12 19 12C17.8954 12 17 11.1046 17 10C17 8.89543 17.8954 8 19 8C20.1046 8 21 8.89543 21 10Z" stroke="black" stroke-width="2" stroke-linecap="round" stroke-linejoin="round"/>
</svg>
