<svg width="24" height="24" viewBox="0 0 24 24" fill="none" xmlns="http://www.w3.org/2000/svg">
<path d="M16 16C13 16 11 14 8 14C6.52412 14 5.10002 14.544 4 15.528M2 2L22 22M4 22V4M7.65601 2H8.00001C11 2 13 4 15.333 4C16.6663 4 17.6887 3.73333 18.4 3.2C18.5486 3.08857 18.7252 3.02072 18.9102 3.00404C19.0952 2.98736 19.2811 3.02252 19.4472 3.10557C19.6133 3.18863 19.753 3.31629 19.8507 3.47427C19.9483 3.63224 20 3.81429 20 4V14.347" stroke="black" stroke-width="2" stroke-linecap="round" stroke-linejoin="round"/>
</svg>
