<svg width="24" height="24" viewBox="0 0 24 24" fill="none" xmlns="http://www.w3.org/2000/svg">
<path d="M11.652 6H18M12 13V14M16 16V20C16 20.5304 15.7893 21.0391 15.4142 21.4142C15.0391 21.7893 14.5304 22 14 22H10C9.46957 22 8.96086 21.7893 8.58579 21.4142C8.21071 21.0391 8 20.5304 8 20V12C8 11.1345 7.71929 10.2924 7.2 9.6L6.6 8.8C6.21053 8.28071 6 7.64911 6 7V6M2 2L22 22M7.64899 2H17C17.2652 2 17.5196 2.10536 17.7071 2.29289C17.8946 2.48043 18 2.73478 18 3V7C18 7.64911 17.7895 8.28071 17.4 8.8L16.8 9.6C16.5692 9.90749 16.384 10.2466 16.25 10.607" stroke="black" stroke-width="2" stroke-linecap="round" stroke-linejoin="round"/>
</svg>
