<svg width="24" height="24" viewBox="0 0 24 24" fill="none" xmlns="http://www.w3.org/2000/svg">
<path d="M10.638 20.0001H4C3.46957 20.0001 2.96086 19.7894 2.58579 19.4143C2.21071 19.0392 2 18.5305 2 18.0001V5.0001C2 4.46966 2.21071 3.96096 2.58579 3.58588C2.96086 3.21081 3.46957 3.0001 4 3.0001H7.9C8.23449 2.99682 8.56445 3.07748 8.8597 3.23472C9.15495 3.39195 9.40604 3.62072 9.59 3.9001L10.4 5.1001C10.5821 5.37663 10.83 5.60362 11.1215 5.7607C11.413 5.91778 11.7389 6.00004 12.07 6.0001H20C20.5304 6.0001 21.0391 6.21081 21.4142 6.58588C21.7893 6.96096 22 7.46966 22 8.0001V11.4171M14.62 18.7999C14.4096 18.5806 14.2458 18.3209 14.1386 18.0365C14.0313 17.7521 13.9828 17.449 13.9959 17.1453C14.009 16.8417 14.0835 16.5439 14.2149 16.2698C14.3462 15.9957 14.5318 15.7511 14.7603 15.5507C14.9888 15.3504 15.2555 15.1983 15.5444 15.1039C15.8333 15.0094 16.1383 14.9744 16.4411 15.0011C16.7438 15.0277 17.038 15.1155 17.306 15.2589C17.5739 15.4024 17.81 15.5987 18 15.8359C18.1909 15.6012 18.4272 15.4073 18.6947 15.266C18.9622 15.1247 19.2555 15.0388 19.557 15.0134C19.8586 14.9881 20.1621 15.0238 20.4495 15.1185C20.7369 15.2131 21.0022 15.3648 21.2296 15.5643C21.457 15.7639 21.6419 16.0073 21.7731 16.2799C21.9043 16.5526 21.9791 16.8489 21.9932 17.1512C22.0072 17.4534 21.9601 17.7554 21.8548 18.039C21.7494 18.3226 21.5879 18.5821 21.38 18.8019L18.754 21.6579C18.6603 21.7658 18.5445 21.8523 18.4145 21.9115C18.2845 21.9708 18.1433 22.0015 18.0005 22.0015C17.8576 22.0015 17.7164 21.9708 17.5864 21.9115C17.4564 21.8523 17.3406 21.7658 17.247 21.6579L14.62 18.7999Z" stroke="black" stroke-width="2" stroke-linecap="round" stroke-linejoin="round"/>
</svg>
