<svg width="24" height="24" viewBox="0 0 24 24" fill="none" xmlns="http://www.w3.org/2000/svg">
<path d="M12 12H5C4.46957 12 3.96086 12.2107 3.58579 12.5858C3.21071 12.9609 3 13.4696 3 14V19M3 19C3 20.1046 3.89543 21 5 21C6.10457 21 7 20.1046 7 19M3 19C3 17.8954 3.89543 17 5 17C6.10457 17 7 17.8954 7 19M15 19H22M15 19C15 20.1046 14.1046 21 13 21C11.8954 21 11 20.1046 11 19M15 19C15 17.8954 14.1046 17 13 17C11.8954 17 11 17.8954 11 19M16 19V2M6 12V7C6 6.46957 6.21071 5.96086 6.58579 5.58579C6.96086 5.21071 7.46957 5 8 5H10.172C10.7024 5.00011 11.211 5.2109 11.586 5.586L15.414 9.414C15.7891 9.78899 15.9999 10.2976 16 10.828M7 19H11" stroke="black" stroke-width="2" stroke-linecap="round" stroke-linejoin="round"/>
</svg>
