<svg width="24" height="24" viewBox="0 0 24 24" fill="none" xmlns="http://www.w3.org/2000/svg">
<path d="M10.5 3L8 9L12 22M12 22L16 9L13.5 3M12 22C12.3172 22 12.6293 21.9245 12.9116 21.7799C13.1939 21.6352 13.4377 21.4255 13.623 21.168L21.613 10.182C21.8665 9.83605 22.0021 9.41776 21.9998 8.98885C21.9974 8.55995 21.8573 8.14316 21.6 7.8L18.6 3.8C18.4137 3.55161 18.1721 3.35 17.8944 3.21115C17.6167 3.07229 17.3105 3 17 3H6.99997C6.68888 3.00004 6.3821 3.07264 6.104 3.21204C5.8259 3.35144 5.58415 3.55379 5.39797 3.803L2.39997 7.8C2.14253 8.14306 2.00219 8.55979 1.99967 8.98869C1.99715 9.41759 2.13258 9.83594 2.38597 10.182L10.376 21.168C10.5612 21.4255 10.805 21.6352 11.0873 21.7799C11.3696 21.9245 11.6828 22 12 22ZM2 9H22" stroke="black" stroke-width="2" stroke-linecap="round" stroke-linejoin="round"/>
</svg>
