<svg width="24" height="24" viewBox="0 0 24 24" fill="none" xmlns="http://www.w3.org/2000/svg">
<path d="M11.5001 21C10.081 20.9997 8.69117 20.5968 7.49194 19.8382C6.29272 19.0795 5.33333 17.9962 4.7252 16.7141C4.11707 15.432 3.88516 14.0036 4.0564 12.595C4.22764 11.1863 4.79501 9.85509 5.6926 8.75599C6.5902 7.6569 7.78118 6.835 9.12724 6.38576C10.4733 5.93652 11.9192 5.87837 13.297 6.21806C14.6748 6.55776 15.9279 7.28136 16.9109 8.30483C17.8938 9.3283 18.5663 10.6096 18.8501 12M13 12V3M4 21H20M9 12V3" stroke="black" stroke-width="2" stroke-linecap="round" stroke-linejoin="round"/>
</svg>
