<svg width="24" height="24" viewBox="0 0 24 24" fill="none" xmlns="http://www.w3.org/2000/svg">
<path d="M10.114 4.462C10.6529 3.57627 11.2851 2.75088 12 2M12 2C13.6278 1.99997 15.2309 2.3973 16.6703 3.15748C18.1096 3.91766 19.3417 5.01771 20.2594 6.36211C21.1771 7.7065 21.7528 9.2546 21.9364 10.872C22.12 12.4893 21.906 14.1271 21.313 15.643M12 2C14.148 4.25543 15.5126 7.14256 15.8919 10.234M12 2C10.7535 1.99994 9.51783 2.23294 8.35693 2.687M15.5571 15.556C14.9454 17.9741 13.7203 20.1937 12.0001 22M19.071 19.071C17.1957 20.9463 14.6523 21.9999 12.0001 22C10.0223 21.9999 8.08895 21.4134 6.44448 20.3146C4.80002 19.2158 3.51831 17.654 2.76145 15.8268C2.00458 13.9995 1.80655 11.9889 2.19239 10.0491C2.57823 8.1093 3.53062 6.32748 4.92911 4.92896M12.0001 22C10.3103 20.2261 9.09751 18.0529 8.47497 15.6834C7.85243 13.3139 7.84041 10.8253 8.44004 8.44995M17.656 12H22M2 12H12M2 2L22 22" stroke="black" stroke-width="2" stroke-linecap="round" stroke-linejoin="round"/>
</svg>
