<svg width="24" height="24" viewBox="0 0 24 24" fill="none" xmlns="http://www.w3.org/2000/svg">
<path d="M2 17H20C20.5304 17 21.0391 16.7893 21.4142 16.4142C21.7893 16.0391 22 15.5304 22 15V7C22 6.46957 21.7893 5.96086 21.4142 5.58579C21.0391 5.21071 20.5304 5 20 5H2M2 21V3M7 17V20C7 20.2652 7.10536 20.5196 7.29289 20.7071C7.48043 20.8946 7.73478 21 8 21H13C13.2652 21 13.5196 20.8946 13.7071 20.7071C13.8946 20.5196 14 20.2652 14 20V17M18 11C18 12.1046 17.1046 13 16 13C14.8954 13 14 12.1046 14 11C14 9.89543 14.8954 9 16 9C17.1046 9 18 9.89543 18 11ZM10 11C10 12.1046 9.10457 13 8 13C6.89543 13 6 12.1046 6 11C6 9.89543 6.89543 9 8 9C9.10457 9 10 9.89543 10 11Z" stroke="black" stroke-width="2" stroke-linecap="round" stroke-linejoin="round"/>
</svg>
