<svg width="24" height="24" viewBox="0 0 24 24" fill="none" xmlns="http://www.w3.org/2000/svg">
<path d="M2.85596 10.8559C2.03728 11.6746 1.79411 13.0019 2.17991 14.5455C2.5657 16.089 3.54888 17.7226 4.91315 19.0869C6.27743 20.4512 7.91104 21.4344 9.45462 21.8202C10.9982 22.206 12.3253 21.9626 13.144 21.1439C14.114 20.1739 14.9414 19.0804 15.5791 17.9257C16.2167 16.771 16.6521 15.5778 16.8603 14.4143C17.0686 13.2507 17.0456 12.1395 16.7927 11.1442C16.5398 10.1489 16.0619 9.28898 15.3864 8.61346C14.7109 7.93794 13.8509 7.46009 12.8556 7.2072C11.8603 6.9543 10.7492 6.93131 9.58562 7.13955C8.42206 7.34778 7.22888 7.78315 6.0742 8.42081C4.91952 9.05846 3.82596 9.88591 2.85596 10.8559ZM13.144 21.1439C13.9626 20.3252 14.2058 18.9983 13.82 17.4547C13.4343 15.9112 12.4511 14.2775 11.0868 12.9133C9.72253 11.549 8.08891 10.5658 6.54534 10.18C5.00176 9.79423 3.67464 10.0372 2.85596 10.8559M16.565 10.4351L18.6 8.40006C18.9177 8.57609 19.2699 8.68081 19.6322 8.70695C19.9944 8.73309 20.358 8.68001 20.6977 8.55141C21.0374 8.42282 21.345 8.22179 21.5991 7.96229C21.8532 7.7028 22.0477 7.39108 22.1692 7.04879C22.2907 6.70651 22.3361 6.34188 22.3024 5.98025C22.2687 5.61862 22.1566 5.26868 21.974 4.95475C21.7913 4.64082 21.5425 4.37043 21.2448 4.16239C20.9471 3.95435 20.6076 3.81365 20.25 3.75006C20.18 3.39792 20.035 3.06498 19.8248 2.77391C19.6146 2.48284 19.3442 2.24046 19.0319 2.06326C18.7197 1.88605 18.3729 1.77819 18.0152 1.747C17.6575 1.71581 17.2973 1.76203 16.9591 1.88251C16.6209 2.00299 16.3126 2.19491 16.0552 2.4452C15.7978 2.6955 15.5973 2.9983 15.4674 3.33301C15.3375 3.66773 15.2812 4.02649 15.3024 4.3849C15.3235 4.74331 15.4217 5.09296 15.59 5.41006L13.566 7.43506M8.5 16.5L7.5 15.5" stroke="black" stroke-width="2" stroke-linecap="round" stroke-linejoin="round"/>
</svg>
