<svg width="24" height="24" viewBox="0 0 24 24" fill="none" xmlns="http://www.w3.org/2000/svg">
<path d="M14 18C14 17.4696 13.7893 16.9609 13.4142 16.5858C13.0391 16.2107 12.5304 16 12 16C11.4696 16 10.9609 16.2107 10.5858 16.5858C10.2107 16.9609 10 17.4696 10 18M14 18C14 19.6569 15.3431 21 17 21C18.6569 21 20 19.6569 20 18C20 16.3431 18.6569 15 17 15C15.3431 15 14 16.3431 14 18ZM10 18C10 19.6569 8.65685 21 7 21C5.34315 21 4 19.6569 4 18C4 16.3431 5.34315 15 7 15C8.65685 15 10 16.3431 10 18ZM19 10.9999L16.89 4.34293C16.7976 4.07707 16.6502 3.8337 16.4573 3.62872C16.2645 3.42375 16.0305 3.26179 15.7708 3.15343C15.511 3.04508 15.2313 2.99276 14.9499 2.99991C14.6686 3.00706 14.3919 3.07352 14.138 3.19493L12.862 3.80493C12.5928 3.93339 12.2983 4.00002 12 3.99993H8.5C8.06434 3.99984 7.64057 4.14201 7.29311 4.40481C6.94565 4.66762 6.6935 5.0367 6.575 5.45593L5 10.9999M2 11H22" stroke="black" stroke-width="2" stroke-linecap="round" stroke-linejoin="round"/>
</svg>
