<svg width="24" height="24" viewBox="0 0 24 24" fill="none" xmlns="http://www.w3.org/2000/svg">
<path d="M10.5 4.89304C10.9027 5.15442 11.2695 5.46742 11.591 5.82404C11.6434 5.88005 11.7067 5.92471 11.7771 5.95524C11.8474 5.98577 11.9233 6.00152 12 6.00152C12.0767 6.00152 12.1526 5.98577 12.2229 5.95524C12.2933 5.92471 12.3566 5.88005 12.409 5.82404C13.1504 4.99094 14.128 4.40341 15.2116 4.13964C16.2952 3.87588 17.4335 3.94839 18.4749 4.34752C19.5163 4.74666 20.4114 5.45349 21.0411 6.37394C21.6708 7.29439 22.0053 8.3848 22 9.50004C22 11.372 20.998 12.856 19.813 14.155M16.967 16.967L13.508 20.313C13.3217 20.527 13.0919 20.6989 12.834 20.8173C12.5762 20.9357 12.296 20.9979 12.0123 20.9997C11.7285 21.0015 11.4476 20.9429 11.1883 20.8277C10.9289 20.7126 10.697 20.5436 10.508 20.332L5 15C3.5 13.5 2 11.8 2 9.50001C2.00007 8.53522 2.25393 7.58742 2.7361 6.75174C3.21826 5.91607 3.91177 5.22194 4.747 4.73901M2 2L22 22" stroke="black" stroke-width="2" stroke-linecap="round" stroke-linejoin="round"/>
</svg>
