<svg width="24" height="24" viewBox="0 0 24 24" fill="none" xmlns="http://www.w3.org/2000/svg">
<path d="M12.4089 5.82397C11.7069 6.61597 11.2589 7.31997 10.9939 7.98997L13.1469 10.146C13.2406 10.2397 13.2933 10.3669 13.2933 10.4995C13.2933 10.6321 13.2406 10.7592 13.1469 10.853L10.8539 13.146C10.7602 13.2397 10.7075 13.3669 10.7075 13.4995C10.7075 13.6321 10.7602 13.7592 10.8539 13.853L11.9999 15M12.4089 5.82397C12.2977 5.92731 12.1516 5.98461 11.9998 5.98443C11.848 5.98424 11.7019 5.92653 11.591 5.82292C10.8472 4.99514 9.86972 4.41248 8.78777 4.15191C7.70582 3.89134 6.57028 3.96512 5.53114 4.3635C4.49201 4.76189 3.59817 5.46613 2.96771 6.38321C2.33725 7.30028 1.99982 8.38704 2 9.49992C2 11.7999 3.5 13.4999 5 14.9999L10.508 20.3319C10.697 20.5436 10.9289 20.7125 11.1883 20.8277C11.4476 20.9428 11.7285 21.0014 12.0123 20.9996C12.296 20.9978 12.5762 20.9356 12.834 20.8172C13.0919 20.6988 13.3217 20.5269 13.508 20.3129L19 14.9999C20.5 13.4999 22 11.7899 22 9.49992C22 8.38713 21.6624 7.30051 21.0319 6.38359C20.4013 5.46667 19.5075 4.76258 18.4684 4.36432C17.4293 3.96606 16.2938 3.89237 15.212 4.15297C14.1301 4.41357 13.1527 4.99625 12.4089 5.82397Z" stroke="black" stroke-width="2" stroke-linecap="round" stroke-linejoin="round"/>
</svg>
