<svg width="24" height="24" viewBox="0 0 24 24" fill="none" xmlns="http://www.w3.org/2000/svg">
<path d="M11 17V21M14 3V11C14 11.5304 14.2107 12.0391 14.5858 12.4142C14.9609 12.7893 15.4696 13 16 13H21.865M17 17V21M2 10V15M6 3H22M7 21H21M8 13H2M18 17C19.0609 17 20.0783 16.5786 20.8284 15.8284C21.5786 15.0783 22 14.0609 22 13C22 11.4087 21.1571 9.88258 19.6569 8.75736C18.1566 7.63214 16.1217 7 14 7C12.4087 7 10.8826 7.52678 9.75736 8.46447C8.63214 9.40215 8 10.6739 8 12V15C8 15.5304 8.21071 16.0391 8.58579 16.4142C8.96086 16.7893 9.46957 17 10 17H18Z" stroke="black" stroke-width="2" stroke-linecap="round" stroke-linejoin="round"/>
</svg>
