<svg width="24" height="24" viewBox="0 0 24 24" fill="none" xmlns="http://www.w3.org/2000/svg">
<path d="M10.82 16.1201C12.51 16.7201 14.73 16.9101 16 16.9701C16.55 17.0001 17 16.5501 16.97 16.0001C16.91 14.7301 16.71 12.5001 16.12 10.8201M15.62 16.95C15.82 17.8 16.24 19.7099 16.12 21.2299C16.1118 21.337 16.0814 21.4412 16.0306 21.5358C15.9798 21.6304 15.9097 21.7133 15.825 21.7792C15.7402 21.8451 15.6426 21.8926 15.5384 21.9185C15.4343 21.9445 15.3258 21.9484 15.22 21.93C13.8069 21.655 12.4355 21.1979 11.14 20.57M16.13 21.0499C17.78 21.6799 19.81 21.8899 21 21.9599C21.1284 21.9688 21.2571 21.95 21.3776 21.9049C21.4981 21.8598 21.6076 21.7894 21.6985 21.6984C21.7895 21.6074 21.8599 21.498 21.905 21.3775C21.9502 21.257 21.9689 21.1282 21.96 20.9999C21.89 19.3424 21.587 17.703 21.06 16.1299M16.94 15.6199C17.8 15.8199 19.71 16.2399 21.23 16.1199C21.3371 16.1117 21.4412 16.0813 21.5358 16.0304C21.6304 15.9796 21.7133 15.9096 21.7792 15.8249C21.8452 15.7401 21.8926 15.6425 21.9186 15.5383C21.9446 15.4341 21.9484 15.3257 21.93 15.2199C21.6551 13.8068 21.1979 12.4353 20.57 11.1399M17.99 5.52002C19.2341 6.87432 20.2934 8.38748 21.14 10.02C21.1938 10.1382 21.218 10.2676 21.2106 10.3973C21.2032 10.5269 21.1643 10.6527 21.0974 10.764C21.0304 10.8752 20.9374 10.9685 20.8264 11.0357C20.7153 11.103 20.5896 11.1422 20.46 11.15C18.13 11.35 15.16 10.83 12.19 9.58002M4.93002 4.93L3.00002 3C2.9335 2.93482 2.88065 2.85703 2.84458 2.77117C2.8085 2.68532 2.78992 2.59313 2.78992 2.5C2.78992 2.40687 2.8085 2.31468 2.84458 2.22883C2.88065 2.14297 2.9335 2.06518 3.00002 2M9.58002 12.1799C10.82 15.1599 11.35 18.1299 11.15 20.4599C11.1422 20.5895 11.103 20.7153 11.0357 20.8263C10.9685 20.9373 10.8752 21.0303 10.764 21.0973C10.6527 21.1642 10.5269 21.2031 10.3973 21.2105C10.2676 21.2179 10.1382 21.1937 10.02 21.1399C8.38748 20.2933 6.87432 19.2341 5.52002 17.9899M11.5 6.50003C13.14 6.50003 16.5 6.12003 18.21 5.43003C18.73 5.23003 18.76 4.61003 18.33 4.26003C16.4104 2.69381 13.9777 1.89595 11.5033 2.02107C9.02894 2.14619 6.68911 3.18537 4.93724 4.93724C3.18537 6.68911 2.14619 9.02894 2.02107 11.5033C1.89595 13.9777 2.69381 16.4104 4.26003 18.33C4.61003 18.76 5.22003 18.73 5.43003 18.21C6.12003 16.5 6.50003 13.14 6.50003 11.5C7.84003 11.95 9.60003 12.4 11.38 12.12C11.5645 12.0902 11.7347 12.0024 11.866 11.8693C11.9972 11.7363 12.0827 11.5649 12.11 11.38C12.41 9.24003 11.96 7.88003 11.5 6.50003Z" stroke="black" stroke-width="2" stroke-linecap="round" stroke-linejoin="round"/>
</svg>
