<svg width="24" height="24" viewBox="0 0 24 24" fill="none" xmlns="http://www.w3.org/2000/svg">
<path d="M8.61996 13.7999C8.40958 13.5806 8.24582 13.3209 8.13855 13.0365C8.03129 12.7521 7.98276 12.449 7.99587 12.1453C8.00899 11.8417 8.08348 11.5439 8.21486 11.2698C8.34625 10.9957 8.53179 10.7511 8.7603 10.5507C8.98881 10.3504 9.25554 10.1983 9.54441 10.1039C9.83329 10.0094 10.1383 9.97445 10.4411 10.0011C10.7438 10.0277 11.038 10.1155 11.306 10.2589C11.5739 10.4024 11.81 10.5987 12 10.8359C12.1909 10.6012 12.4272 10.4073 12.6947 10.266C12.9622 10.1247 13.2555 10.0388 13.557 10.0134C13.8586 9.98808 14.1621 10.0238 14.4495 10.1185C14.7369 10.2131 15.0022 10.3648 15.2296 10.5643C15.457 10.7639 15.6419 11.0073 15.7731 11.2799C15.9043 11.5526 15.9791 11.8489 15.9932 12.1512C16.0072 12.4534 15.9601 12.7554 15.8548 13.039C15.7494 13.3226 15.5879 13.5821 15.38 13.8019L12.754 16.6579C12.6603 16.7658 12.5445 16.8523 12.4145 16.9115C12.2845 16.9708 12.1433 17.0015 12.0005 17.0015C11.8576 17.0015 11.7164 16.9708 11.5864 16.9115C11.4564 16.8523 11.3406 16.7658 11.247 16.6579L8.61996 13.7999Z" stroke="black" stroke-width="2" stroke-linecap="round" stroke-linejoin="round"/>
<path d="M3 9.99999C2.99993 9.70906 3.06333 9.42161 3.18579 9.15771C3.30824 8.8938 3.4868 8.65979 3.709 8.47199L10.709 2.47199C11.07 2.1669 11.5274 1.99951 12 1.99951C12.4726 1.99951 12.93 2.1669 13.291 2.47199L20.291 8.47199C20.5132 8.65979 20.6918 8.8938 20.8142 9.15771C20.9367 9.42161 21.0001 9.70906 21 9.99999V19C21 19.5304 20.7893 20.0391 20.4142 20.4142C20.0391 20.7893 19.5304 21 19 21H5C4.46957 21 3.96086 20.7893 3.58579 20.4142C3.21071 20.0391 3 19.5304 3 19V9.99999Z" stroke="black" stroke-width="2" stroke-linecap="round" stroke-linejoin="round"/>
</svg>
