<svg width="24" height="24" viewBox="0 0 24 24" fill="none" xmlns="http://www.w3.org/2000/svg">
<path d="M12.35 20.9999H5C4.46957 20.9999 3.96086 20.7892 3.58579 20.4141C3.21071 20.0391 3 19.5304 3 18.9999V9.99993C2.99976 9.70858 3.06318 9.4207 3.18582 9.15642C3.30846 8.89214 3.48736 8.65785 3.71 8.46993L10.71 2.46993C11.0708 2.16536 11.5278 1.99829 12 1.99829C12.4722 1.99829 12.9292 2.16536 13.29 2.46993L20.29 8.46993C20.5126 8.65785 20.6915 8.89214 20.8142 9.15642C20.9368 9.4207 21.0002 9.70858 21 9.99993V12.3499M14.8 12.4C14.7069 12.2758 14.5861 12.175 14.4472 12.1056C14.3084 12.0361 14.1552 12 14 12H10C9.73478 12 9.48043 12.1054 9.29289 12.2929C9.10536 12.4804 9 12.7348 9 13V21M15 18H21M18 15V21" stroke="black" stroke-width="2" stroke-linecap="round" stroke-linejoin="round"/>
</svg>
