<svg width="24" height="24" viewBox="0 0 24 24" fill="none" xmlns="http://www.w3.org/2000/svg">
<path d="M16 22L20 18L16 14M20 18L12 18C10.4178 18 8.87103 17.5308 7.55544 16.6518C6.23985 15.7727 5.21447 14.5233 4.60897 13.0615C4.00347 11.5997 3.84504 9.99113 4.15372 8.43928C4.4624 6.88743 5.22433 5.46197 6.34315 4.34315C7.46197 3.22433 8.88743 2.4624 10.4393 2.15372C11.9911 1.84504 13.5997 2.00347 15.0615 2.60897C16.5233 3.21447 17.7727 4.23985 18.6518 5.55544C19.5308 6.87103 20 8.41775 20 10" stroke="black" stroke-width="2" stroke-linecap="round" stroke-linejoin="round"/>
</svg>
