<svg width="24" height="24" viewBox="0 0 24 24" fill="none" xmlns="http://www.w3.org/2000/svg">
<path d="M17.2929 17.2929C17.4804 17.1054 17.7348 17 18 17H19C19.3956 17 19.7822 17.1173 20.1111 17.3371C20.44 17.5568 20.6964 17.8692 20.8478 18.2346C20.9991 18.6001 21.0387 19.0022 20.9616 19.3902C20.8844 19.7781 20.6939 20.1345 20.4142 20.4142C20.1345 20.6939 19.7781 20.8844 19.3902 20.9616C19.0022 21.0387 18.6001 20.9991 18.2346 20.8478C17.8692 20.6964 17.5568 20.44 17.3371 20.1111C17.1173 19.7822 17 19.3956 17 19V18C17 17.7348 17.1054 17.4804 17.2929 17.2929ZM17.2929 17.2929L6.70703 6.70703M6.70703 6.70703C6.51949 6.89457 6.26522 7 6 7H5C4.60444 7 4.21776 6.8827 3.88886 6.66294C3.55996 6.44318 3.30362 6.13082 3.15224 5.76537C3.00087 5.39992 2.96126 4.99778 3.03843 4.60982C3.1156 4.22186 3.30608 3.86549 3.58579 3.58579C3.86549 3.30608 4.22186 3.1156 4.60982 3.03843C4.99778 2.96126 5.39992 3.00087 5.76537 3.15224C6.13082 3.30362 6.44318 3.55996 6.66294 3.88886C6.8827 4.21776 7 4.60444 7 5V6C7 6.26522 6.89457 6.51949 6.70703 6.70703ZM20.97 3.61002C21.0006 3.52902 21.0072 3.4409 20.989 3.35625C20.9708 3.2716 20.9285 3.19401 20.8673 3.13278C20.806 3.07155 20.7284 3.02929 20.6438 3.01106C20.5591 2.99283 20.471 2.99942 20.39 3.03002C10.2 6.60002 6.60002 10.2 3.03002 20.39C2.99942 20.471 2.99283 20.5591 3.01106 20.6438C3.02929 20.7284 3.07155 20.806 3.13278 20.8673C3.19401 20.9285 3.2716 20.9708 3.35625 20.989C3.4409 21.0072 3.52902 21.0006 3.61002 20.97C13.8 17.4 17.4 13.8 20.97 3.61002Z" stroke="black" stroke-width="2" stroke-linecap="round" stroke-linejoin="round"/>
</svg>
