<svg width="24" height="24" viewBox="0 0 24 24" fill="none" xmlns="http://www.w3.org/2000/svg">
<path d="M8 6H12C12.5304 6 13.0391 6.21071 13.4142 6.58579C13.7893 6.96086 14 7.46957 14 8V13M19.9291 18.629C19.9897 18.7808 20.0122 18.9451 19.9947 19.1075C19.9771 19.27 19.92 19.4257 19.8283 19.561C19.7366 19.6962 19.6132 19.807 19.4688 19.8835C19.3245 19.9601 19.1635 20.0001 19.0001 20H9.0001C8.83677 19.9999 8.67595 19.9598 8.5317 19.8832C8.38745 19.8066 8.26416 19.6958 8.17261 19.5605C8.08105 19.4253 8.02402 19.2697 8.0065 19.1073C7.98898 18.9449 8.0115 18.7807 8.0721 18.629L10.0721 13.629C10.1462 13.4434 10.2743 13.2843 10.4397 13.1722C10.6051 13.0601 10.8003 13.0001 11.0001 13H17.0001C17.1999 13.0001 17.3951 13.0601 17.5605 13.1722C17.7259 13.2843 17.854 13.4434 17.9281 13.629L19.9291 18.629ZM6 3C6.53043 3 7.03914 3.21071 7.41421 3.58579C7.78929 3.96086 8 4.46957 8 5V7C8 7.53043 7.78929 8.03914 7.41421 8.41421C7.03914 8.78929 6.53043 9 6 9H5C4.73478 9 4.48043 8.89464 4.29289 8.70711C4.10536 8.51957 4 8.26522 4 8V4C4 3.73478 4.10536 3.48043 4.29289 3.29289C4.48043 3.10536 4.73478 3 5 3H6Z" stroke="black" stroke-width="2" stroke-linecap="round" stroke-linejoin="round"/>
</svg>
