<svg width="24" height="24" viewBox="0 0 24 24" fill="none" xmlns="http://www.w3.org/2000/svg">
<path d="M12 10V22M9 22H15M17.9291 7.629C17.9897 7.78075 18.0122 7.94505 17.9947 8.10752C17.9771 8.26999 17.92 8.42567 17.8283 8.56096C17.7366 8.69624 17.6132 8.80699 17.4688 8.88353C17.3245 8.96007 17.1635 9.00006 17.0001 9H7.0001C6.83677 8.9999 6.67595 8.95979 6.5317 8.88318C6.38745 8.80657 6.26416 8.6958 6.17261 8.56054C6.08105 8.42528 6.02402 8.26966 6.0065 8.10727C5.98898 7.94488 6.0115 7.78067 6.0721 7.629L8.0721 2.629C8.14623 2.44344 8.27426 2.28434 8.43967 2.17223C8.60507 2.06011 8.80028 2.00013 9.0001 2H15.0001C15.1999 2.00013 15.3951 2.06011 15.5605 2.17223C15.7259 2.28434 15.854 2.44344 15.9281 2.629L17.9291 7.629Z" stroke="black" stroke-width="2" stroke-linecap="round" stroke-linejoin="round"/>
</svg>
