<svg width="24" height="24" viewBox="0 0 24 24" fill="none" xmlns="http://www.w3.org/2000/svg">
<path d="M8 18H12C12.5304 18 13.0391 17.7893 13.4142 17.4142C13.7893 17.0391 14 16.5304 14 16V11M19.9291 9.629C19.9897 9.78075 20.0122 9.94505 19.9947 10.1075C19.9771 10.27 19.92 10.4257 19.8283 10.561C19.7366 10.6962 19.6132 10.807 19.4688 10.8835C19.3245 10.9601 19.1635 11.0001 19.0001 11H9.0001C8.83677 10.9999 8.67595 10.9598 8.5317 10.8832C8.38745 10.8066 8.26416 10.6958 8.17261 10.5605C8.08105 10.4253 8.02402 10.2697 8.0065 10.1073C7.98898 9.94488 8.0115 9.78067 8.0721 9.629L10.0721 4.629C10.1462 4.44344 10.2743 4.28434 10.4397 4.17223C10.6051 4.06011 10.8003 4.00013 11.0001 4H17.0001C17.1999 4.00013 17.3951 4.06011 17.5605 4.17223C17.7259 4.28434 17.854 4.44344 17.9281 4.629L19.9291 9.629ZM6 15C6.53043 15 7.03914 15.2107 7.41421 15.5858C7.78929 15.9609 8 16.4696 8 17V19C8 19.5304 7.78929 20.0391 7.41421 20.4142C7.03914 20.7893 6.53043 21 6 21H5C4.73478 21 4.48043 20.8946 4.29289 20.7071C4.10536 20.5196 4 20.2652 4 20V16C4 15.7348 4.10536 15.4804 4.29289 15.2929C4.48043 15.1054 4.73478 15 5 15H6Z" stroke="black" stroke-width="2" stroke-linecap="round" stroke-linejoin="round"/>
</svg>
