<svg width="24" height="24" viewBox="0 0 24 24" fill="none" xmlns="http://www.w3.org/2000/svg">
<path d="M3.70404 14.4671C2.32744 12.8314 1.75441 10.8467 2.09495 8.89375C2.43549 6.94082 3.66559 5.1573 5.54917 3.88549C7.43275 2.61367 9.83711 1.94317 12.3008 2.00267C14.7645 2.06217 17.1139 2.84747 18.8981 4.20786C20.6824 5.56825 21.7758 7.40788 21.9685 9.37369C22.1611 11.3395 21.4395 13.293 19.9421 14.8592C18.4447 16.4254 16.2769 17.4941 13.855 17.86C11.433 18.226 8.92738 17.8635 6.81904 16.8421M7 22.0001C6.37983 21.535 5.87631 20.932 5.5292 20.2389C5.1821 19.5457 5.00093 18.7813 5 18.0061M7 16C7 17.1046 6.10457 18 5 18C3.89543 18 3 17.1046 3 16C3 14.8954 3.89543 14 5 14C6.10457 14 7 14.8954 7 16Z" stroke="black" stroke-width="2" stroke-linecap="round" stroke-linejoin="round"/>
</svg>
