<svg width="24" height="24" viewBox="0 0 24 24" fill="none" xmlns="http://www.w3.org/2000/svg">
<path d="M16 17H22M19 14V20M2 12C1.99953 12.1913 2.05392 12.3787 2.15672 12.5399C2.25952 12.7012 2.40642 12.8297 2.58 12.91L11.18 16.82C11.4392 16.9373 11.7205 16.998 12.005 16.998M2 17C1.99953 17.1913 2.05392 17.3787 2.15672 17.5399C2.25952 17.7012 2.40642 17.8297 2.58 17.91L11.18 21.82C11.4392 21.9374 11.7205 21.9981 12.005 21.9981C12.2895 21.9981 12.5708 21.9374 12.83 21.82L14.946 20.858M12.83 2.18011C12.5694 2.06126 12.2864 1.99976 12 1.99976C11.7136 1.99976 11.4305 2.06126 11.17 2.18011L2.59996 6.08011C2.42251 6.15836 2.27164 6.28651 2.16573 6.44897C2.05981 6.61143 2.00342 6.80118 2.00342 6.99511C2.00342 7.18905 2.05981 7.3788 2.16573 7.54126C2.27164 7.70371 2.42251 7.83187 2.59996 7.91011L11.18 11.8201C11.4406 11.9388 11.7236 12.0002 12.01 12.0001C12.2963 12.0002 12.5794 11.9388 12.84 11.8201L21.42 7.92011C21.5977 7.842 21.7489 7.71385 21.855 7.55128C21.9611 7.38871 22.0176 7.19876 22.0176 7.00461C22.0176 6.81047 21.9611 6.62052 21.855 6.45795C21.7489 6.29538 21.5977 6.16722 21.42 6.08911L12.83 2.18011Z" stroke="black" stroke-width="2" stroke-linecap="round" stroke-linejoin="round"/>
</svg>
