<svg width="24" height="24" viewBox="0 0 24 24" fill="none" xmlns="http://www.w3.org/2000/svg">
<path d="M15.9999 12H18.9999C19.422 12.0001 19.8334 11.8667 20.175 11.6188C20.5166 11.3709 20.7711 11.0213 20.9019 10.62L21.9579 7.287C22.0027 7.13769 22.0119 6.97999 21.9848 6.82649C21.9578 6.67298 21.8952 6.52793 21.8022 6.4029C21.7091 6.27786 21.5881 6.17632 21.4488 6.10637C21.3095 6.03641 21.1558 5.99999 20.9999 6H2.99995C2.84408 5.99999 2.69037 6.03641 2.55108 6.10637C2.41179 6.17632 2.29078 6.27786 2.19771 6.4029C2.10465 6.52793 2.04209 6.67298 2.01505 6.82649C1.988 6.97999 1.99721 7.13769 2.04195 7.287L3.09795 10.621C3.22897 11.0221 3.4835 11.3715 3.82513 11.6192C4.16676 11.8669 4.57798 12.0002 4.99995 12H7.99995M18 6V3C18 2.73478 17.8946 2.48043 17.7071 2.29289C17.5196 2.10536 17.2652 2 17 2H14M9 10H15C15.5523 10 16 10.4477 16 11V21C16 21.5523 15.5523 22 15 22H9C8.44772 22 8 21.5523 8 21V11C8 10.4477 8.44772 10 9 10Z" stroke="black" stroke-width="2" stroke-linecap="round" stroke-linejoin="round"/>
</svg>
