<svg width="24" height="24" viewBox="0 0 24 24" fill="none" xmlns="http://www.w3.org/2000/svg">
<path d="M13.4331 2C13.5966 2.00161 13.7572 2.0433 13.9008 2.1214C14.0445 2.19951 14.1668 2.31165 14.2571 2.448C16.0499 5.31144 17.0006 8.62163 17.0006 12C17.0006 15.3784 16.0499 18.6886 14.2571 21.552C14.1668 21.6884 14.0445 21.8005 13.9008 21.8786C13.7572 21.9567 13.5966 21.9984 13.4331 22H10.5671C10.4036 21.9984 10.2429 21.9567 10.0993 21.8786C9.95562 21.8005 9.83331 21.6884 9.74306 21.552C7.95027 18.6886 6.99951 15.3784 6.99951 12C6.99951 8.62163 7.95027 5.31144 9.74306 2.448C9.83331 2.31165 9.95562 2.19951 10.0993 2.1214C10.2429 2.0433 10.4036 2.00161 10.5671 2H13.4331Z" stroke="black" stroke-width="2" stroke-linecap="round" stroke-linejoin="round"/>
</svg>
