<svg width="24" height="24" viewBox="0 0 24 24" fill="none" xmlns="http://www.w3.org/2000/svg">
<path d="M12 19V22M16.95 16.95C15.6372 18.2629 13.8566 19 12 19C10.1434 19 8.36281 18.2629 7.04999 16.95C5.73717 15.6372 5 13.8566 5 12M12 2V5M18.89 13.2399C19.0903 12.1281 19.0185 10.9844 18.6807 9.90635C18.343 8.82834 17.7494 7.84808 16.9506 7.04928C16.1518 6.25048 15.1716 5.65687 14.0935 5.31915C13.0155 4.98143 11.8718 4.90963 10.76 5.10988M19 12H22M2 12H5M5 12C5 10.1434 5.73717 8.36287 7.04999 7.05005M2 2L22 22" stroke="black" stroke-width="2" stroke-linecap="round" stroke-linejoin="round"/>
</svg>
