<svg width="24" height="24" viewBox="0 0 24 24" fill="none" xmlns="http://www.w3.org/2000/svg">
<path d="M12 15L16 19M5 8L9 12M2.35202 10.6481C2.12608 10.8741 1.99915 11.1805 1.99915 11.5001C1.99915 11.8196 2.12608 12.1261 2.35202 12.3521L4.64802 14.6481C4.87399 14.874 5.18046 15.001 5.50002 15.001C5.81957 15.001 6.12604 14.874 6.35202 14.6481L12.381 8.61909C12.578 8.42211 12.8119 8.26585 13.0692 8.15925C13.3266 8.05264 13.6024 7.99777 13.881 7.99777C14.1596 7.99777 14.4354 8.05264 14.6928 8.15925C14.9502 8.26585 15.184 8.42211 15.381 8.61909C15.578 8.81608 15.7343 9.04993 15.8409 9.3073C15.9475 9.56467 16.0023 9.84052 16.0023 10.1191C16.0023 10.3977 15.9475 10.6735 15.8409 10.9309C15.7343 11.1883 15.578 11.4221 15.381 11.6191L9.35202 17.6481C9.12608 17.8741 8.99915 18.1805 8.99915 18.5001C8.99915 18.8196 9.12608 19.1261 9.35202 19.3521L11.648 21.6481C11.874 21.874 12.1805 22.001 12.5 22.001C12.8196 22.001 13.126 21.874 13.352 21.6481L19.717 15.2811C21.1756 13.8223 21.9949 11.8438 21.9947 9.78089C21.9945 7.71799 21.1748 5.73965 19.716 4.28109C18.9937 3.55889 18.1362 2.98603 17.1924 2.59523C16.2487 2.20442 15.2373 2.00333 14.2158 2.00342C12.1529 2.00361 10.1746 2.82327 8.71602 4.28209L2.35202 10.6481Z" stroke="black" stroke-width="2" stroke-linecap="round" stroke-linejoin="round"/>
</svg>
