<svg width="24" height="24" viewBox="0 0 24 24" fill="none" xmlns="http://www.w3.org/2000/svg">
<path d="M15 5.76395C14.6897 5.76395 14.3836 5.69173 14.106 5.55302L9.894 3.44702C9.6164 3.3083 9.31033 3.23608 9 3.23608C8.68967 3.23608 8.3836 3.3083 8.106 3.44702L3.553 5.72402C3.38692 5.80701 3.24722 5.93459 3.14956 6.09249C3.05189 6.25039 3.0001 6.43235 3 6.61802V19.381C2.99958 19.5517 3.04284 19.7196 3.12565 19.8688C3.20846 20.018 3.32808 20.1435 3.47312 20.2334C3.61816 20.3233 3.78379 20.3746 3.95426 20.3824C4.12473 20.3902 4.29436 20.3543 4.447 20.278L8.106 18.448C8.3836 18.3093 8.68967 18.2371 9 18.2371C9.31033 18.2371 9.6164 18.3093 9.894 18.448L11 19M9 3.23608L9 18.2361M15 5.76395C15.3103 5.76395 15.6164 5.69173 15.894 5.55302L19.553 3.72302C19.7056 3.64678 19.8751 3.61083 20.0455 3.61858C20.2159 3.62634 20.3814 3.67755 20.5265 3.76735C20.6715 3.85714 20.7911 3.98253 20.874 4.1316C20.9569 4.28067 21.0003 4.44846 21 4.61902V12M15 5.76395L15 11.9999M18 15V21M21 18H15" stroke="black" stroke-width="2" stroke-linecap="round" stroke-linejoin="round"/>
</svg>
