<svg width="24" height="24" viewBox="0 0 24 24" fill="none" xmlns="http://www.w3.org/2000/svg">
<path d="M11.636 6C14.4594 5.93479 17.1848 4.9519 19.4 3.2C19.5486 3.08857 19.7252 3.02072 19.9102 3.00404C20.0951 2.98736 20.2811 3.02252 20.4472 3.10557C20.6133 3.18863 20.753 3.31629 20.8506 3.47427C20.9483 3.63225 21 3.81429 21 4V15.344M14.378 14.357C13.2725 14.0908 12.1368 13.9707 11 14H5C4.46957 14 3.96086 13.7893 3.58579 13.4142C3.21071 13.0391 3 12.5304 3 12V8C3 7.46957 3.21071 6.96086 3.58579 6.58579C3.96086 6.21071 4.46957 6 5 6H6M2 2L22 22M6 14C6 16.5964 6.84213 19.1228 8.4 21.2C8.71826 21.6243 9.19206 21.9049 9.71716 21.9799C10.2423 22.0549 10.7757 21.9183 11.2 21.6C11.6243 21.2817 11.9049 20.8079 11.9799 20.2828C12.0549 19.7577 11.9183 19.2243 11.6 18.8C10.5614 17.4152 10 15.731 10 14M8 8V14" stroke="black" stroke-width="2" stroke-linecap="round" stroke-linejoin="round"/>
</svg>
