<svg width="24" height="24" viewBox="0 0 24 24" fill="none" xmlns="http://www.w3.org/2000/svg">
<path d="M14 3H16M16 19H14M2 12V10M2 16V21.286C2.00002 21.4264 2.04167 21.5637 2.11969 21.6804C2.1977 21.7971 2.30858 21.8881 2.43831 21.9419C2.56803 21.9956 2.71077 22.0097 2.84849 21.9823C2.9862 21.9549 3.1127 21.8873 3.212 21.788L4.361 20.639M20 19C20.5304 19 21.0391 18.7893 21.4142 18.4142C21.7893 18.0391 22 17.5304 22 17V16M22 10V12M22 6V5C22 4.46957 21.7893 3.96086 21.4142 3.58579C21.0391 3.21071 20.5304 3 20 3M4 3C3.46957 3 2.96086 3.21071 2.58579 3.58579C2.21071 3.96086 2 4.46957 2 5V6M8 19H10M8 3H10" stroke="black" stroke-width="2" stroke-linecap="round" stroke-linejoin="round"/>
</svg>
