<svg width="24" height="24" viewBox="0 0 24 24" fill="none" xmlns="http://www.w3.org/2000/svg">
<path d="M19 19.0001H6.82796C6.29757 19.0002 5.78895 19.211 5.41396 19.5861L3.21196 21.7881C3.11473 21.8926 2.98787 21.9648 2.8484 21.9952C2.70893 22.0256 2.56352 22.0126 2.43165 21.9579C2.29977 21.9033 2.18775 21.8097 2.1106 21.6896C2.03344 21.5695 1.99484 21.4287 1.99996 21.2861V5.00007C1.99996 4.61389 2.11176 4.23596 2.32186 3.91193C2.53196 3.58791 2.83138 3.33164 3.18396 3.17407M2 2L22 22M8.65601 3H20C20.5304 3 21.0391 3.21071 21.4142 3.58579C21.7893 3.96086 22 4.46957 22 5V16.344" stroke="black" stroke-width="2" stroke-linecap="round" stroke-linejoin="round"/>
</svg>
