<svg width="24" height="24" viewBox="0 0 24 24" fill="none" xmlns="http://www.w3.org/2000/svg">
<path d="M22 8.5V5C22 4.46957 21.7893 3.96086 21.4142 3.58579C21.0391 3.21071 20.5304 3 20 3H4C3.46957 3 2.96086 3.21071 2.58579 3.58579C2.21071 3.96086 2 4.46957 2 5V21.286C2.00002 21.4264 2.04167 21.5637 2.11969 21.6804C2.1977 21.7971 2.30858 21.8881 2.43831 21.9419C2.56803 21.9956 2.71077 22.0097 2.84849 21.9823C2.9862 21.9549 3.1127 21.8873 3.212 21.788L5.414 19.586C5.78899 19.2109 6.29761 19.0001 6.828 19H10M20 15V13C20 12.4696 19.7893 11.9609 19.4142 11.5858C19.0391 11.2107 18.5304 11 18 11C17.4696 11 16.9609 11.2107 16.5858 11.5858C16.2107 11.9609 16 12.4696 16 13V15M15 15H21C21.5523 15 22 15.4477 22 16V19C22 19.5523 21.5523 20 21 20H15C14.4477 20 14 19.5523 14 19V16C14 15.4477 14.4477 15 15 15Z" stroke="black" stroke-width="2" stroke-linecap="round" stroke-linejoin="round"/>
</svg>
