<svg width="24" height="24" viewBox="0 0 24 24" fill="none" xmlns="http://www.w3.org/2000/svg">
<path d="M2.99206 16.3419C3.1391 16.7129 3.17183 17.1193 3.08606 17.5089L2.02106 20.7989C1.98674 20.9658 1.99561 21.1386 2.04683 21.3011C2.09805 21.4635 2.18992 21.6102 2.31372 21.7272C2.43753 21.8442 2.58917 21.9276 2.75426 21.9696C2.91935 22.0115 3.09242 22.0106 3.25706 21.9669L6.67006 20.9689C7.03777 20.896 7.41859 20.9279 7.76906 21.0609C9.90444 22.0582 12.3234 22.2691 14.5992 21.6567C16.875 21.0442 18.8613 19.6476 20.2078 17.7133C21.5542 15.779 22.1742 13.4313 21.9584 11.0845C21.7425 8.73763 20.7048 6.54241 19.0281 4.88613C17.3515 3.22986 15.1438 2.21898 12.7944 2.03183C10.4451 1.84469 8.10519 2.49332 6.1875 3.86328C4.26981 5.23323 2.89759 7.23648 2.31295 9.51958C1.72831 11.8027 1.96883 14.2189 2.99206 16.3419Z" stroke="black" stroke-width="2" stroke-linecap="round" stroke-linejoin="round"/>
<path d="M7.82796 13.0701C7.29189 12.5094 6.99388 11.7628 6.99648 10.987C6.99907 10.2113 7.30207 9.46666 7.84188 8.90951C8.38169 8.35236 9.11633 8.02599 9.89162 7.99887C10.6669 7.97176 11.4226 8.24603 12 8.76411C12.4307 8.37743 12.9642 8.12363 13.5359 8.03332C14.1077 7.94301 14.6934 8.02005 15.2224 8.25515C15.7514 8.49025 16.201 8.87337 16.5171 9.35829C16.8333 9.84322 17.0023 10.4092 17.004 10.9881C17.0064 11.7639 16.7082 12.5105 16.172 13.0711L12.725 16.6911C12.6315 16.7894 12.519 16.8676 12.3943 16.921C12.2696 16.9745 12.1354 17.002 11.9997 17.0019C11.8641 17.0018 11.7299 16.9741 11.6053 16.9205C11.4807 16.8669 11.3683 16.7885 11.275 16.6901L7.82796 13.0701Z" stroke="black" stroke-width="2" stroke-linecap="round" stroke-linejoin="round"/>
</svg>
