<svg width="24" height="24" viewBox="0 0 24 24" fill="none" xmlns="http://www.w3.org/2000/svg">
<path d="M10.1 2.18191C11.355 1.93904 12.645 1.93904 13.9 2.18191M13.9 21.8181C12.645 22.061 11.355 22.061 10.1 21.8181M17.609 3.71997C18.6705 4.43919 19.5837 5.35584 20.299 6.41997M2.18204 13.9001C1.93916 12.6451 1.93916 11.3551 2.18204 10.1001M20.28 17.6101C19.5607 18.6716 18.6441 19.5848 17.58 20.3001M21.818 10.1001C22.0609 11.3551 22.0609 12.6451 21.818 13.9001M3.72095 6.39093C4.44017 5.32946 5.35682 4.41621 6.42095 3.70093M6.16297 21.1171L3.25697 21.9671C3.09223 22.0109 2.91904 22.0118 2.75385 21.9698C2.58866 21.9278 2.43694 21.8443 2.3131 21.7272C2.18927 21.61 2.09743 21.4632 2.0463 21.3006C1.99517 21.138 1.98645 20.965 2.02096 20.7981L2.98597 17.8181" stroke="black" stroke-width="2" stroke-linecap="round" stroke-linejoin="round"/>
</svg>
