<svg width="24" height="24" viewBox="0 0 24 24" fill="none" xmlns="http://www.w3.org/2000/svg">
<path d="M9 11L11 13L15 9M22 17C22 17.5304 21.7892 18.0391 21.4142 18.4142C21.0391 18.7893 20.5304 19 20 19H6.82796C6.29757 19.0001 5.78895 19.2109 5.41396 19.586L3.21196 21.788C3.11473 21.8925 2.98787 21.9648 2.8484 21.9951C2.70893 22.0255 2.56352 22.0125 2.43165 21.9579C2.29977 21.9032 2.18775 21.8096 2.1106 21.6895C2.03344 21.5694 1.99484 21.4286 1.99996 21.286V5C1.99996 4.46957 2.21068 3.96086 2.58575 3.58579C2.96082 3.21071 3.46953 3 3.99996 3H20C20.5304 3 21.0391 3.21071 21.4142 3.58579C21.7892 3.96086 22 4.46957 22 5V17Z" stroke="black" stroke-width="2" stroke-linecap="round" stroke-linejoin="round"/>
</svg>
