<svg width="24" height="24" viewBox="0 0 24 24" fill="none" xmlns="http://www.w3.org/2000/svg">
<path d="M12 11.4001V9.1001M12 16.9999L18.59 10.4099M15.05 5.69998L14.832 5.00898C14.6265 4.42195 14.2436 3.9133 13.7363 3.55343C13.2291 3.19356 12.6225 3.00024 12.0005 3.00024C11.3785 3.00024 10.772 3.19356 10.2647 3.55343C9.7574 3.9133 9.37452 4.42195 9.16901 5.00898L4.41801 19.695C4.36999 19.8449 4.35805 20.004 4.38316 20.1595C4.40826 20.3149 4.46971 20.4621 4.56248 20.5893C4.65526 20.7165 4.77675 20.82 4.91708 20.8913C5.0574 20.9627 5.21258 20.9999 5.37001 21H18.623C18.7809 21 18.9366 20.9627 19.0773 20.891C19.218 20.8193 19.3397 20.7152 19.4325 20.5875C19.5253 20.4597 19.5865 20.3117 19.6111 20.1557C19.6357 19.9997 19.623 19.8401 19.574 19.69L18.45 16.2M22 9C22 10.1046 21.1046 11 20 11C18.8954 11 18 10.1046 18 9C18 7.89543 18.8954 7 20 7C21.1046 7 22 7.89543 22 9Z" stroke="black" stroke-width="2" stroke-linecap="round" stroke-linejoin="round"/>
</svg>
