<svg width="24" height="24" viewBox="0 0 24 24" fill="none" xmlns="http://www.w3.org/2000/svg">
<path d="M12 17V21M8 21H16M11 13C10.4501 12.9997 9.91082 12.8483 9.44113 12.5622C8.97145 12.2762 8.58943 11.8665 8.33682 11.3781C8.08421 10.8896 7.97073 10.3411 8.00878 9.79245C8.04682 9.24384 8.23493 8.71624 8.55255 8.26731C8.87017 7.81838 9.30508 7.46539 9.80975 7.24691C10.3144 7.02843 10.8694 6.95288 11.4141 7.0285C11.9588 7.10413 12.4723 7.32802 12.8983 7.67571C13.3244 8.02341 13.6467 8.48152 13.83 9H14C14.5304 9 15.0392 9.21072 15.4142 9.58579C15.7893 9.96086 16 10.4696 16 11C16 11.5304 15.7893 12.0391 15.4142 12.4142C15.0392 12.7893 14.5304 13 14 13H11ZM4 3H20C21.1046 3 22 3.89543 22 5V15C22 16.1046 21.1046 17 20 17H4C2.89543 17 2 16.1046 2 15V5C2 3.89543 2.89543 3 4 3Z" stroke="black" stroke-width="2" stroke-linecap="round" stroke-linejoin="round"/>
</svg>
