<svg width="24" height="24" viewBox="0 0 24 24" fill="none" xmlns="http://www.w3.org/2000/svg">
<path d="M12 17V21M14.3051 7.52995L15.2281 7.14795M15.2281 4.85199L14.3051 4.46899M16.852 3.22796L16.469 2.30396M16.852 8.77197L16.469 9.69497M19.1479 3.22796L19.5309 2.30396M19.5299 9.69597L19.1479 8.77197M20.772 4.85199L21.696 4.46899M20.772 7.14795L21.696 7.53095M22 13V15C22 15.5304 21.7893 16.0391 21.4142 16.4142C21.0391 16.7893 20.5304 17 20 17H4C3.46957 17 2.96086 16.7893 2.58579 16.4142C2.21071 16.0391 2 15.5304 2 15V5C2 4.46957 2.21071 3.96086 2.58579 3.58579C2.96086 3.21071 3.46957 3 4 3H11M8 21H16M21 6C21 7.65685 19.6569 9 18 9C16.3431 9 15 7.65685 15 6C15 4.34315 16.3431 3 18 3C19.6569 3 21 4.34315 21 6Z" stroke="black" stroke-width="2" stroke-linecap="round" stroke-linejoin="round"/>
</svg>
