<svg width="24" height="24" viewBox="0 0 24 24" fill="none" xmlns="http://www.w3.org/2000/svg">
<path d="M12 17V21M17 17.0001H4C3.46957 17.0001 2.96086 16.7894 2.58579 16.4143C2.21071 16.0392 2 15.5305 2 15.0001V5.00007C1.99999 4.61389 2.11179 4.23596 2.3219 3.91193C2.532 3.58791 2.83142 3.33164 3.184 3.17407M2 2L22 22M8 21H16M8.65601 3H20C20.5304 3 21.0391 3.21071 21.4142 3.58579C21.7893 3.96086 22 4.46957 22 5V15C22 15.3677 21.8986 15.7282 21.707 16.042" stroke="black" stroke-width="2" stroke-linecap="round" stroke-linejoin="round"/>
</svg>
