<svg width="24" height="24" viewBox="0 0 24 24" fill="none" xmlns="http://www.w3.org/2000/svg">
<path d="M18 14L17 11M3 9L9 11C9 10.4696 9.21071 9.96086 9.58579 9.58579C9.96086 9.21071 10.4696 9 11 9H13C13.4974 9.00024 13.9768 9.18579 14.3448 9.52046C14.7127 9.85512 14.9427 10.3149 14.99 10.81M8 17H11C11.2652 17 11.5196 16.8946 11.7071 16.7071C11.8946 16.5196 12 16.2652 12 16C12 14.4087 12.6321 12.8826 13.7574 11.7574C14.8826 10.6321 16.4087 10 18 10C18.2652 10 18.5196 9.89464 18.7071 9.70711C18.8946 9.51957 19 9.26522 19 9V8.25C18.7892 6.94486 18.0701 5.77632 17 5M8 17C8 18.6569 6.65685 20 5 20C3.34315 20 2 18.6569 2 17C2 15.3431 3.34315 14 5 14C6.65685 14 8 15.3431 8 17ZM22 17C22 18.6569 20.6569 20 19 20C17.3431 20 16 18.6569 16 17C16 15.3431 17.3431 14 19 14C20.6569 14 22 15.3431 22 17Z" stroke="black" stroke-width="2" stroke-linecap="round" stroke-linejoin="round"/>
</svg>
