<svg width="24" height="24" viewBox="0 0 24 24" fill="none" xmlns="http://www.w3.org/2000/svg">
<path d="M12 7.31812V10.0001M19 10V15C19 16.8565 18.2625 18.637 16.9497 19.9497C15.637 21.2625 13.8565 22 12 22C10.1435 22 8.36301 21.2625 7.05025 19.9497C5.7375 18.637 5 16.8565 5 15V9C5 5.473 7.608 2.485 11 2M19 4C19 5.10457 18.1046 6 17 6C15.8954 6 15 5.10457 15 4C15 2.89543 15.8954 2 17 2C18.1046 2 19 2.89543 19 4Z" stroke="black" stroke-width="2" stroke-linecap="round" stroke-linejoin="round"/>
</svg>
