<svg width="24" height="24" viewBox="0 0 24 24" fill="none" xmlns="http://www.w3.org/2000/svg">
<path d="M15.55 8.44995L20.688 10.537C20.7852 10.5766 20.8676 10.6459 20.9233 10.7349C20.979 10.824 21.0052 10.9284 20.9982 11.0332C20.9912 11.138 20.9514 11.238 20.8844 11.3189C20.8174 11.3998 20.7266 11.4576 20.625 11.484L14.501 13.064C14.1549 13.1529 13.8391 13.3329 13.5862 13.5853C13.3333 13.8376 13.1526 14.1531 13.063 14.499L11.484 20.625C11.4576 20.7266 11.3998 20.8174 11.3189 20.8844C11.238 20.9514 11.138 20.9912 11.0332 20.9982C10.9284 21.0052 10.824 20.979 10.7349 20.9233C10.6459 20.8676 10.5766 20.7852 10.537 20.688L8.44995 15.551M22 2L2 22M6.8159 11.5279L4.0369 4.6879C3.99743 4.59682 3.98626 4.49597 4.00484 4.39846C4.02342 4.30094 4.07088 4.21127 4.14108 4.14108C4.21127 4.07088 4.30094 4.02342 4.39846 4.00484C4.49597 3.98626 4.59682 3.99743 4.6879 4.0369L11.5279 6.8159" stroke="black" stroke-width="2" stroke-linecap="round" stroke-linejoin="round"/>
</svg>
