<svg width="24" height="24" viewBox="0 0 24 24" fill="none" xmlns="http://www.w3.org/2000/svg">
<path d="M14 4.1001L12 6.0001M5.09995 7.99995L2.19995 7.19995M6.0001 12L4.1001 14M7.19995 2.19995L7.99995 5.09995M9.03691 9.68991C8.99813 9.59856 8.98753 9.49771 9.00646 9.4003C9.0254 9.30288 9.073 9.21335 9.14318 9.14318C9.21335 9.073 9.30288 9.0254 9.4003 9.00646C9.49771 8.98753 9.59856 8.99813 9.68991 9.03691L20.6899 13.5369C20.7878 13.5771 20.8704 13.6473 20.9259 13.7374C20.9814 13.8275 21.0068 13.9329 20.9986 14.0384C20.9904 14.1439 20.9489 14.244 20.8801 14.3245C20.8114 14.4049 20.7188 14.4614 20.6159 14.4859L16.2669 15.5269C16.0874 15.5698 15.9232 15.6615 15.7926 15.792C15.662 15.9224 15.57 16.0864 15.5269 16.2659L14.4869 20.6159C14.4627 20.7192 14.4062 20.8121 14.3257 20.8812C14.2451 20.9503 14.1447 20.9919 14.039 21.0002C13.9332 21.0084 13.8275 20.9828 13.7373 20.927C13.647 20.8712 13.5768 20.7882 13.5369 20.6899L9.03691 9.68991Z" stroke="black" stroke-width="2" stroke-linecap="round" stroke-linejoin="round"/>
</svg>
