<svg width="24" height="24" viewBox="0 0 24 24" fill="none" xmlns="http://www.w3.org/2000/svg">
<path d="M20.3411 6.48389C21.4199 8.11454 21.9971 10.0257 22.0011 11.9809C22.0051 13.9361 21.4359 15.8496 20.3638 17.4847C19.2918 19.1198 17.7639 20.4047 15.9692 21.1806C14.1745 21.9564 12.1917 22.1891 10.2661 21.8499M3.65906 17.5161C2.58025 15.885 2.00336 13.9734 1.99977 12.0179C1.99618 10.0623 2.56606 8.1486 3.63887 6.51357C4.71169 4.87854 6.24036 3.59395 8.03572 2.81875C9.83108 2.04356 11.8143 1.81179 13.7401 2.15211M15 12C15 13.6569 13.6569 15 12 15C10.3431 15 9 13.6569 9 12C9 10.3431 10.3431 9 12 9C13.6569 9 15 10.3431 15 12ZM21 5C21 6.10457 20.1046 7 19 7C17.8954 7 17 6.10457 17 5C17 3.89543 17.8954 3 19 3C20.1046 3 21 3.89543 21 5ZM7 19C7 20.1046 6.10457 21 5 21C3.89543 21 3 20.1046 3 19C3 17.8954 3.89543 17 5 17C6.10457 17 7 17.8954 7 19Z" stroke="black" stroke-width="2" stroke-linecap="round" stroke-linejoin="round"/>
</svg>
