<svg width="24" height="24" viewBox="0 0 24 24" fill="none" xmlns="http://www.w3.org/2000/svg">
<path d="M11 7L6 2M18.992 12H2.04102M8.49993 4.4999L10.6479 2.3519C10.8739 2.12595 11.1804 1.99902 11.4999 1.99902C11.8195 1.99902 12.126 2.12595 12.3519 2.3519L19.6479 9.6479C19.8739 9.87387 20.0008 10.1803 20.0008 10.4999C20.0008 10.8195 19.8739 11.1259 19.6479 11.3519L12.0559 18.9439C11.378 19.6217 10.4586 20.0025 9.49993 20.0025C8.54127 20.0025 7.62186 19.6217 6.94393 18.9439L3.05593 15.0559C2.37811 14.378 1.99731 13.4586 1.99731 12.4999C1.99731 11.5412 2.37811 10.6218 3.05593 9.9439L5.66993 7.3299M21.1449 18.38C20.5618 17.9007 20.1582 17.238 19.9999 16.5C19.8447 17.2392 19.4405 17.9028 18.8549 18.38C18.2799 18.84 17.9999 19.4 17.9999 19.975C17.9966 20.2397 18.0459 20.5025 18.1449 20.748C18.2439 20.9936 18.3907 21.217 18.5768 21.4054C18.7628 21.5938 18.9844 21.7433 19.2287 21.8454C19.473 21.9475 19.7352 22 19.9999 22C20.2647 22 20.5268 21.9475 20.7711 21.8454C21.0154 21.7433 21.237 21.5938 21.423 21.4054C21.6091 21.217 21.7559 20.9936 21.8549 20.748C21.9539 20.5025 22.0032 20.2397 21.9999 19.975C21.9999 19.395 21.7149 18.845 21.1449 18.38Z" stroke="black" stroke-width="2" stroke-linecap="round" stroke-linejoin="round"/>
</svg>
