<svg width="24" height="24" viewBox="0 0 24 24" fill="none" xmlns="http://www.w3.org/2000/svg">
<path d="M10.1 13.8999C11.1888 14.9884 12.4497 15.8898 13.832 16.5679C14.0385 16.6628 14.2712 16.6844 14.4917 16.6293C14.7122 16.5743 14.9073 16.4457 15.045 16.2649L15.4 15.7999C15.5863 15.5515 15.8278 15.3499 16.1055 15.211C16.3833 15.0722 16.6895 14.9999 17 14.9999H20C20.5304 14.9999 21.0391 15.2106 21.4142 15.5857C21.7893 15.9608 22 16.4695 22 16.9999V19.9999C22 20.5303 21.7893 21.039 21.4142 21.4141C21.0391 21.7892 20.5304 21.9999 20 21.9999C17.6362 21.9999 15.2955 21.5344 13.1116 20.6298C10.9278 19.7252 8.94344 18.3994 7.27197 16.7279M22 2L2 22M4.76 13.582C2.956 10.7116 1.99929 7.39018 2 4C2 3.46957 2.21071 2.96086 2.58579 2.58579C2.96086 2.21071 3.46957 2 4 2H7C7.53043 2 8.03914 2.21071 8.41421 2.58579C8.78929 2.96086 9 3.46957 9 4V7C9 7.31049 8.92771 7.61672 8.78886 7.89443C8.65 8.17214 8.44839 8.41371 8.2 8.6L7.732 8.951C7.54842 9.09118 7.41902 9.29059 7.36579 9.51535C7.31256 9.74012 7.33878 9.97638 7.44 10.184C7.51833 10.3432 7.59968 10.5009 7.684 10.657" stroke="black" stroke-width="2" stroke-linecap="round" stroke-linejoin="round"/>
</svg>
