<svg width="24" height="24" viewBox="0 0 24 24" fill="none" xmlns="http://www.w3.org/2000/svg">
<path d="M5 11C5 9.4087 5.63214 7.88258 6.75736 6.75736C7.88258 5.63214 9.4087 5 11 5H14.5L14.8 4.6C15.1726 4.10322 15.6557 3.7 16.2111 3.42229C16.7666 3.14458 17.379 3 18 3V6C18.621 6.46574 19.125 7.06966 19.4721 7.76393C19.8193 8.45821 20 9.22377 20 10H21C21.2652 10 21.5196 10.1054 21.7071 10.2929C21.8946 10.4804 22 10.7348 22 11V13C22 13.2652 21.8946 13.5196 21.7071 13.7071C21.5196 13.8946 21.2652 14 21 14H20C19.8449 14.4658 19.5834 14.8891 19.2363 15.2363C18.8891 15.5834 18.4658 15.8449 18 16V19C18 19.2652 17.8946 19.5196 17.7071 19.7071C17.5196 19.8946 17.2652 20 17 20H15C14.7348 20 14.4804 19.8946 14.2929 19.7071C14.1054 19.5196 14 19.2652 14 19V17H11V19C11 19.2652 10.8946 19.5196 10.7071 19.7071C10.5196 19.8946 10.2652 20 10 20H8C7.73478 20 7.48043 19.8946 7.29289 19.7071C7.10536 19.5196 7 19.2652 7 19V16C6.37902 15.5343 5.875 14.9303 5.52786 14.2361C5.18073 13.5418 5 12.7762 5 12V11ZM5 11H4C3.46957 11 2.96086 10.7893 2.58579 10.4142C2.21071 10.0391 2 9.53043 2 9V8M16 10H16.01" stroke="black" stroke-width="2" stroke-linecap="round" stroke-linejoin="round"/>
</svg>
