<svg width="24" height="24" viewBox="0 0 24 24" fill="none" xmlns="http://www.w3.org/2000/svg">
<path d="M12 9L3.586 17.414C3.2109 17.789 3.00011 18.2976 3 18.828V20.172C2.99989 20.7024 2.7891 21.211 2.414 21.586M2.414 21.586C2.78899 21.2109 3.29761 21.0001 3.828 21H5.172C5.70239 20.9999 6.21102 20.7891 6.586 20.414L15 12M2.414 21.586L2 21.9999M18 8.99984L18.4 9.39984C18.597 9.59682 18.7533 9.83067 18.8599 10.088C18.9665 10.3454 19.0213 10.6213 19.0213 10.8998C19.0213 11.1784 18.9665 11.4543 18.8599 11.7116C18.7533 11.969 18.597 12.2029 18.4 12.3998C18.203 12.5968 17.9692 12.7531 17.7118 12.8597C17.4544 12.9663 17.1786 13.0212 16.9 13.0212C16.6214 13.0212 16.3456 12.9663 16.0882 12.8597C15.8309 12.7531 15.597 12.5968 15.4 12.3998L11.6 8.59984C11.2022 8.20201 10.9787 7.66245 10.9787 7.09984C10.9787 6.82126 11.0336 6.54541 11.1402 6.28804C11.2468 6.03067 11.403 5.79682 11.6 5.59984C11.797 5.40285 12.0309 5.2466 12.2882 5.13999C12.5456 5.03338 12.8214 4.97852 13.1 4.97852C13.6626 4.97852 14.2022 5.20201 14.6 5.59984L15 5.99984L18.4 2.59984C18.7978 2.20201 19.3374 1.97852 19.9 1.97852C20.4626 1.97852 21.0022 2.20201 21.4 2.59984C21.7978 2.99766 22.0213 3.53723 22.0213 4.09984C22.0213 4.66245 21.7978 5.20201 21.4 5.59984L18 8.99984Z" stroke="black" stroke-width="2" stroke-linecap="round" stroke-linejoin="round"/>
</svg>
