<svg width="24" height="24" viewBox="0 0 24 24" fill="none" xmlns="http://www.w3.org/2000/svg">
<path d="M12 14L11 15M13.75 18.25L12.5 19.67M17.775 5.65381C14.7963 6.27959 12.0641 7.75879 9.91177 9.91094C7.75944 12.0631 6.28002 14.7952 5.65399 17.7738M18.8 9.2998C17.7789 9.57828 16.9103 10.251 16.3852 11.1699C15.8601 12.0888 15.7215 13.1787 16 14.1998C16.2785 15.2209 16.9512 16.0895 17.8701 16.6146C18.789 17.1397 19.8789 17.2783 20.9 16.9998M21.964 20.7318C22.0117 20.9025 22.0131 21.0829 21.9681 21.2544C21.9231 21.4259 21.8333 21.5823 21.7079 21.7077C21.5826 21.833 21.4261 21.9228 21.2546 21.9678C21.0831 22.0128 20.9028 22.0114 20.732 21.9638L2.73201 16.9638C2.60546 16.9285 2.4871 16.8687 2.38368 16.7877C2.28026 16.7067 2.19381 16.6062 2.12927 16.4917C2.06473 16.3773 2.02337 16.2513 2.00753 16.1209C1.9917 15.9905 2.00172 15.8583 2.03701 15.7318C2.94525 12.462 4.68359 9.4826 7.08322 7.08298C9.48285 4.68335 12.4622 2.94501 15.732 2.03676C15.8585 2.00147 15.9908 1.99146 16.1212 2.00729C16.2516 2.02312 16.3776 2.06449 16.492 2.12903C16.6064 2.19357 16.707 2.28002 16.788 2.38344C16.8689 2.48686 16.9288 2.60522 16.964 2.73176L21.964 20.7318Z" stroke="black" stroke-width="2" stroke-linecap="round" stroke-linejoin="round"/>
</svg>
