<svg width="24" height="24" viewBox="0 0 24 24" fill="none" xmlns="http://www.w3.org/2000/svg">
<g clip-path="url(#clip0_1036_12124)">
<path d="M3 2V3C3 4 5 4 5 5C5 6 3 6 3 7C3 8 5 8 5 9C5 10 3 10 3 11C3 12 5 12 5 13M18 6H18.01M6 18H6.01M18 11.66V22C19.0609 22 20.0783 21.5786 20.8284 20.8284C21.5786 20.0783 22 19.0609 22 18V6M20.83 8.82978C21.2017 8.45814 21.4965 8.01694 21.6976 7.53137C21.8987 7.0458 22.0023 6.52536 22.0023 5.99978C22.0023 5.4742 21.8987 4.95377 21.6976 4.4682C21.4965 3.98263 21.2017 3.54142 20.83 3.16978C20.4584 2.79814 20.0172 2.50334 19.5316 2.30221C19.046 2.10108 18.5256 1.99756 18 1.99756C17.4744 1.99756 16.954 2.10108 16.4684 2.30221C15.9829 2.50334 15.5417 2.79814 15.17 3.16978L3.17003 15.1698C2.41946 15.9203 1.9978 16.9383 1.9978 17.9998C1.9978 18.5254 2.10132 19.0458 2.30245 19.5314C2.50358 20.0169 2.79839 20.4581 3.17003 20.8298C3.54167 21.2014 3.98287 21.4962 4.46844 21.6974C4.95401 21.8985 5.47445 22.002 6.00003 22.002C7.06148 22.002 8.07946 21.5803 8.83003 20.8298L20.83 8.82978Z" stroke="black" stroke-width="2" stroke-linecap="round" stroke-linejoin="round"/>
</g>
<defs>
<clipPath id="clip0_1036_12124">
<rect width="24" height="24" fill="white"/>
</clipPath>
</defs>
</svg>
