<svg width="24" height="24" viewBox="0 0 24 24" fill="none" xmlns="http://www.w3.org/2000/svg">
<path d="M9.99997 4.49996V3.99996C9.99989 3.70257 9.93349 3.40894 9.80561 3.14045C9.67773 2.87196 9.49158 2.63537 9.26071 2.44791C9.02985 2.26044 8.76009 2.12682 8.47107 2.05676C8.18205 1.98671 7.88104 1.982 7.58997 2.04296M13.9 8.39998C13.8063 8.10039 13.6435 7.82706 13.4246 7.60208C13.2057 7.37711 12.9369 7.20682 12.64 7.10498M21.7 16.2001C21.9018 15.4842 22.0027 14.7438 22 14.0001V11.0001C22 10.4696 21.7893 9.96091 21.4142 9.58584C21.0391 9.21077 20.5304 9.00005 20 9.00005C19.4696 9.00005 18.9609 9.21077 18.5858 9.58584C18.2107 9.96091 18 10.4696 18 11.0001V10.0001C17.9998 9.57602 17.8648 9.16303 17.6146 8.8207C17.3644 8.47838 17.0118 8.22445 16.6078 8.09558C16.2039 7.96671 15.7694 7.96957 15.3671 8.10374C14.9649 8.23792 14.6157 8.49647 14.37 8.84205M6.99998 14.9998L5.19998 13.1998C4.81542 12.8588 4.31436 12.679 3.80076 12.6976C3.28715 12.7162 2.80043 12.9318 2.44154 13.2997C2.08266 13.6676 1.87918 14.1595 1.8733 14.6734C1.86742 15.1873 2.05961 15.6838 2.40998 16.0598L5.99998 19.6998C6.77703 20.4905 7.71486 21.105 8.75002 21.5018C9.78518 21.8986 10.8935 22.0685 12 21.9998H14C15.0506 21.9998 16.0909 21.7929 17.0615 21.3909C18.0321 20.9889 18.9141 20.3996 19.657 19.6568M6 6V14M2 2L22 22" stroke="black" stroke-width="2" stroke-linecap="round" stroke-linejoin="round"/>
</svg>
