<svg width="24" height="24" viewBox="0 0 24 24" fill="none" xmlns="http://www.w3.org/2000/svg">
<path d="M12 12H12.01M13.9999 15.4639C13.3918 15.8149 12.7021 15.9998 11.9999 15.9998C11.2978 15.9998 10.608 15.8149 9.99991 15.4639L7.52777 19.7457C7.45743 19.8676 7.41359 20.0029 7.39911 20.1428C7.38463 20.2827 7.39984 20.4242 7.44374 20.5578C7.48764 20.6915 7.55925 20.8144 7.65389 20.9184C7.74853 21.0225 7.86406 21.1055 7.99294 21.1619C9.25653 21.7145 10.6208 21.9998 11.9999 21.9998C13.3791 21.9998 14.7433 21.7145 16.0069 21.1619C16.1358 21.1055 16.2513 21.0225 16.3459 20.9184C16.4406 20.8144 16.5122 20.6915 16.5561 20.5578C16.6 20.4242 16.6152 20.2827 16.6007 20.1428C16.5862 20.0029 16.5424 19.8676 16.4721 19.7457L13.9999 15.4639ZM16 11.9998C16 11.2977 15.8151 10.6079 15.4641 9.99984C15.113 9.39178 14.6081 8.88685 14 8.53578L16.472 4.25378C16.5423 4.13182 16.6377 4.02608 16.7517 3.9435C16.8657 3.86091 16.9959 3.80334 17.1337 3.77455C17.2716 3.74576 17.4139 3.74639 17.5515 3.77642C17.689 3.80644 17.8187 3.86518 17.932 3.94878C19.0422 4.76683 19.9711 5.80566 20.6605 6.99998C21.3499 8.1943 21.7849 9.5183 21.938 10.8888C21.9533 11.024 21.9409 11.161 21.9014 11.2913C21.8619 11.4216 21.7963 11.5424 21.7084 11.6464C21.6206 11.7505 21.5125 11.8354 21.3907 11.8962C21.2689 11.957 21.1359 11.9922 21 11.9998H16ZM8.00002 11.9998C8.00004 11.2977 8.18487 10.6079 8.53594 9.99984C8.88701 9.39178 9.39196 8.88685 10 8.53578L7.52802 4.25378C7.45767 4.13182 7.36236 4.02608 7.24832 3.9435C7.13429 3.86091 7.0041 3.80334 6.86627 3.77455C6.72845 3.74576 6.5861 3.74639 6.44854 3.77642C6.31098 3.80644 6.18131 3.86518 6.06802 3.94878C4.95785 4.76683 4.02888 5.80566 3.33948 6.99998C2.65008 8.1943 2.21515 9.5183 2.06202 10.8888C2.0467 11.024 2.05915 11.161 2.09863 11.2913C2.1381 11.4216 2.20376 11.5424 2.29157 11.6464C2.37939 11.7505 2.48752 11.8354 2.60934 11.8962C2.73116 11.957 2.8641 11.9922 3.00002 11.9998H8.00002Z" stroke="black" stroke-width="2" stroke-linecap="round" stroke-linejoin="round"/>
</svg>
