<svg width="24" height="24" viewBox="0 0 24 24" fill="none" xmlns="http://www.w3.org/2000/svg">
<path d="M13 22H4C3.46957 22 2.96086 21.7893 2.58579 21.4142C2.21071 21.0391 2 20.5304 2 20C2 19.4696 2.21071 18.9609 2.58579 18.5858C2.96086 18.2107 3.46957 18 4 18H16M13.2359 18C13.62 17.5706 13.8724 17.0398 13.9628 16.4708C14.0533 15.9018 13.978 15.3189 13.746 14.7916C13.5139 14.2643 13.135 13.8149 12.6544 13.4972C12.1738 13.1795 11.6119 13.0069 11.0359 13M16 9H16.01M16.82 3.93995C17.13 3.61183 17.51 3.35787 17.9317 3.197C18.3534 3.03614 18.806 2.9725 19.2558 3.01084C19.7055 3.04919 20.1408 3.18852 20.5292 3.41845C20.9176 3.64839 21.2491 3.96301 21.499 4.33886C21.749 4.71472 21.9109 5.14212 21.9727 5.58924C22.0345 6.03636 21.9946 6.49165 21.856 6.92121C21.7174 7.35077 21.4836 7.74352 21.1722 8.0702C20.8607 8.39687 20.4795 8.64905 20.057 8.80795L21.872 11.395C21.9771 11.6332 22.0184 11.8947 21.9918 12.1537C21.9652 12.4127 21.8716 12.6604 21.7203 12.8722C21.5689 13.0841 21.365 13.253 21.1286 13.3622C20.8922 13.4713 20.6315 13.5171 20.372 13.495L17.5 13.042C17.0664 12.9686 16.6219 12.9915 16.198 13.1091C15.7742 13.2266 15.3813 13.4359 15.0474 13.7222C14.7134 14.0084 14.4465 14.3646 14.2655 14.7655C14.0845 15.1664 13.9939 15.6021 14 16.042M17 4.98807C16.998 4.50004 16.877 4.01988 16.6474 3.58923C16.4178 3.15857 16.0866 2.79042 15.6826 2.51672C15.2785 2.24301 14.8138 2.07201 14.3287 2.01855C13.8436 1.96508 13.3528 2.03077 12.8989 2.20991C12.4449 2.38905 12.0415 2.67623 11.7236 3.04655C11.4058 3.41687 11.1831 3.85915 11.0748 4.33502C10.9665 4.81089 10.976 5.30598 11.1024 5.77736C11.2288 6.24874 11.4682 6.68218 11.8 7.04007C10.818 6.92709 9.82315 7.02339 8.881 7.32263C7.93886 7.62187 7.07078 8.11726 6.3339 8.7762C5.59703 9.43514 5.00807 10.2427 4.60581 11.1456C4.20354 12.0486 3.99708 13.0265 4.00003 14.0151C4.004 15.0733 4.42718 16.0869 5.17689 16.8338C5.92661 17.5807 6.94176 18.0001 8.00003 18.0001" stroke="black" stroke-width="2" stroke-linecap="round" stroke-linejoin="round"/>
</svg>
