<svg width="24" height="24" viewBox="0 0 24 24" fill="none" xmlns="http://www.w3.org/2000/svg">
<path d="M17 10H16C15.2089 10 14.4355 9.76541 13.7777 9.32588C13.1199 8.88635 12.6072 8.26164 12.3045 7.53074C12.0017 6.79983 11.9225 5.99556 12.0769 5.21964C12.2312 4.44372 12.6122 3.73098 13.1716 3.17157C13.731 2.61216 14.4437 2.2312 15.2196 2.07686C15.9956 1.92252 16.7998 2.00173 17.5307 2.30448C18.2616 2.60723 18.8864 3.11992 19.3259 3.77772C19.7654 4.43552 20 5.20888 20 6V6.534M17 10C18.1046 10 19 9.10457 19 8C19 6.89543 18.1046 6.00012 17 6.00012M17 10C15.8954 10 15 9.10457 15 8C15 6.89543 15.8955 6.00012 17 6.00012M17 6.00012H18C18.9359 5.99979 19.8423 6.32764 20.5615 6.92662C21.2806 7.5256 21.7669 8.35778 21.9358 9.27831C22.1047 10.1989 21.9454 11.1495 21.4858 11.9647C21.0261 12.78 20.2951 13.4082 19.42 13.7401L17.13 14.6101C15.7397 15.1393 14.2023 15.133 12.8162 14.5926C11.4302 14.0522 10.2943 13.0161 9.62909 11.6854C8.96388 10.3547 8.81674 8.82436 9.21623 7.39131C9.61573 5.95827 10.5334 4.72474 11.791 3.93012L13.86 2.62012M9.77 12C4 15 2 22 2 22M4.5 17C7.3 16.5 8.9 17 10 17.8C11.1 18.6 11.8 20 12.3 21.5C10.3 21.9 8.8 21.9 7.5 21.2C6.3 20.6 5.2 19.3 4.5 17Z" stroke="black" stroke-width="2" stroke-linecap="round" stroke-linejoin="round"/>
</svg>
