<svg width="24" height="24" viewBox="0 0 24 24" fill="none" xmlns="http://www.w3.org/2000/svg">
<path d="M6.01 18H6M10.01 18H10M15 10V14M17.8399 7.17022C17.4684 6.79831 17.0273 6.50328 16.5417 6.30198C16.0561 6.10068 15.5356 5.99707 15.0099 5.99707C14.4843 5.99707 13.9638 6.10068 13.4782 6.30198C12.9926 6.50328 12.5514 6.79831 12.1799 7.17022M20.6601 4.33983C19.16 2.84067 17.1259 1.99854 15.0051 1.99854C12.8843 1.99854 10.8502 2.84067 9.3501 4.33983M4 14H20C21.1046 14 22 14.8954 22 16V20C22 21.1046 21.1046 22 20 22H4C2.89543 22 2 21.1046 2 20V16C2 14.8954 2.89543 14 4 14Z" stroke="black" stroke-width="2" stroke-linecap="round" stroke-linejoin="round"/>
</svg>
