<svg width="24" height="24" viewBox="0 0 24 24" fill="none" xmlns="http://www.w3.org/2000/svg">
<path d="M10 2V17M7 22C5.93913 22 4.92172 21.5786 4.17157 20.8284C3.42143 20.0783 3 19.0609 3 18C3 17.7348 3.10536 17.4804 3.29289 17.2929C3.48043 17.1054 3.73478 17 4 17H20C20.2652 17 20.5196 17.1054 20.7071 17.2929C20.8946 17.4804 21 17.7348 21 18C21 19.0609 20.5786 20.0783 19.8284 20.8284C19.0783 21.5786 18.0609 22 17 22H7ZM9.15904 2.45997C9.23805 2.33699 9.34305 2.23283 9.46666 2.15482C9.59027 2.07681 9.72948 2.02684 9.87449 2.00844C10.0195 1.99004 10.1668 2.00366 10.3059 2.04832C10.4451 2.09299 10.5728 2.16762 10.68 2.26697L20.657 11.247C20.8102 11.3808 20.9189 11.5582 20.9687 11.7555C21.0184 11.9527 21.0068 12.1604 20.9354 12.3509C20.864 12.5414 20.7362 12.7056 20.5691 12.8216C20.402 12.9375 20.2035 12.9998 20 13H4.00004C3.81775 13 3.63892 12.9502 3.48288 12.856C3.32683 12.7618 3.19951 12.6267 3.11467 12.4654C3.02983 12.3041 2.9907 12.1226 3.00152 11.9406C3.01234 11.7587 3.07268 11.5831 3.17604 11.433L9.15904 2.45997Z" stroke="black" stroke-width="2" stroke-linecap="round" stroke-linejoin="round"/>
</svg>
