<svg width="24" height="24" viewBox="0 0 24 24" fill="none" xmlns="http://www.w3.org/2000/svg">
<path d="M2.37 11.2232L10.742 4.44617C11.098 4.15813 11.5421 4.00098 12 4.00098C12.4579 4.00098 12.902 4.15813 13.258 4.44617L21.629 11.2232M21 15C21.2652 15 21.5196 15.1054 21.7071 15.2929C21.8946 15.4804 22 15.7348 22 16V18C22 18.2652 21.8946 18.5196 21.7071 18.7071C21.5196 18.8946 21.2652 19 21 19H15.75M21 15C21.5523 15 22 14.5523 22 14V12C22 11.4477 21.5523 11 21 11H3C2.44772 11 2 11.4477 2 12V14C2 14.5523 2.44772 15 3 15M21 15H3M3 15C2.73478 15 2.48043 15.1054 2.29289 15.2929C2.10536 15.4804 2 15.7348 2 16V18C2 18.2652 2.10536 18.5196 2.29289 18.7071C2.48043 18.8946 2.73478 19 3 19H12M6.66998 15L12.8 19.6C13.0101 19.7576 13.2492 19.8722 13.5036 19.9374C13.758 20.0026 14.0228 20.017 14.2828 19.9799C14.5428 19.9428 14.793 19.8548 15.019 19.7209C15.245 19.5871 15.4424 19.4101 15.6 19.2L18.75 15" stroke="black" stroke-width="2" stroke-linecap="round" stroke-linejoin="round"/>
</svg>
