<svg width="24" height="24" viewBox="0 0 24 24" fill="none" xmlns="http://www.w3.org/2000/svg">
<path d="M13.5 6.4999L10.352 3.3519C10.126 3.12595 9.81957 2.99902 9.50002 2.99902C9.18046 2.99902 8.87399 3.12595 8.64802 3.3519L6.35202 5.6479C6.12608 5.87387 5.99915 6.18034 5.99915 6.4999C5.99915 6.81945 6.12608 7.12592 6.35202 7.3519L9.50002 10.4999M16.5 7.5L19 5M17.5 10.5L20.648 13.648C20.8739 13.874 21.0009 14.1804 21.0009 14.5C21.0009 14.8196 20.8739 15.126 20.648 15.352L18.352 17.648C18.126 17.8739 17.8196 18.0009 17.5 18.0009C17.1804 18.0009 16.874 17.8739 16.648 17.648L13.5 14.5M9 21C9 19.4087 8.36786 17.8826 7.24264 16.7574C6.11742 15.6321 4.5913 15 3 15M9.35202 10.6479C9.12608 10.8739 8.99915 11.1803 8.99915 11.4999C8.99915 11.8195 9.12608 12.1259 9.35202 12.3519L11.648 14.6479C11.874 14.8738 12.1805 15.0008 12.5 15.0008C12.8196 15.0008 13.126 14.8738 13.352 14.6479L17.648 10.3519C17.874 10.1259 18.0009 9.81945 18.0009 9.4999C18.0009 9.18034 17.874 8.87387 17.648 8.6479L15.352 6.3519C15.126 6.12595 14.8196 5.99902 14.5 5.99902C14.1805 5.99902 13.874 6.12595 13.648 6.3519L9.35202 10.6479Z" stroke="black" stroke-width="2" stroke-linecap="round" stroke-linejoin="round"/>
</svg>
