<svg width="24" height="24" viewBox="0 0 24 24" fill="none" xmlns="http://www.w3.org/2000/svg">
<path d="M17 3H19C19.5304 3 20.0391 3.21071 20.4142 3.58579C20.7893 3.96086 21 4.46957 21 5V7M21 17V19C21 19.5304 20.7893 20.0391 20.4142 20.4142C20.0391 20.7893 19.5304 21 19 21H17M3 7V5C3 4.46957 3.21071 3.96086 3.58579 3.58579C3.96086 3.21071 4.46957 3 5 3H7M7 21H5C4.46957 21 3.96086 20.7893 3.58579 20.4142C3.21071 20.0391 3 19.5304 3 19V17M7.82796 13.0701C7.29189 12.5094 6.99388 11.7628 6.99648 10.987C6.99907 10.2113 7.30207 9.46669 7.84188 8.90954C8.38169 8.35239 9.11633 8.02602 9.89162 7.9989C10.6669 7.97179 11.4226 8.24606 12 8.76414C12.5774 8.24606 13.333 7.97179 14.1083 7.9989C14.8836 8.02602 15.6182 8.35239 16.158 8.90954C16.6979 9.46669 17.0009 10.2113 17.0034 10.987C17.006 11.7628 16.708 12.5094 16.172 13.0701L12.725 16.6901C12.6316 16.7883 12.5192 16.8665 12.3946 16.9199C12.2701 16.9733 12.136 17.0009 12.0005 17.0009C11.8649 17.0009 11.7308 16.9733 11.6063 16.9199C11.4818 16.8665 11.3694 16.7883 11.276 16.6901L7.82796 13.0701Z" stroke="black" stroke-width="2" stroke-linecap="round" stroke-linejoin="round"/>
</svg>
