<svg width="24" height="24" viewBox="0 0 24 24" fill="none" xmlns="http://www.w3.org/2000/svg">
<path d="M21 4H17.5L19.5 15.05M6.94995 17.0002H12.092C12.615 17.0002 13.042 16.5942 13.155 16.0842C13.4392 14.8088 14.1012 13.6486 15.0547 12.7551C16.0081 11.8615 17.2088 11.2761 18.5 11.0752M22 17.5C22 18.8807 20.8807 20 19.5 20C18.1193 20 17 18.8807 17 17.5C17 16.1193 18.1193 15 19.5 15C20.8807 15 22 16.1193 22 17.5ZM7 17.5C7 18.8807 5.88071 20 4.5 20C3.11929 20 2 18.8807 2 17.5C2 16.1193 3.11929 15 4.5 15C5.88071 15 7 16.1193 7 17.5Z" stroke="black" stroke-width="2" stroke-linecap="round" stroke-linejoin="round"/>
</svg>
