<svg width="24" height="24" viewBox="0 0 24 24" fill="none" xmlns="http://www.w3.org/2000/svg">
<path d="M11 22C7.194 20.55 4 18.034 4 13V5.99996C4 5.73474 4.10536 5.48039 4.29289 5.29285C4.48043 5.10532 4.73478 4.99996 5 4.99996C7 4.99996 9.5 3.79996 11.24 2.27996C11.4519 2.09896 11.7214 1.99951 12 1.99951C12.2786 1.99951 12.5481 2.09896 12.76 2.27996C14.51 3.80996 17 4.99996 19 4.99996C19.2652 4.99996 19.5196 5.10532 19.7071 5.29285C19.8946 5.48039 20 5.73474 20 5.99996V9.99996M14.923 16.5471L14 16.1641M14.923 18.8428L14 19.2258M16.5469 14.923L16.1639 14M16.5469 20.4668L16.1639 21.3908M18.843 14.923L19.226 14M19.225 21.3908L18.843 20.4668M20.467 16.5471L21.39 16.1641M20.467 18.8428L21.39 19.2258M20.6949 17.6948C20.6949 19.3517 19.3518 20.6948 17.6949 20.6948C16.0381 20.6948 14.6949 19.3517 14.6949 17.6948C14.6949 16.038 16.0381 14.6948 17.6949 14.6948C19.3518 14.6948 20.6949 16.038 20.6949 17.6948Z" stroke="black" stroke-width="2" stroke-linecap="round" stroke-linejoin="round"/>
</svg>
