<svg width="24" height="24" viewBox="0 0 24 24" fill="none" xmlns="http://www.w3.org/2000/svg">
<path d="M10.929 14.4668L10.546 15.3908M10.929 8.923L10.546 8M13.225 8.923L13.608 8M13.607 15.3908L13.225 14.4668M14.849 10.5471L15.772 10.1641M14.849 12.8428L15.772 13.2258M9.30496 10.5471L8.38196 10.1641M9.30496 12.8428L8.38196 13.2258M20 13C20 18 16.5 20.5 12.34 21.95C12.1222 22.0238 11.8855 22.0202 11.67 21.94C7.5 20.5 4 18 4 13V5.99996C4 5.73474 4.10536 5.48039 4.29289 5.29285C4.48043 5.10532 4.73478 4.99996 5 4.99996C7 4.99996 9.5 3.79996 11.24 2.27996C11.4519 2.09896 11.7214 1.99951 12 1.99951C12.2786 1.99951 12.5481 2.09896 12.76 2.27996C14.51 3.80996 17 4.99996 19 4.99996C19.2652 4.99996 19.5196 5.10532 19.7071 5.29285C19.8946 5.48039 20 5.73474 20 5.99996V13ZM15.077 11.6948C15.077 13.3517 13.7339 14.6948 12.077 14.6948C10.4202 14.6948 9.07703 13.3517 9.07703 11.6948C9.07703 10.038 10.4202 8.69482 12.077 8.69482C13.7339 8.69482 15.077 10.038 15.077 11.6948Z" stroke="black" stroke-width="2" stroke-linecap="round" stroke-linejoin="round"/>
</svg>
