<svg width="24" height="24" viewBox="0 0 24 24" fill="none" xmlns="http://www.w3.org/2000/svg">
<path d="M9 15.0001L16.879 7.12207M21.56 4.56018C21.6994 4.69948 21.81 4.86488 21.8854 5.04693C21.9609 5.22898 21.9997 5.42412 21.9997 5.62118C21.9997 5.81824 21.9609 6.01338 21.8854 6.19543C21.81 6.37748 21.6994 6.54288 21.56 6.68218L21.09 7.15218C20.5248 7.7015 19.766 8.00629 18.9779 8.00068C18.1897 7.99507 17.4354 7.67949 16.878 7.12218C16.5994 6.8436 16.3784 6.51286 16.2276 6.14885C16.0768 5.78484 15.9991 5.39469 15.9991 5.00068C15.9991 4.60667 16.0768 4.21652 16.2276 3.85251C16.3784 3.4885 16.5994 3.15776 16.878 2.87918L17.318 2.43918C17.5993 2.15797 17.9808 2 18.3785 2C18.7763 2 19.1577 2.15797 19.439 2.43918L21.56 4.56018ZM3 21.9999C2.73478 21.9999 2.48043 21.8945 2.29289 21.707C2.10536 21.5195 2 21.2651 2 20.9999V17.4139C2.00006 17.1487 2.10545 16.8944 2.293 16.7069L5.648 13.3519C5.87398 13.126 6.18045 12.999 6.5 12.999C6.81955 12.999 7.12602 13.126 7.352 13.3519L10.648 16.6479C10.8739 16.8739 11.0009 17.1803 11.0009 17.4999C11.0009 17.8195 10.8739 18.1259 10.648 18.3519L7.293 21.7069C7.10551 21.8944 6.85119 21.9998 6.586 21.9999H3Z" stroke="black" stroke-width="2" stroke-linecap="round" stroke-linejoin="round"/>
</svg>
