<svg width="24" height="24" viewBox="0 0 24 24" fill="none" xmlns="http://www.w3.org/2000/svg">
<path d="M10.9999 12H11.0099M12.9999 22C13.4999 21.5 14.1199 21 15.4999 21M15.4999 21C14.1199 21 13.4999 20.5 12.9999 20M15.4999 21C17.2238 21 18.8771 20.3152 20.0961 19.0962C21.315 17.8772 21.9999 16.2239 21.9999 14.5C21.9999 12.7761 21.315 11.1228 20.0961 9.90381C18.8771 8.68482 17.2238 8 15.4999 8H4.38686C4.06324 8.0017 3.74265 7.93758 3.44458 7.81153C3.14651 7.68548 2.87718 7.50013 2.65297 7.26675C2.42876 7.03338 2.25435 6.75685 2.14034 6.45397C2.02633 6.15109 1.97509 5.82819 1.98976 5.50489C2.00442 5.1816 2.08467 4.86466 2.22563 4.57335C2.36658 4.28203 2.56531 4.02242 2.80972 3.8103C3.05414 3.59817 3.33913 3.43797 3.64739 3.33941C3.95564 3.24086 4.28072 3.20601 4.60286 3.237L10.7729 3.798C11.4291 3.85711 12.088 3.7172 12.6635 3.39649C13.2391 3.07578 13.7048 2.58915 13.9999 2M15.4999 21C16.1629 21 16.7988 20.7366 17.2676 20.2678C17.7365 19.7989 17.9999 19.163 17.9999 18.5C17.9999 17.837 17.7365 17.2011 17.2676 16.7322C16.7988 16.2634 16.1629 16 15.4999 16H11.9999C10.1433 16 8.36286 15.2625 7.05011 13.9497C5.73735 12.637 4.99986 10.8565 4.99986 9V8M13.9999 8C14.6564 9.23106 14.9999 10.6048 14.9999 12C14.9999 13.3952 14.6564 14.7689 13.9999 16M15.9999 16C17.9999 16 20.4999 12 19.9999 10" stroke="black" stroke-width="2" stroke-linecap="round" stroke-linejoin="round"/>
</svg>
