<svg width="24" height="24" viewBox="0 0 24 24" fill="none" xmlns="http://www.w3.org/2000/svg">
<path d="M11 2H13M14.28 14L9.71997 22M21 22L19.442 18H4.55798M3 10V12M7 2C7 3.06087 6.57857 4.07828 5.82843 4.82843C5.07828 5.57857 4.06087 6 3 6M8.66003 7.66016L10.07 9.07016M6.24498 15.04C6.41727 14.7251 6.67112 14.4624 6.97991 14.2794C7.2887 14.0964 7.64104 13.9999 7.99998 14H20C20.1761 13.9998 20.3491 14.0462 20.5015 14.1344C20.654 14.2225 20.7804 14.3494 20.8681 14.5021C20.9558 14.6548 21.0016 14.828 21.0009 15.0041C21.0001 15.1802 20.9529 15.353 20.864 15.505L17.754 20.962C17.5815 21.2764 17.3277 21.5386 17.0191 21.7212C16.7105 21.9038 16.3585 22.0001 16 22H3.99998C3.82381 22.0001 3.65075 21.9536 3.49831 21.8653C3.34587 21.777 3.21946 21.65 3.13187 21.4972C3.04428 21.3443 2.99863 21.1711 2.99952 20.9949C3.00042 20.8187 3.04784 20.6459 3.13698 20.494L6.24498 15.04Z" stroke="black" stroke-width="2" stroke-linecap="round" stroke-linejoin="round"/>
</svg>
