<svg width="24" height="24" viewBox="0 0 24 24" fill="none" xmlns="http://www.w3.org/2000/svg">
<path d="M5 17C5 13.8174 6.26428 10.7652 8.51472 8.51472C10.7652 6.26428 13.8174 5 17 5M5 17C3.89543 17 3 17.8954 3 19C3 20.1046 3.89543 21 5 21C6.10457 21 7 20.1046 7 19C7 17.8954 6.10457 17 5 17ZM17 5C17 6.10457 17.8954 7 19 7C20.1046 7 21 6.10457 21 5C21 3.89543 20.1046 3 19 3C17.8954 3 17 3.89543 17 5ZM12.0341 12.6809C11.998 12.5905 11.9893 12.4915 12.0089 12.3961C12.0285 12.3008 12.0757 12.2132 12.1445 12.1444C12.2134 12.0756 12.3009 12.0284 12.3962 12.0088C12.4916 11.9891 12.5906 11.9979 12.6811 12.0339L21.6811 15.5339C21.7775 15.5716 21.8599 15.6384 21.9169 15.7249C21.9738 15.8115 22.0024 15.9136 21.9988 16.0171C21.9951 16.1207 21.9595 16.2205 21.8966 16.3029C21.8338 16.3852 21.7469 16.4461 21.6481 16.4769L18.2041 17.5449C18.0487 17.593 17.9073 17.6782 17.7923 17.7932C17.6773 17.9082 17.5921 18.0495 17.5441 18.2049L16.4771 21.6479C16.4462 21.7468 16.3854 21.8337 16.303 21.8965C16.2206 21.9593 16.1208 21.995 16.0173 21.9986C15.9137 22.0023 15.8116 21.9736 15.7251 21.9167C15.6385 21.8598 15.5718 21.7774 15.5341 21.6809L12.0341 12.6809Z" stroke="black" stroke-width="2" stroke-linecap="round" stroke-linejoin="round"/>
</svg>
