<svg width="24" height="24" viewBox="0 0 24 24" fill="none" xmlns="http://www.w3.org/2000/svg">
<path d="M15 10.4201L19.8 5.3501M19 18H22M9.5 22.0001L21.414 9.41511C21.6168 9.2125 21.7736 8.96867 21.8739 8.70015C21.9742 8.43162 22.0156 8.14468 21.9953 7.85875C21.975 7.57283 21.8935 7.29461 21.7563 7.04294C21.6191 6.79128 21.4294 6.57205 21.2 6.40011L15.59 2.19211C15.4409 2.08313 15.2645 2.01759 15.0804 2.00275C14.8963 1.9879 14.7116 2.02434 14.547 2.10802C14.3823 2.1917 14.244 2.31935 14.1475 2.47681C14.0509 2.63428 13.9999 2.8154 14 3.00011V5.00011C14 5.42463 13.8649 5.83814 13.6143 6.1808C13.3637 6.52345 13.0106 6.77748 12.606 6.90611L8.677 8.05311C8.47943 8.12054 8.30791 8.24812 8.1865 8.41795C8.06509 8.58778 7.99987 8.79134 8 9.00011C7.845 15.3931 5.918 18.0001 4 18.0001C3.46957 18.0001 2.96086 18.2108 2.58579 18.5859C2.21071 18.961 2 19.4697 2 20.0001C2 20.5305 2.21071 21.0392 2.58579 21.4143C2.96086 21.7894 3.46957 22.0001 4 22.0001H18" stroke="black" stroke-width="2" stroke-linecap="round" stroke-linejoin="round"/>
</svg>
