<svg width="24" height="24" viewBox="0 0 24 24" fill="none" xmlns="http://www.w3.org/2000/svg">
<path d="M15.295 19.562L16 22M17 16L20.758 18.098M19 12.4999L22.026 11.9019M8 9V2M7.60997 6.30004C6.9144 5.97346 6.12003 5.92625 5.39066 6.16813C4.6613 6.41001 4.05256 6.92254 3.68997 7.60004L2.30997 10.39C1.9864 11.0845 1.9408 11.8765 2.18252 12.6035C2.42425 13.3306 2.93498 13.9376 3.60997 14.3L10.5 17.897C10.6174 17.9558 10.7453 17.9909 10.8763 18.0003C11.0074 18.0096 11.139 17.9931 11.2636 17.9516C11.3882 17.91 11.5034 17.8444 11.6027 17.7583C11.7019 17.6723 11.7832 17.5675 11.842 17.45L14.948 11.239C15.0664 11.0019 15.0858 10.7275 15.002 10.476C14.9182 10.2246 14.738 10.0167 14.501 9.89804L7.60997 6.30004Z" stroke="black" stroke-width="2" stroke-linecap="round" stroke-linejoin="round"/>
</svg>
