<svg width="24" height="24" viewBox="0 0 24 24" fill="none" xmlns="http://www.w3.org/2000/svg">
<path d="M11.0351 7.69005C11.1012 7.48739 11.2303 7.31114 11.4036 7.18702C11.5769 7.0629 11.7853 6.9974 11.9984 7.00008C12.2116 7.00276 12.4183 7.07348 12.5884 7.20192C12.7585 7.33035 12.8832 7.50979 12.9441 7.71405L13.6811 9.16605C13.7528 9.30721 13.857 9.42931 13.9852 9.52232C14.1133 9.61533 14.2617 9.67659 14.4181 9.70105L16.0521 9.95705C16.2625 9.95788 16.4673 10.025 16.6373 10.149C16.8074 10.273 16.9339 10.4474 16.9991 10.6475C17.0642 10.8475 17.0646 11.0631 17.0001 11.2634C16.9357 11.4636 16.8097 11.6385 16.6401 11.7631L15.4681 12.9311C15.3559 13.0428 15.2718 13.1795 15.2228 13.3301C15.1738 13.4806 15.1612 13.6407 15.1861 13.7971L15.4451 15.4101C15.5164 15.6122 15.5208 15.8319 15.4577 16.0368C15.3946 16.2417 15.2673 16.4208 15.0947 16.5479C14.922 16.6749 14.7131 16.7431 14.4988 16.7424C14.2844 16.7418 14.0759 16.6722 13.9041 16.5441L12.4391 15.7941C12.298 15.7217 12.1417 15.684 11.9831 15.684C11.8245 15.684 11.6682 15.7217 11.5271 15.7941L10.0621 16.5441C9.8903 16.6711 9.68228 16.7399 9.46856 16.7401C9.25485 16.7403 9.04668 16.6721 8.87457 16.5454C8.70246 16.4187 8.57548 16.2402 8.51223 16.036C8.44898 15.8319 8.45279 15.6129 8.52311 15.4111L8.78111 13.7981C8.80603 13.6417 8.79345 13.4816 8.74443 13.3311C8.6954 13.1805 8.61132 13.0438 8.49911 12.9321L7.34311 11.7791C7.16777 11.6576 7.03587 11.4832 6.96667 11.2814C6.89748 11.0797 6.89462 10.861 6.95851 10.6575C7.0224 10.454 7.1497 10.2763 7.32181 10.1502C7.49391 10.0242 7.7018 9.95652 7.91511 9.95705L9.54811 9.70105C9.70454 9.67659 9.85292 9.61533 9.98105 9.52232C10.1092 9.42931 10.2134 9.30721 10.2851 9.16605L11.0351 7.69005Z" stroke="black" stroke-width="2" stroke-linecap="round" stroke-linejoin="round"/>
<path d="M19 3H5C3.89543 3 3 3.89543 3 5V19C3 20.1046 3.89543 21 5 21H19C20.1046 21 21 20.1046 21 19V5C21 3.89543 20.1046 3 19 3Z" stroke="black" stroke-width="2" stroke-linecap="round" stroke-linejoin="round"/>
</svg>
