<svg width="24" height="24" viewBox="0 0 24 24" fill="none" xmlns="http://www.w3.org/2000/svg">
<path d="M5 3C4.46957 3 3.96086 3.21071 3.58579 3.58579C3.21071 3.96086 3 4.46957 3 5M19 3C19.5304 3 20.0391 3.21071 20.4142 3.58579C20.7893 3.96086 21 4.46957 21 5M5 21C4.46957 21 3.96086 20.7893 3.58579 20.4142C3.21071 20.0391 3 19.5304 3 19M9 3H10M9 21H11M14 3H15M3 9V10M21 9V11M3 14V15M12.034 12.6809C11.9979 12.5905 11.9892 12.4915 12.0088 12.3961C12.0285 12.3008 12.0756 12.2132 12.1445 12.1444C12.2133 12.0756 12.3008 12.0284 12.3962 12.0088C12.4915 11.9891 12.5906 11.9979 12.681 12.0339L21.681 15.5339C21.7775 15.5716 21.8599 15.6384 21.9168 15.7249C21.9737 15.8115 22.0023 15.9136 21.9987 16.0171C21.9951 16.1207 21.9594 16.2205 21.8966 16.3029C21.8337 16.3852 21.7469 16.4461 21.648 16.4769L18.204 17.5449C18.0486 17.593 17.9073 17.6782 17.7923 17.7932C17.6773 17.9082 17.592 18.0495 17.544 18.2049L16.477 21.6479C16.4461 21.7468 16.3853 21.8337 16.3029 21.8965C16.2206 21.9593 16.1207 21.995 16.0172 21.9986C15.9137 22.0023 15.8116 21.9736 15.725 21.9167C15.6384 21.8598 15.5717 21.7774 15.534 21.6809L12.034 12.6809Z" stroke="black" stroke-width="2" stroke-linecap="round" stroke-linejoin="round"/>
</svg>
