<svg width="24" height="24" viewBox="0 0 24 24" fill="none" xmlns="http://www.w3.org/2000/svg">
<path d="M13.77 3.04317C12.5908 2.9817 11.4092 2.9817 10.23 3.04317M13.771 20.9561C12.5915 21.0198 11.4095 21.0201 10.23 20.9571M20.18 17.7402C19.67 18.8902 18.89 19.6702 17.741 20.1802M20.18 6.2588C19.67 5.1108 18.889 4.3298 17.74 3.8208M20.957 10.23C21.0204 11.4091 21.0204 12.5908 20.957 13.77M3.04295 10.23C2.98177 11.4095 2.98211 12.5915 3.04395 13.771M6.26007 20.1792C5.11007 19.6712 4.33007 18.8892 3.82007 17.7412M6.26007 3.81982C5.11107 4.32982 4.33007 5.11082 3.82007 6.25982" stroke="black" stroke-width="2" stroke-linecap="round" stroke-linejoin="round"/>
</svg>
