<svg width="24" height="24" viewBox="0 0 24 24" fill="none" xmlns="http://www.w3.org/2000/svg">
<path d="M10.3441 4.68789L11.5251 2.29489C11.5689 2.20635 11.6366 2.13183 11.7205 2.07972C11.8044 2.02761 11.9013 2 12.0001 2C12.0988 2 12.1957 2.02761 12.2796 2.07972C12.3635 2.13183 12.4312 2.20635 12.4751 2.29489L14.7851 6.97389C14.937 7.28202 15.1616 7.54859 15.4395 7.75066C15.7173 7.95273 16.0401 8.08425 16.3801 8.13389L21.5461 8.88989C21.6439 8.90408 21.7359 8.94537 21.8115 9.00909C21.8872 9.07282 21.9435 9.15644 21.9741 9.2505C22.0047 9.34456 22.0083 9.4453 21.9846 9.54133C21.961 9.63736 21.9109 9.72485 21.8401 9.79389L18.6031 12.9459M17.9451 17.9452L18.3751 20.4502C18.3924 20.548 18.3818 20.6487 18.3446 20.7408C18.3074 20.833 18.245 20.9128 18.1646 20.9712C18.0842 21.0295 17.9891 21.0642 17.89 21.0711C17.7908 21.0779 17.6918 21.0568 17.6041 21.0102L12.9861 18.5822C12.6819 18.4222 12.3433 18.3386 11.9996 18.3386C11.6559 18.3386 11.3173 18.4222 11.0131 18.5822L6.39609 21.0102C6.30842 21.0566 6.20949 21.0774 6.11054 21.0704C6.0116 21.0634 5.91661 21.0287 5.83639 20.9704C5.75616 20.912 5.69392 20.8323 5.65675 20.7404C5.61957 20.6484 5.60895 20.5479 5.62609 20.4502L6.50709 15.3112C6.56546 14.9719 6.54033 14.6235 6.43388 14.2961C6.32742 13.9687 6.14284 13.6722 5.89609 13.4322L2.16009 9.79516C2.08868 9.72619 2.03808 9.63855 2.01405 9.54223C1.99002 9.44591 1.99353 9.34477 2.02417 9.25035C2.05481 9.15592 2.11136 9.072 2.18737 9.00814C2.26338 8.94428 2.35579 8.90305 2.45409 8.88916L7.61909 8.13416C7.75325 8.1046 7.88663 8.07159 8.01909 8.03516M2.00006 2L22.0001 22" stroke="black" stroke-width="2" stroke-linecap="round" stroke-linejoin="round"/>
</svg>
