<svg width="24" height="24" viewBox="0 0 24 24" fill="none" xmlns="http://www.w3.org/2000/svg">
<path d="M20.9999 20V4M13.971 4.28502C14.2744 4.10292 14.6208 4.00462 14.9747 4.00016C15.3286 3.99569 15.6774 4.08522 15.9854 4.2596C16.2933 4.43398 16.5495 4.68697 16.7278 4.99274C16.906 5.2985 17 5.64609 17 6.00002V18C17 18.3539 16.906 18.7015 16.7278 19.0073C16.5495 19.3131 16.2933 19.5661 15.9854 19.7404C15.6774 19.9148 15.3286 20.0043 14.9747 19.9999C14.6208 19.9954 14.2744 19.8971 13.971 19.715L3.97396 13.717C3.67719 13.5397 3.43145 13.2885 3.26071 12.9879C3.08997 12.6873 3.00006 12.3476 2.99976 12.0019C2.99945 11.6562 3.08877 11.3163 3.25898 11.0154C3.4292 10.7145 3.6745 10.4628 3.97096 10.285L13.971 4.28502Z" stroke="black" stroke-width="2" stroke-linecap="round" stroke-linejoin="round"/>
</svg>
