<svg width="24" height="24" viewBox="0 0 24 24" fill="none" xmlns="http://www.w3.org/2000/svg">
<path d="M11.99 22L14 12M14 12L21.822 15.184M14 12L8.46997 2.30176M11.2641 2.20516C10.3504 1.90031 9.35745 1.93536 8.46757 2.30387C7.5777 2.67239 6.85067 3.34962 6.42005 4.21116L2.42006 12.2112C1.98407 13.0832 1.88158 14.0844 2.13183 15.0267C2.38208 15.9689 2.96785 16.7874 3.77905 17.3282L9.77906 21.3282C10.4362 21.7663 11.2083 22.0001 11.9981 22.0001C12.7878 22.0001 13.5599 21.7663 14.2171 21.3282L20.2171 17.3282C20.9469 16.8415 21.4966 16.1284 21.7814 15.2986C22.0662 14.4688 22.0703 13.5685 21.7931 12.7362L19.7931 6.73616C19.5967 6.14699 19.2658 5.61164 18.8267 5.17251C18.3876 4.73337 17.8522 4.40252 17.2631 4.20616L11.2641 2.20516Z" stroke="black" stroke-width="2" stroke-linecap="round" stroke-linejoin="round"/>
</svg>
