<svg width="24" height="24" viewBox="0 0 24 24" fill="none" xmlns="http://www.w3.org/2000/svg">
<path d="M10 21V20M10 4V3M10 9C9.20435 9 8.44129 9.31607 7.87868 9.87868C7.31607 10.4413 7 11.2044 7 12C7 12.7956 7.31607 13.5587 7.87868 14.1213C8.44129 14.6839 9.20435 15 10 15M14 20L15.25 17.5L18 18M14 4L15.25 6.5L18 6M17 21L14 15L15.5 12M15.5 12H22M15.5 12L14 9L17 3M2 12H3M20 10L18.5 12L20 14M3.64001 18.3602L4.34001 17.6602M4.34001 6.34014L3.64001 5.64014" stroke="black" stroke-width="2" stroke-linecap="round" stroke-linejoin="round"/>
</svg>
