<svg width="24" height="24" viewBox="0 0 24 24" fill="none" xmlns="http://www.w3.org/2000/svg">
<path d="M12 2V4M11.9999 8C11.0848 7.99954 10.1973 8.31286 9.48524 8.8877C8.77322 9.46254 8.27984 10.2641 8.08739 11.1588C7.89494 12.0534 8.01506 12.987 8.42771 13.8038C8.84037 14.6205 9.52061 15.2711 10.3549 15.647M2 12H4M4.93005 4.93018L6.34005 6.34018M6.34005 17.6602L4.93005 19.0702M20 14.54C20.7626 14.9803 21.3586 15.6599 21.6955 16.4734C22.0325 17.2869 22.0916 18.1888 21.8637 19.0394C21.6358 19.8899 21.1336 20.6415 20.435 21.1775C19.7365 21.7136 18.8805 22.0041 18 22.0041C17.1195 22.0041 16.2635 21.7136 15.565 21.1775C14.8664 20.6415 14.3642 19.8899 14.1363 19.0394C13.9084 18.1888 13.9675 17.2869 14.3045 16.4734C14.6415 15.6599 15.2374 14.9803 16 14.54V4C16 3.46957 16.2107 2.96086 16.5858 2.58579C16.9609 2.21071 17.4696 2 18 2C18.5304 2 19.0391 2.21071 19.4142 2.58579C19.7893 2.96086 20 3.46957 20 4V14.54Z" stroke="black" stroke-width="2" stroke-linecap="round" stroke-linejoin="round"/>
</svg>
