<svg width="24" height="24" viewBox="0 0 24 24" fill="none" xmlns="http://www.w3.org/2000/svg">
<path d="M16 12V16M16 6C16.5304 6.00011 17.039 6.2109 17.414 6.586L21.414 10.586C21.7891 10.961 21.9999 11.4696 22 12V19C22 19.5304 21.7893 20.0391 21.4142 20.4142C21.0391 20.7893 20.5304 21 20 21H4C3.46957 21 2.96086 20.7893 2.58579 20.4142C2.21071 20.0391 2 19.5304 2 19V12C2.00011 11.4696 2.2109 10.961 2.586 10.586L6.586 6.586C6.96099 6.2109 7.46961 6.00011 8 6M16 6H8M16 6V4C16 3.46957 15.7893 2.96086 15.4142 2.58579C15.0391 2.21071 14.5304 2 14 2H10C9.46957 2 8.96086 2.21071 8.58579 2.58579C8.21071 2.96086 8 3.46957 8 4V6M2 14H22M8 12V16" stroke="black" stroke-width="2" stroke-linecap="round" stroke-linejoin="round"/>
</svg>
