<svg width="24" height="24" viewBox="0 0 24 24" fill="none" xmlns="http://www.w3.org/2000/svg">
<path d="M10 15H14M14.8171 10.9948L13.8461 9.54484L14.8801 8.31284C15.1581 7.98937 15.3255 7.58548 15.3577 7.16016C15.3899 6.73483 15.2852 6.31036 15.0591 5.94871C14.8329 5.58707 14.497 5.30721 14.1005 5.14999C13.704 4.99278 13.2676 4.96644 12.8551 5.07484L11.0351 5.43884L9.91009 3.88484C9.68852 3.55559 9.37399 3.2997 9.00654 3.14974C8.63909 2.99978 8.23534 2.96253 7.84665 3.04273C7.45797 3.12293 7.10194 3.31696 6.82386 3.60012C6.54579 3.88328 6.35824 4.24277 6.28509 4.63284L6.14109 6.54984L4.41609 6.97584C4.02314 7.09612 3.67678 7.33453 3.42412 7.65863C3.17147 7.98273 3.02478 8.3768 3.00402 8.78722C2.98326 9.19764 3.08943 9.6045 3.30809 9.95244C3.52675 10.3004 3.84729 10.5725 4.22609 10.7318L4.88309 11.0018M18.822 10.9951L21.082 5.61507C21.1336 5.49215 21.1601 5.36014 21.16 5.22683C21.1598 5.09351 21.133 4.96158 21.0811 4.83878C21.0292 4.71598 20.9532 4.60479 20.8578 4.51177C20.7623 4.41874 20.6491 4.34574 20.525 4.29707L16.954 2.90007C16.713 2.80594 16.4449 2.80888 16.206 2.90827C15.9672 3.00767 15.7761 3.19577 15.673 3.43307L14.749 5.55507M4.00002 12.006C3.99923 11.8747 4.02431 11.7445 4.07384 11.6229C4.12336 11.5012 4.19636 11.3905 4.28866 11.2971C4.38097 11.2037 4.49076 11.1294 4.61179 11.0784C4.73281 11.0274 4.8627 11.0008 4.99402 11H19C19.2652 11 19.5196 11.1054 19.7071 11.2929C19.8947 11.4804 20 11.7348 20 12V19C20 19.5304 19.7893 20.0391 19.4142 20.4142C19.0392 20.7893 18.5305 21 18 21H6.00002C5.46959 21 4.96088 20.7893 4.5858 20.4142C4.21073 20.0391 4.00002 19.5304 4.00002 19V12.006Z" stroke="black" stroke-width="2" stroke-linecap="round" stroke-linejoin="round"/>
</svg>
