<svg width="24" height="24" viewBox="0 0 24 24" fill="none" xmlns="http://www.w3.org/2000/svg">
<path d="M16.05 10.9658C15.5864 11.286 14.9776 11.5466 14.2736 11.7263C13.5696 11.906 12.7904 11.9997 12 11.9997C11.2095 11.9997 10.4303 11.906 9.72627 11.7263C9.02226 11.5466 8.4135 11.286 7.94995 10.9658M16.9231 14.049L21.4031 16.089C21.5808 16.1671 21.7321 16.2951 21.8383 16.4576C21.9445 16.6201 22.0011 16.8101 22.0012 17.0042C22.0013 17.1984 21.9449 17.3883 21.8389 17.551C21.7328 17.7136 21.5818 17.8418 21.4041 17.92L12.8301 21.82C12.5695 21.9389 12.2864 22.0004 12.0001 22.0004C11.7137 22.0004 11.4306 21.9389 11.1701 21.82L2.59606 17.91C2.41861 17.8318 2.26774 17.7036 2.16182 17.5412C2.0559 17.3787 1.99951 17.189 1.99951 16.995C1.99951 16.8011 2.0559 16.6114 2.16182 16.4489C2.26774 16.2864 2.41861 16.1583 2.59606 16.08L7.08006 14.04M9.19409 6.56982C10.022 6.85034 10.999 7.00028 11.9991 7.00028C12.9991 7.00028 13.9762 6.85034 14.8041 6.56982M16.949 14.14C17.0501 14.4945 16.9976 14.8558 16.7952 15.1993C16.5927 15.5428 16.2451 15.8605 15.7757 16.131C15.3063 16.4015 14.7262 16.6184 14.0747 16.7671C13.4231 16.9158 12.7152 16.9927 11.999 16.9927C11.2828 16.9927 10.575 16.9158 9.92338 16.7671C9.2718 16.6184 8.6917 16.4015 8.22234 16.131C7.75298 15.8605 7.40532 15.5428 7.20289 15.1993C7.00046 14.8558 6.94799 14.4945 7.04902 14.14L10.063 3.50002C10.1735 3.07026 10.4238 2.68945 10.7745 2.41753C11.1251 2.14562 11.5563 1.99805 12 1.99805C12.4438 1.99805 12.8749 2.14562 13.2256 2.41753C13.5762 2.68945 13.8265 3.07026 13.937 3.50002L16.949 14.14Z" stroke="black" stroke-width="2" stroke-linecap="round" stroke-linejoin="round"/>
</svg>
