<svg width="24" height="24" viewBox="0 0 24 24" fill="none" xmlns="http://www.w3.org/2000/svg">
<path d="M10 8H6L5 7L4 8H2C2 5.24 4.46 3 7.5 3C10.54 3 13 5.24 13 8C13.5 10 16 16.5 14 22H10C10.83 20 11.5 18 11 15.5M13 7.14014C14.0126 6.39149 15.2407 5.99147 16.5 6.00014C19.54 6.00014 22 8.24014 22 11.0001H19L18 10.0001L17 11.0001H14M5.88997 9.70997C3.73997 11.86 3.58997 15.18 5.53997 17.14L9.77997 12.89L13.31 9.35997C11.36 7.39997 8.03997 7.55997 5.88997 9.70997Z" stroke="black" stroke-width="2" stroke-linecap="round" stroke-linejoin="round"/>
</svg>
