<svg width="24" height="24" viewBox="0 0 24 24" fill="none" xmlns="http://www.w3.org/2000/svg">
<path d="M12 19V22M8.00005 19C7.14205 19.0019 6.30616 18.7279 5.61581 18.2184C4.92546 17.7089 4.41724 16.9909 4.16617 16.1705C3.9151 15.35 3.9345 14.4706 4.22151 13.662C4.50851 12.8534 5.0479 12.1586 5.76005 11.68C5.32098 11.1314 5.05721 10.4633 5.00307 9.76273C4.94892 9.06214 5.1069 8.36148 5.45646 7.75191C5.80601 7.14235 6.33095 6.65212 6.96296 6.34501C7.59498 6.0379 8.3048 5.92813 9.00005 6.03V6C9.00005 5.20435 9.31612 4.44129 9.87873 3.87868C10.4413 3.31607 11.2044 3 12.0001 3C12.7957 3 13.5588 3.31607 14.1214 3.87868C14.684 4.44129 15.0001 5.20435 15.0001 6V6.04C15.6953 5.93813 16.4051 6.0479 17.0371 6.35501C17.6691 6.66212 18.1941 7.15235 18.5436 7.76191C18.8932 8.37148 19.0512 9.07214 18.997 9.77273C18.9429 10.4733 18.6791 11.1414 18.2401 11.69C18.9477 12.1702 19.4829 12.8645 19.767 13.6712C20.0511 14.4778 20.0692 15.3543 19.8187 16.1719C19.5681 16.9896 19.0621 17.7055 18.3748 18.2144C17.6876 18.7234 16.8553 18.9987 16.0001 19H8.00005Z" stroke="black" stroke-width="2" stroke-linecap="round" stroke-linejoin="round"/>
</svg>
