<svg width="24" height="24" viewBox="0 0 24 24" fill="none" xmlns="http://www.w3.org/2000/svg">
<path d="M13.73 4.00012C13.5542 3.69704 13.3019 3.44547 12.9983 3.27059C12.6946 3.09571 12.3504 3.00366 12 3.00366C11.6496 3.00366 11.3054 3.09571 11.0018 3.27059C10.6982 3.44547 10.4458 3.69704 10.27 4.00012L2.27003 18.0001C2.09458 18.304 2.00217 18.6487 2.00208 18.9996C2.00199 19.3505 2.09422 19.6953 2.26951 19.9992C2.44481 20.3032 2.69699 20.5557 3.00074 20.7314C3.3045 20.9071 3.64913 20.9998 4.00003 21.0001H20C20.3509 20.9998 20.6956 20.9071 20.9993 20.7314C21.3031 20.5557 21.5552 20.3032 21.7305 19.9992C21.9058 19.6953 21.9981 19.3505 21.998 18.9996C21.9979 18.6487 21.9055 18.304 21.73 18.0001L13.73 4.00012Z" stroke="black" stroke-width="2" stroke-linecap="round" stroke-linejoin="round"/>
</svg>
