<svg width="24" height="24" viewBox="0 0 24 24" fill="none" xmlns="http://www.w3.org/2000/svg">
<path d="M14 19V7C14 6.46957 13.7893 5.96086 13.4142 5.58579C13.0391 5.21071 12.5304 5 12 5H9M15 19H9M15 19C15 20.1046 15.8954 21 17 21C18.1046 21 19 20.1046 19 19M15 19C15 17.8954 15.8954 17 17 17C18.1046 17 19 17.8954 19 19M9 19C9 20.1046 8.10457 21 7 21C5.89543 21 5 20.1046 5 19M9 19C9 17.8954 8.10457 17 7 17C5.89543 17 5 17.8954 5 19M19 19H21C21.2652 19 21.5196 18.8946 21.7071 18.7071C21.8946 18.5196 22 18.2652 22 18V14.35C21.9987 14.1244 21.9212 13.9059 21.78 13.73L18.3 9.38C18.2069 9.26215 18.0884 9.16679 17.9534 9.101C17.8183 9.03521 17.6702 9.00069 17.52 9H14M2 13V18C2 18.2652 2.10536 18.5196 2.29289 18.7071C2.48043 18.8946 2.73478 19 3 19H5M4.00005 3L2.15005 5.15C2.07542 5.21826 2.02349 5.30774 2.00125 5.4064C1.97901 5.50506 1.98753 5.60817 2.02565 5.70185C2.06378 5.79553 2.12968 5.87528 2.21449 5.93037C2.29931 5.98546 2.39897 6.01325 2.50005 6.01H4.65005C4.75905 5.98449 4.87358 5.99873 4.97301 6.05014C5.07245 6.10156 5.15028 6.18678 5.19247 6.29047C5.23467 6.39415 5.23847 6.5095 5.2032 6.61574C5.16792 6.72198 5.09589 6.81214 5.00005 6.87L3.00005 9.02" stroke="black" stroke-width="2" stroke-linecap="round" stroke-linejoin="round"/>
</svg>
