<svg width="24" height="24" viewBox="0 0 24 24" fill="none" xmlns="http://www.w3.org/2000/svg">
<path d="M10 12.0098H10.01M18.0001 8V12C18.0006 13.4041 17.6316 14.7837 16.9301 16M14 12C14 14.2091 12.2091 16 10 16C7.79086 16 6 14.2091 6 12C6 9.79086 7.79086 8 10 8C12.2091 8 14 9.79086 14 12ZM4 4H20C21.1046 4 22 4.89543 22 6V18C22 19.1046 21.1046 20 20 20H4C2.89543 20 2 19.1046 2 18V6C2 4.89543 2.89543 4 4 4Z" stroke="black" stroke-width="2" stroke-linecap="round" stroke-linejoin="round"/>
</svg>
