<svg width="24" height="24" viewBox="0 0 24 24" fill="none" xmlns="http://www.w3.org/2000/svg">
<path d="M12 13V20C12 20.5304 12.2107 21.0391 12.5858 21.4142C12.9609 21.7893 13.4696 22 14 22C14.5304 22 15.0391 21.7893 15.4142 21.4142C15.7893 21.0391 16 20.5304 16 20M12 2V4M18.6561 13.0001H20.9921C21.1475 13.0014 21.3011 12.9664 21.4406 12.898C21.5802 12.8296 21.7019 12.7295 21.796 12.6059C21.8902 12.4822 21.9542 12.3383 21.983 12.1856C22.0118 12.0329 22.0047 11.8755 21.9621 11.7261C21.3041 9.16108 19.682 6.94876 17.4336 5.54982C15.1852 4.15088 12.4839 3.67313 9.89209 4.21608M2 2L22 22M5.961 5.95703C4.02122 7.36412 2.63397 9.40468 2.039 11.726C1.99663 11.8748 1.98933 12.0313 2.01768 12.1833C2.04603 12.3354 2.10926 12.4788 2.20239 12.6022C2.29552 12.7257 2.41603 12.8259 2.55443 12.8949C2.69282 12.9639 2.84535 12.9999 3 13H13" stroke="black" stroke-width="2" stroke-linecap="round" stroke-linejoin="round"/>
</svg>
