<svg width="24" height="24" viewBox="0 0 24 24" fill="none" xmlns="http://www.w3.org/2000/svg">
<path d="M12 13V20C12 20.5304 12.2107 21.0391 12.5858 21.4142C12.9609 21.7893 13.4696 22 14 22C14.5304 22 15.0391 21.7893 15.4142 21.4142C15.7893 21.0391 16 20.5304 16 20M12 2V4M20.992 12.9998C21.1474 13.0011 21.301 12.9662 21.4405 12.8978C21.5801 12.8293 21.7018 12.7293 21.7959 12.6057C21.8901 12.482 21.9541 12.3381 21.9829 12.1854C22.0118 12.0327 22.0046 11.8753 21.962 11.7258C21.3948 9.51472 20.1081 7.55514 18.3046 6.15584C16.501 4.75655 14.2832 3.99707 12.0005 3.99707C9.71779 3.99707 7.49996 4.75655 5.69643 6.15584C3.89289 7.55514 2.60618 9.51472 2.039 11.7258C1.99663 11.8746 1.98933 12.0311 2.01768 12.1832C2.04603 12.3352 2.10926 12.4786 2.20239 12.602C2.29552 12.7255 2.41603 12.8257 2.55443 12.8947C2.69282 12.9637 2.84535 12.9997 3 12.9998H20.992Z" stroke="black" stroke-width="2" stroke-linecap="round" stroke-linejoin="round"/>
</svg>
