<svg width="24" height="24" viewBox="0 0 24 24" fill="none" xmlns="http://www.w3.org/2000/svg">
<path d="M14 21V18C14 17.4696 13.7893 16.9609 13.4142 16.5858C13.0391 16.2107 12.5304 16 12 16C11.4696 16 10.9609 16.2107 10.5858 16.5858C10.2107 16.9609 10 17.4696 10 18V21M18 12H18.01M18 16H18.01M6 12H6.01M6 16H6.01M22 6.99978C22 6.73457 21.8946 6.48021 21.7071 6.29268C21.5196 6.10514 21.2652 5.99978 21 5.99978H19C18.5913 5.99972 18.1924 5.87444 17.857 5.64078L13.143 2.35978C12.8077 2.12606 12.4089 2.00067 12.0002 2.00049C11.5914 2.00031 11.1925 2.12535 10.857 2.35878L6.143 5.63978C5.80775 5.87379 5.40884 5.99943 5 5.99978H3C2.73478 5.99978 2.48043 6.10514 2.29289 6.29268C2.10536 6.48021 2 6.73457 2 6.99978V18.9998C2 19.5302 2.21071 20.0389 2.58579 20.414C2.96086 20.7891 3.46957 20.9998 4 20.9998H20C20.5304 20.9998 21.0391 20.7891 21.4142 20.414C21.7893 20.0389 22 19.5302 22 18.9998V6.99978ZM14 10C14 11.1046 13.1046 12 12 12C10.8954 12 10 11.1046 10 10C10 8.89543 10.8954 8 12 8C13.1046 8 14 8.89543 14 10Z" stroke="black" stroke-width="2" stroke-linecap="round" stroke-linejoin="round"/>
</svg>
