<svg width="24" height="24" viewBox="0 0 24 24" fill="none" xmlns="http://www.w3.org/2000/svg">
<path d="M8 15H7C5.93913 15 4.92172 15.4214 4.17157 16.1716C3.42143 16.9217 3 17.9391 3 19V21M16.051 12.6158C16.1171 12.4132 16.2462 12.2369 16.4194 12.1128C16.5927 11.9887 16.8012 11.9232 17.0143 11.9259C17.2275 11.9285 17.4342 11.9993 17.6043 12.1277C17.7744 12.2561 17.899 12.4356 17.96 12.6398L18.697 14.0918C18.7687 14.233 18.8729 14.3551 19.001 14.4481C19.1292 14.5411 19.2776 14.6024 19.434 14.6268L21.068 14.8828C21.2784 14.8837 21.4832 14.9508 21.6532 15.0748C21.8232 15.1987 21.9498 15.3732 22.0149 15.5732C22.0801 15.7733 22.0805 15.9888 22.016 16.1891C21.9516 16.3894 21.8256 16.5643 21.656 16.6888L20.484 17.8568C20.3718 17.9686 20.2877 18.1053 20.2387 18.2559C20.1896 18.4064 20.1771 18.5665 20.202 18.7228L20.461 20.3358C20.5322 20.538 20.5366 20.7577 20.4735 20.9626C20.4104 21.1674 20.2832 21.3466 20.1105 21.4737C19.9379 21.6007 19.729 21.6689 19.5146 21.6682C19.3003 21.6675 19.0918 21.598 18.92 21.4698L17.455 20.7198C17.3139 20.6475 17.1576 20.6098 16.999 20.6098C16.8404 20.6098 16.6841 20.6475 16.543 20.7198L15.078 21.4698C14.9062 21.5969 14.6981 21.6656 14.4844 21.6659C14.2707 21.6661 14.0625 21.5979 13.8904 21.4712C13.7183 21.3445 13.5913 21.166 13.5281 20.9618C13.4648 20.7577 13.4687 20.5387 13.539 20.3368L13.797 18.7238C13.8219 18.5675 13.8093 18.4074 13.7603 18.2569C13.7113 18.1063 13.6272 17.9695 13.515 17.8578L12.359 16.7048C12.1836 16.5834 12.0517 16.409 11.9825 16.2072C11.9133 16.0054 11.9105 15.7868 11.9744 15.5833C12.0383 15.3798 12.1656 15.202 12.3377 15.076C12.5098 14.95 12.7177 14.8823 12.931 14.8828L14.564 14.6268C14.7204 14.6024 14.8688 14.5411 14.9969 14.4481C15.1251 14.3551 15.2293 14.233 15.301 14.0918L16.051 12.6158ZM14 7C14 9.20914 12.2091 11 10 11C7.79086 11 6 9.20914 6 7C6 4.79086 7.79086 3 10 3C12.2091 3 14 4.79086 14 7Z" stroke="black" stroke-width="2" stroke-linecap="round" stroke-linejoin="round"/>
</svg>
