<svg width="24" height="24" viewBox="0 0 24 24" fill="none" xmlns="http://www.w3.org/2000/svg">
<path d="M19 11V17M19 17C17.8954 17 17 17.8954 17 19C17 20.1046 17.8954 21 19 21C20.1046 21 21 20.1046 21 19C21 17.8954 20.1046 17 19 17ZM19 13H21M2 21.0001C1.99989 19.5071 2.41758 18.0439 3.20581 16.7759C3.99404 15.5079 5.12136 14.4858 6.46025 13.8252C7.79915 13.1646 9.29618 12.8919 10.782 13.0378C12.2679 13.1838 13.6832 13.7426 14.868 14.6511M15 8C15 10.7614 12.7614 13 10 13C7.23858 13 5 10.7614 5 8C5 5.23858 7.23858 3 10 3C12.7614 3 15 5.23858 15 8Z" stroke="black" stroke-width="2" stroke-linecap="round" stroke-linejoin="round"/>
</svg>
