<svg width="24" height="24" viewBox="0 0 24 24" fill="none" xmlns="http://www.w3.org/2000/svg">
<path d="M19.5 7C20.2021 10.2964 20.2021 13.7036 19.5 17M4.5 7C3.79785 10.2964 3.79785 13.7036 4.5 17M7 19.5C10.2964 20.2021 13.7036 20.2021 17 19.5M7 4.50024C10.2964 3.7981 13.7036 3.7981 17 4.50024M18 17H21C21.5523 17 22 17.4477 22 18V21C22 21.5523 21.5523 22 21 22H18C17.4477 22 17 21.5523 17 21V18C17 17.4477 17.4477 17 18 17ZM18 2H21C21.5523 2 22 2.44772 22 3V6C22 6.55228 21.5523 7 21 7H18C17.4477 7 17 6.55228 17 6V3C17 2.44772 17.4477 2 18 2ZM3 17H6C6.55228 17 7 17.4477 7 18V21C7 21.5523 6.55228 22 6 22H3C2.44772 22 2 21.5523 2 21V18C2 17.4477 2.44772 17 3 17ZM3 2H6C6.55228 2 7 2.44772 7 3V6C7 6.55228 6.55228 7 6 7H3C2.44772 7 2 6.55228 2 6V3C2 2.44772 2.44772 2 3 2Z" stroke="black" stroke-width="2" stroke-linecap="round" stroke-linejoin="round"/>
</svg>
