<svg width="24" height="24" viewBox="0 0 24 24" fill="none" xmlns="http://www.w3.org/2000/svg">
<path d="M7.99902 15C8.23189 14.6895 8.53385 14.4375 8.88099 14.2639C9.22813 14.0904 9.61091 14 9.99902 14C10.3871 14 10.7699 14.0904 11.1171 14.2639C11.4642 14.4375 11.7662 14.6895 11.999 15C12.2319 15.3105 12.5339 15.5625 12.881 15.7361C13.2281 15.9096 13.6109 16 13.999 16C14.3871 16 14.7699 15.9096 15.1171 15.7361C15.4642 15.5625 15.7662 15.3105 15.999 15M6.49997 8C6.06705 8.00427 5.64721 8.14891 5.30352 8.41218C4.95983 8.67545 4.71084 9.04314 4.59397 9.46L2.09997 18.5C2.02437 18.7926 2.01606 19.0985 2.07565 19.3947C2.13525 19.691 2.2612 19.9699 2.44405 20.2105C2.6269 20.4511 2.8619 20.6471 3.13138 20.7839C3.40086 20.9206 3.69783 20.9945 3.99997 21H20C20.3086 20.9999 20.6131 20.9283 20.8895 20.7909C21.1659 20.6535 21.4068 20.454 21.5932 20.208C21.7796 19.962 21.9066 19.6762 21.9642 19.3729C22.0217 19.0697 22.0083 18.7572 21.925 18.46L19.4 9.5C19.2898 9.07341 19.0419 8.69512 18.6947 8.42388C18.3476 8.15265 17.9205 8.00364 17.48 8H6.49997ZM15 5C15 6.65685 13.6569 8 12 8C10.3431 8 9 6.65685 9 5C9 3.34315 10.3431 2 12 2C13.6569 2 15 3.34315 15 5Z" stroke="black" stroke-width="2" stroke-linecap="round" stroke-linejoin="round"/>
</svg>
