<svg width="24" height="24" viewBox="0 0 24 24" fill="none" xmlns="http://www.w3.org/2000/svg">
<path d="M2 8.82015C4.75011 6.36037 8.31034 5.00049 12 5.00049C15.6897 5.00049 19.2499 6.36037 22 8.82015M5 12.859C6.35803 11.529 8.067 10.6136 9.92665 10.2201C11.7863 9.82655 13.7196 9.97118 15.5 10.637M8.5 16.429C9.31115 15.633 10.3693 15.1371 11.5 15.0229M21.378 16.6261C21.7763 16.2278 22.0001 15.6875 22.0001 15.1241C22.0001 14.5608 21.7763 14.0205 21.378 13.6221C20.9796 13.2238 20.4393 13 19.876 13C19.3126 13 18.7723 13.2238 18.374 13.6221L14.364 17.6341C14.1262 17.8718 13.9522 18.1655 13.858 18.4881L13.021 21.3581C12.9959 21.4442 12.9944 21.5354 13.0166 21.6222C13.0389 21.7091 13.084 21.7883 13.1474 21.8517C13.2108 21.9151 13.2901 21.9603 13.3769 21.9825C13.4637 22.0048 13.5549 22.0032 13.641 21.9781L16.511 21.1411C16.8336 21.0469 17.1274 20.8729 17.365 20.6351L21.378 16.6261Z" stroke="black" stroke-width="2" stroke-linecap="round" stroke-linejoin="round"/>
</svg>
