<svg width="24" height="24" viewBox="0 0 24 24" fill="none" xmlns="http://www.w3.org/2000/svg">
<path d="M15.965 14.105H11.965V10.105M11.965 14.105L13.5 12.5C14.074 11.9483 14.7715 11.5416 15.5344 11.3139C16.2973 11.0861 17.1036 11.0439 17.8861 11.1906C18.6686 11.3373 19.4048 11.6688 20.0334 12.1575C20.662 12.6461 21.1648 13.2778 21.5 14M21.965 22.105L21.9651 18.105H17.9651M21.9651 18.105L20.4301 19.71C19.856 20.2617 19.1585 20.6683 18.3956 20.8961C17.6327 21.1238 16.8265 21.1661 16.0439 21.0194C15.2614 20.8726 14.5252 20.5412 13.8966 20.0525C13.268 19.5639 12.7652 18.9322 12.4301 18.21M2 8.82015C4.75011 6.36037 8.31034 5.00049 12 5.00049C15.6897 5.00049 19.2499 6.36037 22 8.82015M5 12.8601C5.86792 12.0058 6.88461 11.3171 8 10.8281M8.5 16.4292H8.51" stroke="black" stroke-width="2" stroke-linecap="round" stroke-linejoin="round"/>
</svg>
