<svg width="24" height="24" viewBox="0 0 24 24" fill="none" xmlns="http://www.w3.org/2000/svg">
<path d="M14.3051 19.5299L15.2281 19.1479M15.2281 16.8522L14.3051 16.4692M16.852 15.2282L16.469 14.3052M16.852 20.772L16.469 21.696M19.1479 15.2282L19.5309 14.3052M19.5299 21.696L19.1479 20.772M2 7.82015C4.75011 5.36037 8.31034 4.00049 12 4.00049C15.6897 4.00049 19.2499 5.36037 22 7.82015M20.772 16.8522L21.696 16.4692M20.772 19.1479L21.696 19.5309M5 11.858C6.49091 10.3977 8.40134 9.44039 10.4636 9.12029C12.5258 8.80019 14.6366 9.13332 16.5 10.073M8.5 15.4291C9.16633 14.7759 10.0022 14.3221 10.913 14.1191M21 18C21 19.6569 19.6569 21 18 21C16.3431 21 15 19.6569 15 18C15 16.3431 16.3431 15 18 15C19.6569 15 21 16.3431 21 18Z" stroke="black" stroke-width="2" stroke-linecap="round" stroke-linejoin="round"/>
</svg>
