<svg width="24" height="24" viewBox="0 0 24 24" fill="none" xmlns="http://www.w3.org/2000/svg">
<path d="M12 7.49996C12.0054 6.63248 12.2614 5.78503 12.7372 5.05966C13.213 4.33429 13.8883 3.76191 14.6819 3.41143C15.4754 3.06096 16.3534 2.94732 17.21 3.08421C18.0666 3.2211 18.8654 3.60268 19.5103 4.18301C20.1551 4.76334 20.6184 5.51768 20.8444 6.35521C21.0705 7.19274 21.0497 8.07776 20.7844 8.90372C20.5192 9.72967 20.0208 10.4614 19.3494 11.0107C18.678 11.56 17.8621 11.9036 17 12M12 7.49996C11.9946 6.63248 11.7385 5.78503 11.2627 5.05966C10.7869 4.33429 10.1116 3.76191 9.31803 3.41143C8.52448 3.06096 7.64654 2.94732 6.78991 3.08421C5.93327 3.2211 5.13447 3.60268 4.48966 4.18301C3.84485 4.76334 3.38153 5.51768 3.15547 6.35521C2.92941 7.19274 2.95026 8.07776 3.2155 8.90372C3.48074 9.72967 3.97906 10.4614 4.65048 11.0107C5.3219 11.56 6.13779 11.9036 6.99991 12M12 7.49996L11.9999 21" stroke="black" stroke-width="2" stroke-linecap="round" stroke-linejoin="round"/>
</svg>
