<svg width="24" height="24" viewBox="0 0 24 24" fill="none" xmlns="http://www.w3.org/2000/svg">
<path d="M10 19V5.5M10 5.5C10 4.83696 10.2634 4.20107 10.7322 3.73223C11.2011 3.26339 11.837 3 12.5 3C13.163 3 13.7989 3.26339 14.2678 3.73223C14.7366 4.20107 15 4.83696 15 5.5V17C15 17.5304 15.2107 18.0391 15.5858 18.4142C15.9609 18.7893 16.4696 19 17 19H22M10 5.5C10 4.83696 9.73661 4.20107 9.26777 3.73223C8.79893 3.26339 8.16304 3 7.5 3C6.83696 3 6.20107 3.26339 5.73223 3.73223C5.26339 4.20107 5 4.83696 5 5.5M19 22L22 19L19 16M5 19V5.5M5 5.5C5 4.83696 4.73661 4.20107 4.26777 3.73223C3.79893 3.26339 3.16304 3 2.5 3" stroke="black" stroke-width="2" stroke-linecap="round" stroke-linejoin="round"/>
</svg>
