<svg width="24" height="24" viewBox="0 0 24 24" fill="none" xmlns="http://www.w3.org/2000/svg">
<path d="M3 16.0002H9.857C10.019 15.9882 10.047 15.6772 9.895 15.6202C8.57876 15.1268 7.47752 14.1869 6.78344 12.9646C6.08936 11.7422 5.84649 10.3149 6.09721 8.93179C6.34793 7.54865 7.07631 6.29744 8.15529 5.39647C9.23426 4.49549 10.5953 4.00195 12.001 4.00195C13.4067 4.00195 14.7677 4.49549 15.8467 5.39647C16.9257 6.29744 17.6541 7.54865 17.9048 8.93179C18.1555 10.3149 17.9126 11.7422 17.2186 12.9646C16.5245 14.1869 15.4232 15.1268 14.107 15.6202C13.954 15.6772 13.982 15.9882 14.145 16.0002H21M3 20H21" stroke="black" stroke-width="2" stroke-linecap="round" stroke-linejoin="round"/>
</svg>
