<svg width="24" height="24" viewBox="0 0 24 24" fill="none" xmlns="http://www.w3.org/2000/svg">
<path d="M11 5.5C11 4.83696 11.2634 4.20107 11.7322 3.73223C12.2011 3.26339 12.837 3 13.5 3C14.163 3 14.7989 3.26339 15.2678 3.73223C15.7366 4.20107 16 4.83696 16 5.5V16C16 17.3261 16.5268 18.5979 17.4645 19.5355C18.4021 20.4732 19.6739 21 21 21M11 5.5C11 4.83696 10.7366 4.20107 10.2678 3.73223C9.79893 3.26339 9.16304 3 8.5 3C7.83696 3 7.20107 3.26339 6.73223 3.73223C6.26339 4.20107 6 4.83696 6 5.5M11 5.5V19M16 11.5C16 10.837 16.2634 10.2011 16.7322 9.73223C17.2011 9.26339 17.837 9 18.5 9C19.163 9 19.7989 9.26339 20.2678 9.73223C20.7366 10.2011 21 10.837 21 11.5V16C21 17.3261 20.4732 18.5979 19.5355 19.5355C18.5979 20.4732 17.3261 21 16 21M6 19V6C6 5.20435 5.68393 4.44129 5.12132 3.87868C4.55871 3.31607 3.79565 3 3 3" stroke="black" stroke-width="2" stroke-linecap="round" stroke-linejoin="round"/>
</svg>
