<svg width="24" height="24" viewBox="0 0 24 24" fill="none" xmlns="http://www.w3.org/2000/svg">
<path d="M11 21C11.7956 21 12.5587 20.6839 13.1213 20.1213C13.6839 19.5587 14 18.7956 14 18V6.5C14 5.57174 13.6313 4.6815 12.9749 4.02513C12.3185 3.36875 11.4283 3 10.5 3C9.57174 3 8.6815 3.36875 8.02513 4.02513C7.36875 4.6815 7 5.57174 7 6.5M7 19V6C7 5.20435 6.68393 4.44129 6.12132 3.87868C5.55871 3.31607 4.79565 3 4 3M20 17C20 18.6569 18.6569 20 17 20C15.3431 20 14 18.6569 14 17C14 15.3431 15.3431 14 17 14C18.6569 14 20 15.3431 20 17Z" stroke="black" stroke-width="2" stroke-linecap="round" stroke-linejoin="round"/>
</svg>
