<svg width="24" height="24" viewBox="0 0 24 24" fill="none" xmlns="http://www.w3.org/2000/svg">
<path d="M21 14.5C21.0012 15.7979 20.4643 17.0663 19.4585 18.1419C18.4528 19.2176 17.0242 20.0511 15.3568 20.5352C13.6894 21.0193 11.8595 21.1317 10.1028 20.8581C8.34606 20.5845 6.74298 19.9374 5.5 19M21 14.5C21 16.433 19.433 18 17.5 18C15.567 18 14 16.433 14 14.5C14 12.567 15.567 11 17.5 11C19.433 11 21 12.567 21 14.5ZM3 9.49981C2.99884 8.20191 3.5357 6.93347 4.54145 5.85787C5.5472 4.78226 6.97578 3.94874 8.6432 3.46465C10.3106 2.98056 12.1405 2.86807 13.8972 3.14167C15.6539 3.41528 17.257 4.06244 18.5 4.99981M3 9.49981C3 11.4328 4.567 13 6.5 13C8.433 13 10 11.433 10 9.5C10 7.567 8.433 6 6.5 6C4.567 6 3 7.56682 3 9.49981Z" stroke="black" stroke-width="2" stroke-linecap="round" stroke-linejoin="round"/>
</svg>
