<svg width="24" height="24" viewBox="0 0 24 24" fill="none" xmlns="http://www.w3.org/2000/svg">
<path d="M3 9.99977C3.56821 9.36979 4.26236 8.86613 5.03754 8.5214C5.81271 8.17667 6.65163 7.99854 7.5 7.99854C8.34837 7.99854 9.18729 8.17667 9.96246 8.5214C10.7376 8.86613 11.4318 9.36979 12 9.99977C12.5682 10.6297 13.2624 11.1334 14.0375 11.4781C14.8127 11.8229 15.6516 12.001 16.5 12.001C17.3484 12.001 18.1873 11.8229 18.9625 11.4781C19.7376 11.1334 20.4318 10.6297 21 9.99977M6 3V15C6 16.5913 6.63214 18.1174 7.75736 19.2426C8.88258 20.3679 10.4087 21 12 21C13.5913 21 15.1174 20.3679 16.2426 19.2426C17.3679 18.1174 18 16.5913 18 15V3" stroke="black" stroke-width="2" stroke-linecap="round" stroke-linejoin="round"/>
</svg>
