<svg width="24" height="24" viewBox="0 0 24 24" fill="none" xmlns="http://www.w3.org/2000/svg">
<path d="M2 9.99981L4.456 6.31581C4.52044 6.23072 4.60348 6.16149 4.69877 6.11342C4.79407 6.06535 4.89909 6.03971 5.00582 6.03845C5.11254 6.0372 5.21814 6.06037 5.31454 6.10619C5.41094 6.152 5.49558 6.21926 5.562 6.30281L7.952 9.71581C8.01763 9.79823 8.10101 9.86477 8.19594 9.91047C8.29087 9.95618 8.39489 9.97987 8.50024 9.97977C8.6056 9.97967 8.70957 9.9558 8.80442 9.90992C8.89926 9.86404 8.98252 9.79735 9.048 9.71481L11.45 6.28281C11.5155 6.19997 11.599 6.13303 11.694 6.08701C11.7891 6.04099 11.8934 6.01709 11.999 6.01709C12.1046 6.01709 12.2089 6.04099 12.304 6.08701C12.399 6.13303 12.4825 6.19997 12.548 6.28281L14.95 9.71481C15.0155 9.79765 15.099 9.86459 15.194 9.91061C15.2891 9.95663 15.3934 9.98053 15.499 9.98053C15.6046 9.98053 15.7089 9.95663 15.804 9.91061C15.899 9.86459 15.9825 9.79765 16.048 9.71481L18.437 6.30181C18.5034 6.21826 18.5881 6.151 18.6845 6.10519C18.7809 6.05937 18.8865 6.0362 18.9932 6.03745C19.0999 6.03871 19.2049 6.06435 19.3002 6.11242C19.3955 6.16049 19.4786 6.22972 19.543 6.31481L22 9.99981M2 18.0022L4.456 14.3182C4.52044 14.2331 4.60348 14.1639 4.69877 14.1158C4.79407 14.0678 4.89909 14.0421 5.00582 14.0409C5.11254 14.0396 5.21814 14.0628 5.31454 14.1086C5.41094 14.1544 5.49558 14.2217 5.562 14.3052L7.952 17.7182C8.01754 17.8009 8.10092 17.8677 8.1959 17.9136C8.29088 17.9595 8.39501 17.9833 8.5005 17.9833C8.60599 17.9833 8.71012 17.9595 8.8051 17.9136C8.90008 17.8677 8.98346 17.8009 9.049 17.7182L11.451 14.2862C11.5165 14.2034 11.6 14.1364 11.695 14.0904C11.7901 14.0444 11.8944 14.0205 12 14.0205C12.1056 14.0205 12.2099 14.0444 12.305 14.0904C12.4 14.1364 12.4835 14.2034 12.549 14.2862L14.951 17.7182C15.0165 17.8011 15.1 17.868 15.195 17.914C15.2901 17.96 15.3944 17.9839 15.5 17.9839C15.6056 17.9839 15.7099 17.96 15.805 17.914C15.9 17.868 15.9835 17.8011 16.049 17.7182L18.438 14.3052C18.5044 14.2217 18.5891 14.1544 18.6855 14.1086C18.7819 14.0628 18.8875 14.0396 18.9942 14.0409C19.1009 14.0421 19.2059 14.0678 19.3012 14.1158C19.3965 14.1639 19.4796 14.2331 19.544 14.3182L22 18.0022" stroke="black" stroke-width="2" stroke-linecap="round" stroke-linejoin="round"/>
</svg>
